<svg width="84" height="69" viewBox="0 0 84 69" fill="none" xmlns="http://www.w3.org/2000/svg">
<g clip-path="url(#clip0_54_4)">
<path d="M31.5 15L36.5 24.5L43 30.5C42 26 39.6 16.6 38 15C36.4 13.4 33.1667 14.5 31.5 15Z" fill="#F2A49A"/>
<path d="M37.5 19.5C36.7 24.3 40.6666 28.1667 42.5 29C42.8333 29 43.9 28.5 45.5 26.5C47.5 24 45.5 20.5 45.5 16.5C45.5 13.3 43.1666 10.5 42 9.5C40 12.5 38.5 13.5 37.5 19.5Z" fill="#BC7D89"/>
<path d="M77.5 40C79.1 41.2 74.8333 45.5 72.5 47.5C71.6667 46.8333 69.5 44.8 67.5 42C65.5 39.2 60 38.8333 57.5 39C59.3333 37.5 63.7 34.5 66.5 34.5C70 34.5 75.5 38.5 77.5 40Z" fill="#D48389"/>
<path d="M51.5 19.5C43.1 21.9 42.6666 27.8333 43.5 30.5C45.1 30.1 51.5 24 54.5 21C55.6667 21 58 20.7 58 19.5C58 18.3 53.6666 19 51.5 19.5Z" fill="#FCA9B9"/>
<path d="M26 24.5C31.2 32.9 39.5 32 43 30.5C40.3333 27.8333 34 22.5 30 22.5C26 22.5 25.6667 23.8333 26 24.5Z" fill="#FCA9B9"/>
<path d="M53.5 48C52.5123 47.2098 48.8333 44.1667 46.5 43C48.1667 41.8333 53.1 39.5 59.5 39.5C67.5 39.5 69.5 44.5 71.5 46C73.5 47.5 75.5 48.5 69.5 51.5C63.5 54.5 56 50 53.5 48Z" fill="#FCA9B9"/>
<path d="M69 29.5L65 34C68.2 33.6 72 36.1667 73.5 37.5C73.8333 36.8333 74.8 35.1 76 33.5C77.2 31.9 77.5 30.8333 77.5 30.5C74.7 27.3 70.6667 28.5 69 29.5Z" fill="#F2ABA9"/>
<path d="M59 28.5C51 30.9 47.6667 38.8333 47 42.5L58.5 38.5C64.1 35.7 68.1667 29.6667 69.5 27C69.3333 26.5 67 26.1 59 28.5Z" fill="#F2A49A"/>
<path d="M79.5 36C79.5 35.6 77.1667 34.1667 76 33.5L71.5 36.5L75.5 39C76.8333 38.1667 79.5 36.4 79.5 36Z" fill="#BC7D89"/>
<path d="M77.8931 39.4047C77.9743 39.4936 78.1738 39.6048 78.3362 39.7825C78.7198 40.3449 78.4527 40.9804 78.3415 41.1799C77.3696 43.4705 75.9388 46.1153 73.5341 47.3022L74.2943 48.2053C74.5527 48.5236 74.9439 48.916 74.9652 49.5815C75.0234 50.1805 74.7116 51.0525 73.2025 51.6492C67.4764 53.9476 61.7168 53.9614 57.4244 51.6557C55.6439 50.7067 54.1523 49.3959 52.6902 48.1886C52.1806 47.7738 51.7228 47.3443 51.2133 46.9295C49.2415 45.3074 47.4687 44.1884 45.1769 44.0002L45.1252 44.0149C42.205 43.7815 39.2614 44.45 36.4866 45.9099C37.2404 46.1993 38.0753 46.5776 38.8067 46.9854L39.0061 47.0965C43.8157 49.647 48.3145 52.2857 50.8589 56.7108C50.9842 56.955 51.006 57.2285 50.8948 57.428C50.7983 57.6793 50.5542 57.8046 50.2806 57.8264C48.2618 58.0083 46.3184 57.2735 44.6779 56.6204C42.2173 55.6409 39.6531 54.6908 37.3707 53.1569C37.356 53.1052 37.3042 53.1199 37.2895 53.0681C35.4207 51.8085 33.0795 50.0675 32.757 48.1447C31.4914 49.0079 30.1223 49.9006 28.6943 50.5861C22.5088 53.6306 14.6945 53.1091 8.93288 49.3743C8.73342 49.2631 8.51924 49.1001 8.30506 48.9371C7.95791 48.7 7.87728 48.2193 8.11438 47.8722C8.35148 47.525 8.83219 47.4444 9.17934 47.6815C13.1752 50.5191 18.4601 51.5915 23.3042 50.7187C21.9167 48.9866 23.1498 45.055 23.5951 43.8652C24.5899 41.0645 26.6192 38.7532 29.0756 37.5517C29.3198 37.4263 29.6081 37.4563 29.8223 37.6193C30.0364 37.7823 30.1618 38.0264 30.1318 38.3148L29.7707 42.5582C29.6054 44.3398 29.4549 46.1732 28.7795 47.9319C28.683 48.1831 28.4754 48.6339 28.2159 49.0993C29.5774 48.3767 30.9094 47.5505 32.175 46.6873C32.8781 46.2078 33.5812 45.7282 34.3508 45.2857C36.2759 43.3957 38.1939 41.284 39.7501 38.8833C41.2174 36.5638 42.1452 34.1179 42.4887 31.782C42.3851 31.8114 42.2816 31.8409 42.1263 31.885C36.609 32.949 30.6304 31.0106 26.7916 26.9532C25.5884 25.6724 25.2206 24.378 25.6953 23.2918C26.2442 22.0727 27.6793 21.6089 29.7269 21.9225C31.5526 22.2431 33.3043 22.6966 34.8929 23.3644L31.9508 17.9331C31.5895 17.2524 31.2135 16.5199 30.941 15.7579C30.8822 15.5508 30.6539 14.9442 30.9504 14.4123C31.1728 14.0134 31.5205 13.8586 31.6758 13.8145C33.5033 12.9595 35.7139 13.0588 37.5461 13.9931C38.2962 11.7096 39.4894 9.80374 41.0738 8.29036C41.3921 8.03205 41.8357 8.0179 42.1311 8.26972C45.5497 11.4392 47.3616 16.2403 46.9852 20.8238C48.3396 19.8794 50.0265 19.1203 52.1717 18.3989C55.1453 17.442 57.3706 17.5931 58.8251 18.9705C58.9875 19.1482 59.1129 19.3923 59.0682 19.6289C59.0235 19.8654 58.8605 20.0796 58.6163 20.2049C55.5385 21.583 52.7409 23.5531 50.3639 26.0191C50.1121 26.3144 49.8085 26.6245 49.542 26.8681C48.0017 28.5369 46.4096 30.2203 44.1167 30.8158C43.935 33.7213 42.8955 36.7585 41.0281 39.6393C40.1685 40.9467 39.2277 42.1653 38.2205 43.3468C40.4028 42.5589 42.6657 42.2517 44.9427 42.3881C45.3128 42.115 45.6976 41.8938 46.0306 41.6873C46.0994 40.1569 46.6488 38.5459 47.7384 36.6695C52.1628 29.5928 60.5535 25.2502 68.7597 25.7723C68.9962 25.817 69.6764 25.8476 69.9935 26.373C70.4066 27.039 70.0506 27.7557 69.9395 27.9552C69.8653 28.0882 69.7912 28.2211 69.7171 28.3541C70.6343 28.0375 71.5957 27.8763 72.3942 27.9292C73.991 28.035 75.5132 28.6657 76.7471 29.2664C78.2987 30.0006 78.4082 30.9767 78.3187 31.4498C78.2664 31.8564 78.0293 32.2035 77.7775 32.4989C77.5257 32.7943 77.2738 33.0897 76.9703 33.3998L79.3121 34.7488C80.1099 35.1936 80.1682 35.7926 80.1011 36.1474C80.0712 36.4357 79.8935 36.5981 79.8193 36.731C79.0786 37.669 78.1237 38.4439 77.0435 38.9747L77.8931 39.4047ZM25.1543 44.4294C24.4119 46.5429 23.9866 49.1818 24.6733 49.8261C24.7545 49.9149 24.8357 50.0038 24.9539 50.0261C25.0403 46.5882 26.0951 43.2108 27.896 40.293C26.6522 41.4298 25.7038 42.8184 25.1543 44.4294ZM25.3317 49.583C25.4058 49.4501 25.517 49.2506 25.5911 49.1176C26.073 48.2533 26.5919 47.3224 26.8225 46.3616C27.1196 45.4378 27.2984 44.4917 27.529 43.5309C27.782 42.4518 28.0202 41.3209 28.3914 40.2641C26.5464 43.0267 25.5139 46.2858 25.3317 49.583ZM28.4474 42.4305L28.5827 40.9372C28.3374 41.8463 28.1438 42.7406 27.9356 43.5832C27.705 44.544 27.4744 45.5049 27.2291 46.4139C26.9467 47.3895 26.4278 48.3203 25.9606 49.2365C25.8124 49.5024 25.7012 49.7019 25.5529 49.9678C26.2854 49.5918 27.2486 48.255 27.5457 47.3312C28.1393 45.8755 28.2527 44.1086 28.4474 42.4305ZM38.2542 20.227C38.2607 20.8407 38.2819 21.5061 38.2884 22.1198C38.3025 22.5634 38.5309 23.17 38.811 23.7619C38.7227 23.4513 38.6715 23.0741 38.635 22.7488C38.4514 21.9056 38.3713 21.0331 38.2542 20.227ZM29.6434 23.4011C29.1703 23.3117 27.6105 23.1393 27.2546 23.856C26.9357 24.5062 27.7106 25.4611 28.0872 25.8017C31.5123 29.5849 36.9885 31.3304 41.9732 30.3617C42.0768 30.3323 42.1803 30.3028 42.2839 30.2734C41.7525 29.585 41.1176 28.9261 40.4457 28.3336L40.3792 28.2965C40.1132 28.1483 39.8179 27.8965 39.5595 27.5782C36.9082 25.5336 33.5314 24.087 29.6434 23.4011ZM32.5167 15.1983L32.5314 15.2501C32.7744 15.9085 33.121 16.5375 33.4676 17.1664L37.3389 24.2921L37.3536 24.3439C37.4201 24.381 37.4201 24.381 37.4865 24.418C37.0958 23.6338 36.8604 22.8053 36.8022 22.2063C36.6208 19.7958 36.809 17.504 37.3444 15.4494C35.9187 14.5674 34.1 14.4687 32.5167 15.1983ZM38.4053 18.0017C38.5731 19.5768 38.7261 21.1001 39.0121 22.6976C39.144 23.5554 39.357 24.5021 39.7107 25.3529C40.0131 25.8265 40.3526 26.2337 40.6774 26.589C40.8104 26.6632 40.9063 26.8038 41.0393 26.8779C40.5756 25.4429 40.3855 23.986 40.2542 22.7363C39.9198 18.8024 40.1474 14.8767 40.9145 11.0775C39.5883 12.9092 38.6976 15.2887 38.4053 18.0017ZM43.7811 12.5013C43.9206 13.1891 43.9712 13.9581 44.0442 14.6089C44.195 17.6996 44.1904 20.8345 44.0158 23.9618C44.4012 23.3487 44.853 22.7726 45.4231 22.2189C46.1155 18.9446 45.4552 15.439 43.7811 12.5013ZM43.9784 29.3443C45.7906 28.8294 47.1161 27.3895 48.5823 25.8538C48.8859 25.5437 49.1377 25.2483 49.4413 24.9383C51.6035 22.7011 54.1052 20.8712 56.8429 19.4778C55.8673 19.1954 54.4994 19.3043 52.8202 19.8933C50.6232 20.6295 49.0028 21.4256 47.6484 22.37C46.0274 23.5581 44.9014 25.1091 44.4184 26.7572C44.2919 27.2967 44.1654 27.8363 44.1054 28.4129C44.0754 28.7012 43.9936 29.0042 43.9266 29.359C43.9119 29.3072 43.9637 29.2925 43.9784 29.3443ZM42.568 28.1223C42.6797 27.5309 42.7768 26.8878 42.9403 26.2818C43.0668 25.7422 43.3116 25.2251 43.571 24.7596C43.7903 21.3959 43.8396 18.0244 43.6153 14.6748C43.5799 13.5657 43.4263 12.4342 43.0285 11.4281C42.6596 10.9174 42.2242 10.3696 41.7517 9.88837C41.6258 10.0361 41.4999 10.1838 41.4257 10.3167C40.5104 14.3819 40.2381 18.5441 40.5796 22.6998C40.7032 24.1196 40.9522 25.7835 41.5783 27.3963C41.8884 27.6998 42.2502 27.9887 42.575 28.3441C42.5456 28.2405 42.5827 28.1741 42.568 28.1223ZM38.4202 48.3822L38.2207 48.271C37.504 47.9151 35.7088 46.9143 34.8657 47.0979C34.7621 47.1273 34.7251 47.1938 34.6215 47.2232C34.9599 48.4141 36.112 49.3178 37.3382 50.0885C37.3529 50.1403 37.4047 50.1256 37.4047 50.1256C39.4729 51.4964 41.667 52.7196 43.8465 53.891C44.5631 54.2469 45.3316 54.5881 46.1518 54.9147C47.0385 55.2782 47.9917 55.6789 48.8413 56.109C46.3323 52.7929 42.4983 50.5249 38.4202 48.3822ZM38.2156 51.7977C40.4167 53.2427 42.8774 54.2223 45.3233 55.15C46.0253 55.4542 46.7643 55.6919 47.5551 55.9148C47.0379 55.6701 46.5354 55.4771 46.0182 55.2324C45.198 54.9059 44.3778 54.5794 43.6464 54.1716C41.4152 53.015 39.2582 51.7253 37.1382 50.3692C37.1234 50.3174 37.0717 50.3321 37.057 50.2804C35.8972 49.5467 34.8116 48.6801 34.3179 47.5333C34.2356 48.2282 34.7216 49.545 38.2156 51.7977ZM71.2719 36.9774C70.2452 36.3178 69.2184 35.6583 68.0358 35.4348C66.0253 35.0548 63.983 36.1386 61.8667 37.3555C61.2524 37.7539 60.6899 38.1375 60.0757 38.5359C60.7041 38.5812 61.399 38.6635 62.0568 38.8123C62.5298 38.9017 63.0029 38.9912 63.4242 39.0953C65.5618 38.5439 67.8977 38.8874 69.9894 39.3562C70.5289 39.4827 71.0685 39.6092 71.608 39.7357C73.2932 40.1522 74.7935 40.5093 76.5387 40.3491L71.2719 36.9774ZM68.3649 27.7311C67.0929 27.9806 65.8355 28.2819 64.6446 28.6203C61.9522 29.3853 59.8365 30.2103 58.0902 31.1541C54.7159 33.0642 51.8947 35.9362 50.1227 39.3494C52.4555 36.7281 56.2369 34.4786 59.4335 32.7309C60.3067 32.259 61.1798 31.7871 62.0012 31.3299C64.1987 30.2019 66.278 29.0515 68.3649 27.7311ZM62.1706 31.7294C61.2975 32.2013 60.4761 32.6585 59.603 33.1304C56.4064 34.8781 52.5879 37.1941 50.2551 39.8154C52.3856 39.0422 54.6561 38.5649 56.9261 38.4795C58.3688 37.8458 59.7526 37.0049 61.0035 36.0899C63.8382 34.0534 66.1857 31.4839 67.9425 28.4107C66.0997 29.6058 64.1611 30.6602 62.1706 31.7294ZM69.8065 43.0454C70.4349 43.0907 71.1227 42.9512 71.707 42.8411C73.6151 42.4669 75.3755 41.9667 76.5381 40.741C74.6894 40.9305 73.1225 40.5364 71.4374 40.1199C70.8979 39.9934 70.4101 39.8522 69.8188 39.7405C68.0301 39.3534 65.9825 39.0399 64.1114 39.3477C64.9022 39.5706 65.6042 39.8748 66.2691 40.2454C67.6506 40.972 68.7804 41.994 69.8065 43.0454ZM76.6558 41.1552C75.4267 42.3438 73.6516 42.7922 71.81 43.2036C71.3293 43.2842 70.7597 43.446 70.1978 43.4378C70.7515 44.0079 71.2534 44.5928 71.6889 45.1405L72.5156 46.0807C74.476 45.2999 75.7657 43.1428 76.6558 41.1552ZM52.2576 45.6815C52.7671 46.0963 53.2767 46.5111 53.7492 46.9924C55.2261 48.2514 56.57 49.4364 58.2175 50.3112C62.0962 52.3427 67.3457 52.306 72.6723 50.177C73.2789 49.9487 73.4789 49.6681 73.4642 49.6163C73.4348 49.5127 73.2577 49.2833 73.1618 49.1426L70.571 46.1297C69.2423 44.6046 67.9137 43.0796 66.2591 41.9829C66.045 41.82 65.8455 41.7088 65.5943 41.6123C64.5451 41.071 63.3036 40.6404 61.7662 40.3498C56.8655 39.448 51.696 40.3573 47.3598 42.8204C49.0743 43.3405 50.5959 44.363 52.2576 45.6815ZM49.2012 37.4849C48.4305 38.7111 48.0075 39.7826 47.7916 40.7952C48.2799 40.5445 48.783 40.3456 49.286 40.1467C51.081 36.2233 54.1246 32.9524 57.8984 30.8729C59.6817 29.8626 61.7975 29.0376 64.5417 28.2578C65.8879 27.8753 67.2488 27.5446 68.6244 27.2656C60.9431 26.8182 53.1442 30.8807 49.2012 37.4849ZM76.1905 30.6556C75.0379 30.1437 73.7005 29.5725 72.3254 29.4596C71.1204 29.3543 69.1452 30.0834 68.2197 30.9619C67.4567 32.0181 66.6418 33.0889 65.7828 34.0045C66.6259 33.8209 67.5132 33.7926 68.3929 33.9344C69.812 34.2026 71.1047 35.0104 72.1462 35.7217L73.04 36.3071C73.5448 34.9326 74.5297 33.8694 75.5293 32.8579C75.9735 32.4519 76.3512 32.0088 76.7289 31.5658C76.8548 31.4181 76.929 31.2851 76.929 31.2851C76.8996 31.1816 76.7742 30.9374 76.1905 30.6556ZM75.6107 37.8709C76.7498 37.5473 77.7859 36.8612 78.5561 36.0268L76.0001 34.5148C75.2299 35.3491 74.5633 36.1541 74.3474 37.1667L75.5219 37.9521C75.5589 37.8856 75.5589 37.8856 75.6107 37.8709Z" fill="#6D6D6D"/>
</g>
<defs>
<clipPath id="clip0_54_4">
<rect width="50.6507" height="72.8272" fill="white" transform="matrix(-0.273318 -0.961924 -0.961924 0.273318 83.8979 48.7221)"/>
</clipPath>
</defs>
</svg>
