<svg width="899" height="197" viewBox="0 0 899 197" fill="none" xmlns="http://www.w3.org/2000/svg">
<path fill-rule="evenodd" clip-rule="evenodd" d="M847.997 60.1825C851.186 75.27 850.831 92.8174 845.009 108.994C839.257 124.977 838.594 143.416 839.38 157.888C839.772 165.118 840.525 171.347 841.18 175.767C841.507 177.977 841.81 179.734 842.03 180.938C842.141 181.54 842.231 182.004 842.293 182.316C842.324 182.473 842.348 182.591 842.364 182.67L842.383 182.759L842.387 182.781L842.389 182.787C842.389 182.787 842.389 182.788 841.893 182.894C841.396 183.001 841.396 183 841.396 183L841.394 182.992L841.389 182.968L841.37 182.876C841.353 182.795 841.329 182.674 841.297 182.515C841.234 182.198 841.143 181.729 841.032 181.122C840.81 179.908 840.505 178.139 840.176 175.917C839.517 171.472 838.76 165.211 838.366 157.943C837.578 143.417 838.235 124.819 844.054 108.649C849.804 92.6738 850.159 75.3215 847.004 60.3934C843.845 45.4486 837.188 33.0173 829 26.8116L829.612 26C838.071 32.411 844.812 45.1116 847.997 60.1825Z" fill="#77554A"/>
<path d="M832 22.0309C832 22.0309 832.418 3.91532 844.54 7.45968C856.661 11.004 833.045 24 833.045 24L832 22.0309Z" fill="#F09CAB"/>
<path fill-rule="evenodd" clip-rule="evenodd" d="M832.049 22.1078L832.78 23.5527C832.92 23.4691 833.088 23.3679 833.28 23.2506C833.896 22.8746 834.764 22.3329 835.767 21.6713C837.777 20.3462 840.321 18.5481 842.483 16.642C843.564 15.6889 844.541 14.7167 845.306 13.7702C846.076 12.8185 846.608 11.9216 846.835 11.1193C847.058 10.3333 846.983 9.66635 846.579 9.09504C846.16 8.50187 845.331 7.93242 843.874 7.48593C840.991 6.60252 838.873 7.07955 837.282 8.22668C835.662 9.39522 834.523 11.3062 833.731 13.399C832.943 15.4837 832.519 17.6922 832.294 19.3881C832.182 20.2342 832.119 20.9483 832.085 21.4498C832.068 21.7005 832.058 21.8978 832.052 22.0317C832.051 22.0599 832.05 22.0853 832.049 22.1078ZM832.566 24.2789C832.829 24.7231 832.829 24.723 832.829 24.7229L832.833 24.7203L832.847 24.7126L832.898 24.6826C832.943 24.6563 833.01 24.6174 833.095 24.5667C833.267 24.4652 833.516 24.3163 833.828 24.1257C834.453 23.7446 835.331 23.1964 836.346 22.5269C838.374 21.1899 840.963 19.3614 843.177 17.4094C844.284 16.4334 845.307 15.4188 846.121 14.4121C846.931 13.4106 847.558 12.3881 847.839 11.3963C848.124 10.3883 848.056 9.38667 847.434 8.50637C846.827 7.64793 845.747 6.98279 844.183 6.50333C841.022 5.53485 838.555 6.03521 836.668 7.39584C834.81 8.73507 833.578 10.8622 832.755 13.0391C831.928 15.224 831.492 17.5167 831.261 19.2544C831.145 20.1252 831.081 20.8611 831.045 21.3803C831.028 21.6401 831.017 21.8458 831.011 21.9875C831.008 22.0583 831.006 22.1131 831.005 22.1506L831.003 22.1938L831.003 22.2054L831.003 22.2086C831.003 22.2089 831.003 22.2101 831.524 22.2213L831.003 22.2086L831 22.3374L832.348 25L832.829 24.7229L832.566 24.2789Z" fill="#CD879C"/>
<path d="M828.512 27.7998C828.512 27.7998 822.887 48.418 833.334 45.7642C843.781 43.3145 833.736 26.9832 831.526 26.1666C829.115 25.3501 828.512 27.7998 828.512 27.7998Z" fill="#F09CAB"/>
<path fill-rule="evenodd" clip-rule="evenodd" d="M830.401 26.0923C830.908 25.9521 831.502 25.9634 832.185 26.1835L832.198 26.1876C832.419 26.2653 832.641 26.4149 832.849 26.5849C833.065 26.7611 833.298 26.9864 833.541 27.2492C834.027 27.7753 834.575 28.4753 835.129 29.2909C836.237 30.9213 837.394 33.0468 838.151 35.2301C838.903 37.4012 839.283 39.695 838.753 41.6271C838.486 42.6025 837.986 43.4875 837.187 44.2068C836.392 44.924 835.323 45.4553 833.951 45.7622C832.581 46.0929 831.422 46.0732 830.458 45.7374C829.488 45.3992 828.767 44.758 828.247 43.9385C827.226 42.329 826.955 39.9927 827.006 37.6806C827.057 35.347 827.439 32.9433 827.806 31.1305C827.989 30.2223 828.17 29.4587 828.305 28.9214C828.372 28.6528 828.428 28.4405 828.468 28.2949C828.487 28.2222 828.503 28.166 828.513 28.1278L828.526 28.0841L828.529 28.0726L828.531 28.0658L828.539 28.0382C828.545 28.0157 828.555 27.985 828.568 27.9475C828.593 27.8726 828.632 27.7696 828.686 27.6499C828.794 27.4131 828.971 27.0974 829.243 26.8049C829.518 26.51 829.896 26.2318 830.401 26.0923ZM829.498 28.3277L829.497 28.3304L829.494 28.3402L829.483 28.3805C829.473 28.4164 829.458 28.4701 829.439 28.5404C829.401 28.6809 829.347 28.8877 829.281 29.1505C829.149 29.6762 828.972 30.4254 828.791 31.3169C828.43 33.1033 828.059 35.4461 828.01 37.7011C827.96 39.9777 828.241 42.0722 829.103 43.4307C829.525 44.0953 830.078 44.5724 830.799 44.8237C831.526 45.0771 832.474 45.1184 833.712 44.819L833.721 44.8168C834.958 44.5408 835.858 44.0772 836.503 43.4963C837.146 42.9167 837.557 42.1993 837.783 41.3781C838.238 39.717 837.927 37.6406 837.199 35.5387C836.474 33.449 835.36 31.3986 834.29 29.8242C833.755 29.0374 833.237 28.3779 832.792 27.8964C832.57 27.6554 832.371 27.465 832.202 27.327C832.03 27.187 831.917 27.1235 831.86 27.1022C831.342 26.9366 830.959 26.9481 830.677 27.0261C830.391 27.105 830.167 27.2638 829.99 27.4545C829.81 27.6476 829.685 27.8661 829.605 28.0419C829.566 28.1286 829.538 28.2016 829.521 28.2512C829.513 28.2759 829.507 28.2945 829.504 28.3057L829.501 28.3162L829.498 28.3277Z" fill="#CD879C"/>
<path d="M827.56 24.1972C827.56 24.1972 818.189 21.9657 816.228 32.5146C814.267 43.0634 825.598 35.1518 825.598 35.1518C825.598 35.1518 831.7 26.4287 827.56 24.1972Z" fill="#F09CAB"/>
<path fill-rule="evenodd" clip-rule="evenodd" d="M827.292 23.2269C827.293 23.227 827.293 23.227 827.168 23.7506L827.293 23.227L827.36 23.2455L827.42 23.2829C828.582 24.0062 828.989 25.2528 829 26.5734C829.01 27.8791 828.639 29.3383 828.166 30.6721C827.689 32.0149 827.093 33.2755 826.618 34.1969C826.381 34.6586 826.172 35.0374 826.023 35.3015C825.948 35.4336 825.888 35.5372 825.846 35.6081L825.798 35.6897L825.785 35.7113L825.781 35.7171L825.78 35.7188L825.78 35.7193C825.78 35.7195 825.78 35.7196 825.359 35.4247C825.66 35.8571 825.66 35.8572 825.66 35.8573L825.659 35.8578L825.657 35.8593L825.651 35.8646L825.627 35.8838C825.606 35.9004 825.575 35.9245 825.536 35.9551C825.457 36.0162 825.342 36.1037 825.198 36.2105C824.909 36.4239 824.499 36.7155 824.012 37.0297C823.047 37.6532 821.75 38.3856 820.49 38.7564C819.262 39.1179 817.873 39.1891 816.943 38.1757C816.031 37.1829 815.762 35.356 816.218 32.5221C816.682 29.6365 817.593 27.5832 818.726 26.1383C819.86 24.6919 821.196 23.8833 822.468 23.4515C823.735 23.0212 824.936 22.9654 825.815 23.015C826.256 23.0399 826.62 23.0914 826.876 23.1373C827.004 23.1603 827.105 23.1819 827.176 23.1982C827.211 23.2063 827.239 23.2131 827.259 23.2181L827.282 23.2241L827.289 23.226L827.291 23.2266L827.292 23.2269ZM825.359 35.4247L825.66 35.8571L825.731 35.7997L825.78 35.7196L825.359 35.4247ZM824.985 35.0489L824.996 35.0313C825.035 34.9649 825.092 34.8664 825.164 34.7397C825.307 34.4861 825.509 34.1201 825.739 33.6732C826.2 32.7773 826.773 31.5653 827.226 30.2868C827.683 28.9994 828.003 27.6887 827.995 26.5825C827.986 25.5216 827.682 24.7292 826.978 24.258C826.974 24.2571 826.97 24.2562 826.966 24.2552C826.909 24.2421 826.822 24.2236 826.71 24.2035C826.486 24.1633 826.161 24.1169 825.763 24.0945C824.965 24.0495 823.891 24.1018 822.771 24.4822C821.655 24.8611 820.49 25.5658 819.494 26.8352C818.497 28.1061 817.649 29.9712 817.208 32.7064C816.76 35.4934 817.118 36.8281 817.658 37.4163C818.179 37.9837 819.065 38.0549 820.225 37.7138C821.352 37.382 822.556 36.7092 823.494 36.1031C823.96 35.8025 824.353 35.5233 824.628 35.3196C824.766 35.2178 824.874 35.135 824.948 35.0782C824.962 35.0675 824.974 35.0577 824.985 35.0489Z" fill="#CD879C"/>
<path d="M829 21.1166C829 21.1166 825.497 14.121 819.315 15.0926C813.133 16.0642 810.043 17.4245 813.339 21.1166C816.636 24.8087 826.527 22.8655 827.558 23.8371C828.588 24.8087 829 21.1166 829 21.1166Z" fill="#F09CAB"/>
<path fill-rule="evenodd" clip-rule="evenodd" d="M828.938 21.0541C828.938 21.0544 828.939 21.0546 828.474 21.2834L828.985 21.3397L828.985 21.3436L828.983 21.3536L828.98 21.3901C828.976 21.4215 828.971 21.4667 828.964 21.5235C828.95 21.637 828.93 21.7971 828.901 21.9856C828.845 22.36 828.758 22.8575 828.636 23.3268C828.519 23.7712 828.349 24.281 828.09 24.6089C827.955 24.7785 827.739 24.9728 827.431 24.9974C827.118 25.0225 826.863 24.8608 826.678 24.6697C826.673 24.6671 826.647 24.6502 826.583 24.6281C826.494 24.598 826.368 24.5696 826.197 24.5459C825.856 24.4986 825.399 24.4785 824.842 24.4719C824.458 24.4673 824.026 24.4692 823.562 24.4713C822.709 24.4752 821.748 24.4795 820.773 24.4448C819.255 24.3907 817.637 24.2414 816.178 23.8377C814.723 23.435 813.375 22.7649 812.457 21.6286C811.611 20.5805 811.11 19.6233 811.016 18.7363C810.917 17.8009 811.279 17.0332 811.949 16.43C812.595 15.8483 813.537 15.4064 814.665 15.044C815.802 14.6787 817.177 14.3793 818.727 14.1098C822.054 13.5318 824.63 15.3357 826.327 17.1888C827.18 18.1199 827.83 19.0824 828.267 19.8102C828.486 20.1748 828.652 20.4824 828.764 20.7003C828.821 20.8094 828.863 20.8961 828.892 20.9564L828.926 21.0267L828.935 21.0461L828.937 21.0518L828.938 21.0541ZM828.474 21.2834L828.985 21.3397L829 21.1902L828.938 21.0541L828.474 21.2834ZM827.945 21.3793C827.945 21.3825 827.945 21.3858 827.944 21.3891C827.932 21.4941 827.912 21.6439 827.886 21.8204C827.833 22.1761 827.752 22.6299 827.644 23.0448C827.546 23.419 827.441 23.6975 827.346 23.8549C827.209 23.7332 827.047 23.6589 826.902 23.6094C826.731 23.5512 826.537 23.5118 826.333 23.4835C825.925 23.4271 825.417 23.4069 824.853 23.4002C824.438 23.3952 823.991 23.3973 823.52 23.3996C822.683 23.4035 821.768 23.4079 820.808 23.3737C819.319 23.3206 817.79 23.1751 816.442 22.8018C815.089 22.4274 813.97 21.8382 813.243 20.9382C812.445 19.9499 812.098 19.1923 812.038 18.619C811.982 18.0941 812.16 17.6561 812.621 17.2411C813.106 16.8046 813.886 16.4158 814.967 16.0682C816.04 15.7235 817.364 15.4334 818.896 15.167C821.737 14.6733 823.992 16.1918 825.584 17.9291C826.376 18.7932 826.984 19.693 827.396 20.3786C827.601 20.7207 827.756 21.0076 827.859 21.2075C827.894 21.2752 827.923 21.3329 827.945 21.3793ZM827.27 23.956C827.27 23.9559 827.271 23.9552 827.272 23.954L827.27 23.956Z" fill="#CD879C"/>
<path d="M835.706 22.1618C835.706 22.1618 850.324 18.7297 852.383 23.6634C854.442 28.5972 850.942 31.3858 847.853 30.9568C844.765 30.5278 834.059 32.0293 832 26.023L835.706 22.1618Z" fill="#F09CAB"/>
<path fill-rule="evenodd" clip-rule="evenodd" d="M835.279 22.5336L835.167 22.0612L835.022 22.092L831 25.8951L831.109 26.1837C832.244 29.1896 835.726 30.2306 839.032 30.6183C840.715 30.8157 842.423 30.852 843.889 30.8642C844.146 30.8663 844.394 30.8677 844.632 30.8691C845.777 30.8757 846.697 30.8809 847.299 30.9568C848.993 31.1704 850.813 30.5877 851.935 29.3088C853.08 28.0041 853.43 26.0589 852.344 23.6967C851.729 22.3595 850.219 21.6693 848.525 21.3246C846.806 20.975 844.742 20.9473 842.778 21.0573C840.807 21.1676 838.906 21.4186 837.499 21.6413C836.795 21.7527 836.214 21.8573 835.808 21.9342C835.604 21.9727 835.445 22.0043 835.336 22.0263L835.211 22.0518L835.178 22.0586L835.17 22.0605L835.167 22.0612C835.166 22.0612 835.167 22.0612 835.279 22.5336ZM835.55 22.9736L835.535 22.9766L832.191 26.1385C833.215 28.3543 835.988 29.2852 839.158 29.657C840.779 29.8471 842.438 29.8834 843.898 29.8955C844.141 29.8975 844.379 29.8988 844.612 29.9001C845.756 29.9063 846.762 29.9118 847.435 29.9966C848.814 30.1705 850.272 29.6877 851.147 28.6902C852 27.7185 852.367 26.1766 851.404 24.0829C850.995 23.1921 849.918 22.5989 848.309 22.2716C846.724 21.9491 844.767 21.9163 842.839 22.0243C840.917 22.1319 839.054 22.3773 837.669 22.5966C836.977 22.7061 836.406 22.8089 836.009 22.8841C835.81 22.9217 835.655 22.9524 835.55 22.9736Z" fill="#CD879C"/>
<path d="M828.698 20.0972C828.698 20.0972 823.847 5.8759 827.155 2.17446C830.462 -1.52699 834.211 4.51221 833.991 6.65515C833.77 8.79809 833.329 17.9543 832.227 20.8765C830.903 23.7987 828.698 20.0972 828.698 20.0972Z" fill="#F09CAB"/>
<path fill-rule="evenodd" clip-rule="evenodd" d="M829.639 1.02882C829.136 0.9706 828.535 1.18098 827.88 2.05504C827.262 2.87804 826.978 4.37834 826.969 6.30723C826.96 8.20391 827.216 10.3939 827.565 12.4833C827.913 14.5693 828.352 16.5376 828.704 17.9856C828.881 18.7092 829.035 19.3019 829.145 19.7131C829.2 19.9187 829.244 20.0789 829.274 20.1874L829.306 20.3018C829.319 20.3261 829.337 20.3603 829.36 20.4026C829.412 20.4954 829.487 20.6257 829.58 20.7732C829.771 21.074 830.022 21.4208 830.291 21.6713C830.579 21.9392 830.779 21.9979 830.894 21.9755C830.988 21.9574 831.232 21.8398 831.502 21.1385C831.727 20.4219 831.926 19.2964 832.101 17.9448C832.275 16.5936 832.419 15.0486 832.54 13.5233C832.661 11.9987 832.757 10.4986 832.836 9.23749C832.849 9.03429 832.861 8.83701 832.873 8.64664C832.934 7.66054 832.984 6.85985 833.025 6.38282C833.063 5.94132 832.926 5.21525 832.61 4.39691C832.3 3.59252 831.842 2.76571 831.304 2.12882C830.758 1.48235 830.181 1.09169 829.639 1.02882ZM828.856 20.4984C828.392 20.6455 828.392 20.6453 828.392 20.6452L828.391 20.6422L828.389 20.6336L828.379 20.6006L828.344 20.4731C828.313 20.3617 828.268 20.1983 828.212 19.9893C828.1 19.5714 827.944 18.9709 827.766 18.2385C827.409 16.7745 826.964 14.7794 826.61 12.6598C826.257 10.5437 825.991 8.28608 826 6.30221C826.009 4.35054 826.283 2.5374 827.119 1.4233C827.917 0.360282 828.818 -0.0920298 829.745 0.0154261C830.632 0.118227 831.412 0.721602 832.028 1.45148C832.653 2.19094 833.164 3.1228 833.508 4.01338C833.846 4.88998 834.049 5.79516 833.99 6.47512C833.95 6.9379 833.901 7.72141 833.84 8.70886C833.828 8.89998 833.816 9.09873 833.803 9.30429C833.724 10.5665 833.627 12.074 833.506 13.608C833.384 15.1412 833.238 16.7057 833.061 18.0817C832.885 19.4483 832.674 20.6617 832.417 21.4752L832.412 21.4894L832.407 21.5033C832.097 22.319 831.666 22.8627 831.07 22.9782C830.494 23.0897 829.991 22.7533 829.649 22.4349C829.289 22.0992 828.983 21.6686 828.774 21.3387C828.667 21.1707 828.582 21.0222 828.523 20.9152C828.493 20.8615 828.47 20.818 828.454 20.7873L828.435 20.751L828.43 20.7406L828.428 20.7375C828.428 20.7374 828.427 20.7358 828.856 20.4984ZM828.856 20.4984L828.428 20.7375L828.405 20.6924L828.392 20.6452L828.856 20.4984Z" fill="#CD879C"/>
<path d="M831 27C832.105 27 833 26.1046 833 25C833 23.8954 832.105 23 831 23C829.895 23 829 23.8954 829 25C829 26.1046 829.895 27 831 27Z" fill="#F29EAE"/>
<path fill-rule="evenodd" clip-rule="evenodd" d="M831 24C830.448 24 830 24.4477 830 25C830 25.5523 830.448 26 831 26C831.552 26 832 25.5523 832 25C832 24.4477 831.552 24 831 24ZM828 25C828 23.3431 829.343 22 831 22C832.657 22 834 23.3431 834 25C834 26.6569 832.657 28 831 28C829.343 28 828 26.6569 828 25Z" fill="#AA7083"/>
<path d="M849 95.1809C849 95.1809 837.916 74.0305 827.654 78.6634C817.186 83.4978 830.733 99.8138 849 95.1809Z" fill="#F29EAE"/>
<path fill-rule="evenodd" clip-rule="evenodd" d="M849.424 94.7141C849.424 94.7144 849.424 94.7147 848.529 95.175L849.424 94.7141L850 95.8344L848.781 96.1494C839.48 98.5525 831.32 95.5361 826.793 91.1965C824.543 89.0388 823.1 86.4622 823.005 83.9763C822.906 81.3904 824.274 79.118 827.162 77.7592L827.17 77.7555C830.067 76.4232 832.979 76.9852 835.592 78.4126C838.184 79.8292 840.581 82.1441 842.604 84.5368C844.635 86.9406 846.338 89.4828 847.53 91.4171C848.127 92.386 848.598 93.2064 848.921 93.7862C849.083 94.0761 849.208 94.3061 849.292 94.4647C849.335 94.544 849.367 94.6054 849.389 94.6475L849.414 94.6961L849.421 94.7092L849.424 94.7141ZM847.01 94.4938C846.709 93.9616 846.307 93.2696 845.816 92.473C844.655 90.5892 843.011 88.1372 841.066 85.8359C839.112 83.5237 836.903 81.423 834.626 80.1789C832.37 78.9463 830.15 78.6022 828.015 79.5824C825.772 80.639 824.952 82.2153 825.017 83.8993C825.085 85.6844 826.159 87.8001 828.187 89.7436C832.017 93.4156 838.933 96.1461 847.01 94.4938Z" fill="#AA7083"/>
<path d="M845 109.84C845 109.84 849.666 103.492 851.611 107.12C853.555 110.52 847.722 112.334 845 109.84Z" fill="#F29EAE"/>
<path fill-rule="evenodd" clip-rule="evenodd" d="M846.178 109.517C847.235 109.905 848.533 109.912 849.577 109.568C850.287 109.334 850.688 109.001 850.841 108.735C850.933 108.574 851.021 108.309 850.684 107.776L850.675 107.763L850.667 107.749C850.496 107.461 850.332 107.331 850.203 107.266C850.071 107.201 849.904 107.167 849.675 107.192C849.179 107.246 848.537 107.557 847.83 108.069C847.215 108.516 846.635 109.053 846.178 109.517ZM844.492 109.791L843.705 109.081L843 109.946L843.851 110.65C845.643 112.131 848.306 112.274 850.196 111.653C851.146 111.34 852.094 110.773 852.616 109.865C853.196 108.856 853.11 107.679 852.418 106.578C852.072 105.999 851.629 105.561 851.093 105.293C850.555 105.025 849.993 104.962 849.463 105.019C848.443 105.13 847.45 105.692 846.652 106.272C845.832 106.867 845.096 107.571 844.574 108.113C844.311 108.387 844.096 108.625 843.947 108.796C843.872 108.882 843.813 108.951 843.772 108.999L843.724 109.057L843.711 109.073L843.707 109.078L843.705 109.081C843.704 109.081 843.705 109.081 844.492 109.791ZM845.28 110.502C845.279 110.503 845.279 110.503 845.28 110.502V110.502Z" fill="#AA7083"/>
<path fill-rule="evenodd" clip-rule="evenodd" d="M475.997 68.1825C479.186 83.27 478.831 100.817 473.009 116.994C467.257 132.977 466.594 151.416 467.38 165.888C467.772 173.118 468.525 179.347 469.18 183.767C469.507 185.977 469.81 187.734 470.03 188.938C470.141 189.54 470.231 190.004 470.293 190.316C470.324 190.473 470.348 190.591 470.364 190.67L470.383 190.759L470.387 190.781L470.389 190.787C470.389 190.787 470.389 190.788 469.893 190.894C469.396 191.001 469.396 191 469.396 191L469.394 190.992L469.389 190.968L469.37 190.876C469.353 190.795 469.329 190.674 469.297 190.515C469.234 190.198 469.143 189.729 469.032 189.122C468.81 187.908 468.505 186.139 468.176 183.917C467.517 179.472 466.76 173.211 466.366 165.943C465.578 151.417 466.235 132.819 472.054 116.649C477.804 100.674 478.159 83.3215 475.004 68.3934C471.845 53.4486 465.188 41.0173 457 34.8116L457.612 34C466.071 40.411 472.812 53.1116 475.997 68.1825Z" fill="#77554A"/>
<path d="M460 30.0309C460 30.0309 460.418 11.9153 472.54 15.4597C484.661 19.004 461.045 32 461.045 32L460 30.0309Z" fill="#F09CAB"/>
<path fill-rule="evenodd" clip-rule="evenodd" d="M460.049 30.1078L460.78 31.5527C460.92 31.4691 461.088 31.3679 461.28 31.2506C461.896 30.8746 462.764 30.3329 463.767 29.6713C465.777 28.3462 468.321 26.5481 470.483 24.642C471.564 23.6889 472.541 22.7167 473.306 21.7702C474.076 20.8185 474.608 19.9216 474.835 19.1193C475.058 18.3333 474.983 17.6663 474.579 17.095C474.16 16.5019 473.331 15.9324 471.874 15.4859C468.991 14.6025 466.873 15.0795 465.282 16.2267C463.662 17.3952 462.523 19.3062 461.731 21.399C460.943 23.4837 460.519 25.6922 460.294 27.3881C460.182 28.2342 460.119 28.9483 460.085 29.4498C460.068 29.7005 460.058 29.8978 460.052 30.0317C460.051 30.0599 460.05 30.0853 460.049 30.1078ZM460.566 32.2789C460.829 32.7231 460.829 32.723 460.829 32.7229L460.833 32.7203L460.847 32.7126L460.898 32.6826C460.943 32.6563 461.01 32.6174 461.095 32.5667C461.267 32.4652 461.516 32.3163 461.828 32.1257C462.453 31.7446 463.331 31.1964 464.346 30.5269C466.374 29.1899 468.963 27.3614 471.177 25.4094C472.284 24.4334 473.307 23.4188 474.121 22.4121C474.931 21.4106 475.558 20.3881 475.839 19.3963C476.124 18.3883 476.056 17.3867 475.434 16.5064C474.827 15.6479 473.747 14.9828 472.183 14.5033C469.022 13.5348 466.555 14.0352 464.668 15.3958C462.81 16.7351 461.578 18.8622 460.755 21.0391C459.928 23.224 459.492 25.5167 459.261 27.2544C459.145 28.1252 459.081 28.8611 459.045 29.3803C459.028 29.6401 459.017 29.8458 459.011 29.9875C459.008 30.0583 459.006 30.1131 459.005 30.1506L459.003 30.1938L459.003 30.2054L459.003 30.2086C459.003 30.2089 459.003 30.2101 459.524 30.2213L459.003 30.2086L459 30.3374L460.348 33L460.829 32.7229L460.566 32.2789Z" fill="#CD879C"/>
<path d="M456.512 35.7998C456.512 35.7998 450.887 56.418 461.334 53.7642C471.781 51.3145 461.736 34.9832 459.526 34.1666C457.115 33.3501 456.512 35.7998 456.512 35.7998Z" fill="#F09CAB"/>
<path fill-rule="evenodd" clip-rule="evenodd" d="M458.401 34.0923C458.908 33.9521 459.502 33.9634 460.185 34.1835L460.198 34.1876C460.419 34.2653 460.641 34.4149 460.849 34.5849C461.065 34.7611 461.298 34.9864 461.541 35.2492C462.027 35.7753 462.575 36.4753 463.129 37.2909C464.237 38.9213 465.394 41.0468 466.151 43.2301C466.903 45.4012 467.283 47.695 466.753 49.6271C466.486 50.6025 465.986 51.4875 465.187 52.2068C464.392 52.924 463.323 53.4553 461.951 53.7622C460.581 54.0929 459.422 54.0732 458.458 53.7374C457.488 53.3992 456.767 52.758 456.247 51.9385C455.226 50.329 454.955 47.9927 455.006 45.6806C455.057 43.347 455.439 40.9433 455.806 39.1305C455.989 38.2223 456.17 37.4587 456.305 36.9214C456.372 36.6528 456.428 36.4405 456.468 36.2949C456.487 36.2222 456.503 36.166 456.513 36.1278L456.526 36.0841L456.529 36.0726L456.531 36.0658L456.539 36.0382C456.545 36.0157 456.555 35.985 456.568 35.9475C456.593 35.8726 456.632 35.7696 456.686 35.6499C456.794 35.4131 456.971 35.0974 457.243 34.8049C457.518 34.51 457.896 34.2318 458.401 34.0923ZM457.498 36.3277L457.497 36.3304L457.494 36.3402L457.483 36.3805C457.473 36.4164 457.458 36.4701 457.439 36.5404C457.401 36.6809 457.347 36.8877 457.281 37.1505C457.149 37.6762 456.972 38.4254 456.791 39.3169C456.43 41.1033 456.059 43.4461 456.01 45.7011C455.96 47.9777 456.241 50.0722 457.103 51.4307C457.525 52.0953 458.078 52.5724 458.799 52.8237C459.526 53.0771 460.474 53.1184 461.712 52.819L461.721 52.8168C462.958 52.5408 463.858 52.0772 464.503 51.4963C465.146 50.9167 465.557 50.1993 465.783 49.3781C466.238 47.717 465.927 45.6406 465.199 43.5387C464.474 41.449 463.36 39.3986 462.29 37.8242C461.755 37.0374 461.237 36.3779 460.792 35.8964C460.57 35.6554 460.371 35.465 460.202 35.327C460.03 35.187 459.917 35.1235 459.86 35.1022C459.342 34.9366 458.959 34.9481 458.677 35.0261C458.391 35.105 458.167 35.2638 457.99 35.4545C457.81 35.6476 457.685 35.8661 457.605 36.0419C457.566 36.1286 457.538 36.2016 457.521 36.2512C457.513 36.2759 457.507 36.2945 457.504 36.3057L457.501 36.3162L457.498 36.3277Z" fill="#CD879C"/>
<path d="M455.56 32.1972C455.56 32.1972 446.189 29.9657 444.228 40.5146C442.267 51.0634 453.598 43.1518 453.598 43.1518C453.598 43.1518 459.7 34.4287 455.56 32.1972Z" fill="#F09CAB"/>
<path fill-rule="evenodd" clip-rule="evenodd" d="M455.292 31.2269C455.293 31.227 455.293 31.227 455.168 31.7506L455.293 31.227L455.36 31.2455L455.42 31.2829C456.582 32.0062 456.989 33.2528 457 34.5734C457.01 35.8791 456.639 37.3383 456.166 38.6721C455.689 40.0149 455.093 41.2755 454.618 42.1969C454.381 42.6586 454.172 43.0374 454.023 43.3015C453.948 43.4336 453.888 43.5372 453.846 43.6081L453.798 43.6897L453.785 43.7113L453.781 43.7171L453.78 43.7188L453.78 43.7193C453.78 43.7195 453.78 43.7196 453.359 43.4247C453.66 43.8571 453.66 43.8572 453.66 43.8573L453.659 43.8578L453.657 43.8593L453.651 43.8646L453.627 43.8838C453.606 43.9004 453.575 43.9245 453.536 43.9551C453.457 44.0162 453.342 44.1037 453.198 44.2105C452.909 44.4239 452.499 44.7155 452.012 45.0297C451.047 45.6532 449.75 46.3856 448.49 46.7564C447.262 47.1179 445.873 47.1891 444.943 46.1757C444.031 45.1829 443.762 43.356 444.218 40.5221C444.682 37.6365 445.593 35.5832 446.726 34.1383C447.86 32.6919 449.196 31.8833 450.468 31.4515C451.735 31.0212 452.936 30.9654 453.815 31.015C454.256 31.0399 454.62 31.0914 454.876 31.1373C455.004 31.1603 455.105 31.1819 455.176 31.1982C455.211 31.2063 455.239 31.2131 455.259 31.2181L455.282 31.2241L455.289 31.226L455.291 31.2266L455.292 31.2269ZM453.359 43.4247L453.66 43.8571L453.731 43.7997L453.78 43.7196L453.359 43.4247ZM452.985 43.0489L452.996 43.0313C453.035 42.9649 453.092 42.8664 453.164 42.7397C453.307 42.4861 453.509 42.1201 453.739 41.6732C454.2 40.7773 454.773 39.5653 455.226 38.2868C455.683 36.9994 456.003 35.6887 455.995 34.5825C455.986 33.5216 455.682 32.7292 454.978 32.258C454.974 32.2571 454.97 32.2562 454.966 32.2552C454.909 32.2421 454.822 32.2236 454.71 32.2035C454.486 32.1633 454.161 32.1169 453.763 32.0945C452.965 32.0495 451.891 32.1018 450.771 32.4822C449.655 32.8611 448.49 33.5658 447.494 34.8352C446.497 36.1061 445.649 37.9712 445.208 40.7064C444.76 43.4934 445.118 44.8281 445.658 45.4163C446.179 45.9837 447.065 46.0549 448.225 45.7138C449.352 45.382 450.556 44.7092 451.494 44.1031C451.96 43.8025 452.353 43.5233 452.628 43.3196C452.766 43.2178 452.874 43.135 452.948 43.0782C452.962 43.0675 452.974 43.0577 452.985 43.0489Z" fill="#CD879C"/>
<path d="M457 29.1166C457 29.1166 453.497 22.121 447.315 23.0926C441.133 24.0642 438.043 25.4245 441.339 29.1166C444.636 32.8087 454.527 30.8655 455.558 31.8371C456.588 32.8087 457 29.1166 457 29.1166Z" fill="#F09CAB"/>
<path fill-rule="evenodd" clip-rule="evenodd" d="M456.938 29.0541C456.938 29.0544 456.939 29.0546 456.474 29.2834L456.985 29.3397L456.985 29.3436L456.983 29.3536L456.98 29.3901C456.976 29.4215 456.971 29.4667 456.964 29.5235C456.95 29.637 456.93 29.7971 456.901 29.9856C456.845 30.36 456.758 30.8575 456.636 31.3268C456.519 31.7712 456.349 32.281 456.09 32.6089C455.955 32.7785 455.739 32.9728 455.431 32.9974C455.118 33.0225 454.863 32.8608 454.678 32.6697C454.673 32.6671 454.647 32.6502 454.583 32.6281C454.494 32.598 454.368 32.5696 454.197 32.5459C453.856 32.4986 453.399 32.4785 452.842 32.4719C452.458 32.4673 452.026 32.4692 451.562 32.4713C450.709 32.4752 449.748 32.4795 448.773 32.4448C447.255 32.3907 445.637 32.2414 444.178 31.8377C442.723 31.435 441.375 30.7649 440.457 29.6286C439.611 28.5805 439.11 27.6233 439.016 26.7363C438.917 25.8009 439.279 25.0332 439.949 24.43C440.595 23.8483 441.537 23.4064 442.665 23.044C443.802 22.6787 445.177 22.3793 446.727 22.1098C450.054 21.5318 452.63 23.3357 454.327 25.1888C455.18 26.1199 455.83 27.0824 456.267 27.8102C456.486 28.1748 456.652 28.4824 456.764 28.7003C456.821 28.8094 456.863 28.8961 456.892 28.9564L456.926 29.0267L456.935 29.0461L456.937 29.0518L456.938 29.0541ZM456.474 29.2834L456.985 29.3397L457 29.1902L456.938 29.0541L456.474 29.2834ZM455.945 29.3793C455.945 29.3825 455.945 29.3858 455.944 29.3891C455.932 29.4941 455.912 29.6439 455.886 29.8204C455.833 30.1761 455.752 30.6299 455.644 31.0448C455.546 31.419 455.441 31.6975 455.346 31.8549C455.209 31.7332 455.047 31.6589 454.902 31.6094C454.731 31.5512 454.537 31.5118 454.333 31.4835C453.925 31.4271 453.417 31.4069 452.853 31.4002C452.438 31.3952 451.991 31.3973 451.52 31.3996C450.683 31.4035 449.768 31.4079 448.808 31.3737C447.319 31.3206 445.79 31.1751 444.442 30.8018C443.089 30.4274 441.97 29.8382 441.243 28.9382C440.445 27.9499 440.098 27.1923 440.038 26.619C439.982 26.0941 440.16 25.6561 440.621 25.2411C441.106 24.8046 441.886 24.4158 442.967 24.0682C444.04 23.7235 445.364 23.4334 446.896 23.167C449.737 22.6733 451.992 24.1918 453.584 25.9291C454.376 26.7932 454.984 27.693 455.396 28.3786C455.601 28.7207 455.756 29.0076 455.859 29.2075C455.894 29.2752 455.923 29.3329 455.945 29.3793ZM455.27 31.956C455.27 31.9559 455.271 31.9552 455.272 31.954L455.27 31.956Z" fill="#CD879C"/>
<path d="M463.706 30.1618C463.706 30.1618 478.324 26.7297 480.383 31.6634C482.442 36.5972 478.942 39.3858 475.853 38.9568C472.765 38.5278 462.059 40.0293 460 34.023L463.706 30.1618Z" fill="#F09CAB"/>
<path fill-rule="evenodd" clip-rule="evenodd" d="M463.279 30.5336L463.167 30.0612L463.022 30.092L459 33.8951L459.109 34.1837C460.244 37.1896 463.726 38.2306 467.032 38.6183C468.715 38.8157 470.423 38.852 471.889 38.8642C472.146 38.8663 472.394 38.8677 472.632 38.8691C473.777 38.8757 474.697 38.8809 475.299 38.9568C476.993 39.1704 478.813 38.5877 479.935 37.3088C481.08 36.0041 481.43 34.0589 480.344 31.6967C479.729 30.3595 478.219 29.6693 476.525 29.3246C474.806 28.975 472.742 28.9473 470.778 29.0573C468.807 29.1676 466.906 29.4186 465.499 29.6413C464.795 29.7527 464.214 29.8573 463.808 29.9342C463.604 29.9727 463.445 30.0043 463.336 30.0263L463.211 30.0518L463.178 30.0586L463.17 30.0605L463.167 30.0612C463.166 30.0612 463.167 30.0612 463.279 30.5336ZM463.55 30.9736L463.535 30.9766L460.191 34.1385C461.215 36.3543 463.988 37.2852 467.158 37.657C468.779 37.8471 470.438 37.8834 471.898 37.8955C472.141 37.8975 472.379 37.8988 472.612 37.9001C473.756 37.9063 474.762 37.9118 475.435 37.9966C476.814 38.1705 478.272 37.6877 479.147 36.6902C480 35.7185 480.367 34.1766 479.404 32.0829C478.995 31.1921 477.918 30.5989 476.309 30.2716C474.724 29.9491 472.767 29.9163 470.839 30.0243C468.917 30.1319 467.054 30.3773 465.669 30.5966C464.977 30.7061 464.406 30.8089 464.009 30.8841C463.81 30.9217 463.655 30.9524 463.55 30.9736Z" fill="#CD879C"/>
<path d="M456.698 28.0972C456.698 28.0972 451.847 13.8759 455.155 10.1745C458.462 6.47301 462.211 12.5122 461.991 14.6551C461.77 16.7981 461.329 25.9543 460.227 28.8765C458.903 31.7987 456.698 28.0972 456.698 28.0972Z" fill="#F09CAB"/>
<path fill-rule="evenodd" clip-rule="evenodd" d="M457.639 9.02882C457.136 8.9706 456.535 9.18098 455.88 10.055C455.262 10.878 454.978 12.3783 454.969 14.3072C454.96 16.2039 455.216 18.3939 455.565 20.4833C455.913 22.5693 456.352 24.5376 456.704 25.9856C456.881 26.7092 457.035 27.3019 457.145 27.7131C457.2 27.9187 457.244 28.0789 457.274 28.1874L457.306 28.3018C457.319 28.3261 457.337 28.3603 457.36 28.4026C457.412 28.4954 457.487 28.6257 457.58 28.7732C457.771 29.074 458.022 29.4208 458.291 29.6713C458.579 29.9392 458.779 29.9979 458.894 29.9755C458.988 29.9574 459.232 29.8398 459.502 29.1385C459.727 28.4219 459.926 27.2964 460.101 25.9448C460.275 24.5936 460.419 23.0486 460.54 21.5233C460.661 19.9987 460.757 18.4986 460.836 17.2375C460.849 17.0343 460.861 16.837 460.873 16.6466C460.934 15.6605 460.984 14.8599 461.025 14.3828C461.063 13.9413 460.926 13.2153 460.61 12.3969C460.3 11.5925 459.842 10.7657 459.304 10.1288C458.758 9.48235 458.181 9.09169 457.639 9.02882ZM456.856 28.4984C456.392 28.6455 456.392 28.6453 456.392 28.6452L456.391 28.6422L456.389 28.6336L456.379 28.6006L456.344 28.4731C456.313 28.3617 456.268 28.1983 456.212 27.9893C456.1 27.5714 455.944 26.9709 455.766 26.2385C455.409 24.7745 454.964 22.7794 454.61 20.6598C454.257 18.5437 453.991 16.2861 454 14.3022C454.009 12.3505 454.283 10.5374 455.119 9.4233C455.917 8.36028 456.818 7.90797 457.745 8.01543C458.632 8.11823 459.412 8.7216 460.028 9.45148C460.653 10.1909 461.164 11.1228 461.508 12.0134C461.846 12.89 462.049 13.7952 461.99 14.4751C461.95 14.9379 461.901 15.7214 461.84 16.7089C461.828 16.9 461.816 17.0987 461.803 17.3043C461.724 18.5665 461.627 20.074 461.506 21.608C461.384 23.1412 461.238 24.7057 461.061 26.0817C460.885 27.4483 460.674 28.6617 460.417 29.4752L460.412 29.4894L460.407 29.5033C460.097 30.319 459.666 30.8627 459.07 30.9782C458.494 31.0897 457.991 30.7533 457.649 30.4349C457.289 30.0992 456.983 29.6686 456.774 29.3387C456.667 29.1707 456.582 29.0222 456.523 28.9152C456.493 28.8615 456.47 28.818 456.454 28.7873L456.435 28.751L456.43 28.7406L456.428 28.7375C456.428 28.7374 456.427 28.7358 456.856 28.4984ZM456.856 28.4984L456.428 28.7375L456.405 28.6924L456.392 28.6452L456.856 28.4984Z" fill="#CD879C"/>
<path d="M459 35C460.105 35 461 34.1046 461 33C461 31.8954 460.105 31 459 31C457.895 31 457 31.8954 457 33C457 34.1046 457.895 35 459 35Z" fill="#F29EAE"/>
<path fill-rule="evenodd" clip-rule="evenodd" d="M459 32C458.448 32 458 32.4477 458 33C458 33.5523 458.448 34 459 34C459.552 34 460 33.5523 460 33C460 32.4477 459.552 32 459 32ZM456 33C456 31.3431 457.343 30 459 30C460.657 30 462 31.3431 462 33C462 34.6569 460.657 36 459 36C457.343 36 456 34.6569 456 33Z" fill="#AA7083"/>
<path d="M477 103.181C477 103.181 465.916 82.0305 455.654 86.6634C445.186 91.4978 458.733 107.814 477 103.181Z" fill="#F29EAE"/>
<path fill-rule="evenodd" clip-rule="evenodd" d="M477.424 102.714C477.424 102.714 477.424 102.715 476.529 103.175L477.424 102.714L478 103.834L476.781 104.149C467.48 106.552 459.32 103.536 454.793 99.1965C452.543 97.0388 451.1 94.4622 451.005 91.9763C450.906 89.3904 452.274 87.118 455.162 85.7592L455.17 85.7555C458.067 84.4232 460.979 84.9852 463.592 86.4126C466.184 87.8292 468.581 90.1441 470.604 92.5368C472.635 94.9406 474.338 97.4828 475.53 99.4171C476.127 100.386 476.598 101.206 476.921 101.786C477.083 102.076 477.208 102.306 477.292 102.465C477.335 102.544 477.367 102.605 477.389 102.648L477.414 102.696L477.421 102.709L477.424 102.714ZM475.01 102.494C474.709 101.962 474.307 101.27 473.816 100.473C472.655 98.5892 471.011 96.1372 469.066 93.8359C467.112 91.5237 464.903 89.423 462.626 88.1789C460.37 86.9463 458.15 86.6022 456.015 87.5824C453.772 88.639 452.952 90.2153 453.017 91.8993C453.085 93.6844 454.159 95.8001 456.187 97.7436C460.017 101.416 466.933 104.146 475.01 102.494Z" fill="#AA7083"/>
<path d="M473 117.84C473 117.84 477.666 111.492 479.611 115.12C481.555 118.52 475.722 120.334 473 117.84Z" fill="#F29EAE"/>
<path fill-rule="evenodd" clip-rule="evenodd" d="M474.178 117.517C475.235 117.905 476.533 117.912 477.577 117.568C478.287 117.334 478.688 117.001 478.841 116.735C478.933 116.574 479.021 116.309 478.684 115.776L478.675 115.763L478.667 115.749C478.496 115.461 478.332 115.331 478.203 115.266C478.071 115.201 477.904 115.167 477.675 115.192C477.179 115.246 476.537 115.557 475.83 116.069C475.215 116.516 474.635 117.053 474.178 117.517ZM472.492 117.791L471.705 117.081L471 117.946L471.851 118.65C473.643 120.131 476.306 120.274 478.196 119.653C479.146 119.34 480.094 118.773 480.616 117.865C481.196 116.856 481.11 115.679 480.418 114.578C480.072 113.999 479.629 113.561 479.093 113.293C478.555 113.025 477.993 112.962 477.463 113.019C476.443 113.13 475.45 113.692 474.652 114.272C473.832 114.867 473.096 115.571 472.574 116.113C472.311 116.387 472.096 116.625 471.947 116.796C471.872 116.882 471.813 116.951 471.772 116.999L471.724 117.057L471.711 117.073L471.707 117.078L471.705 117.081C471.704 117.081 471.705 117.081 472.492 117.791ZM473.28 118.502C473.279 118.503 473.279 118.503 473.28 118.502V118.502Z" fill="#AA7083"/>
<path fill-rule="evenodd" clip-rule="evenodd" d="M5.00287 61.1825C1.81405 76.27 2.16895 93.8174 7.99095 109.994C13.7429 125.977 14.4056 144.416 13.6204 158.888C13.2281 166.118 12.4751 172.347 11.8203 176.767C11.4929 178.977 11.1902 180.734 10.9695 181.938C10.8592 182.54 10.7693 183.004 10.7072 183.316C10.6761 183.473 10.652 183.591 10.6357 183.67L10.6172 183.759L10.6126 183.781L10.6114 183.787C10.6114 183.787 10.6111 183.788 11.1075 183.894C11.6038 184.001 11.6038 184 11.6039 184L11.6056 183.992L11.6106 183.968L11.6297 183.876C11.6465 183.795 11.6711 183.674 11.7027 183.515C11.7657 183.198 11.8565 182.729 11.9678 182.122C12.1904 180.908 12.4951 179.139 12.8243 176.917C13.4827 172.472 14.2396 166.211 14.634 158.943C15.4221 144.417 14.7653 125.819 8.94576 109.649C3.19634 93.6738 2.84072 76.3215 5.99587 61.3934C9.15454 46.4486 15.8121 34.0173 24 27.8116L23.3878 27C14.9291 33.411 8.18819 46.1116 5.00287 61.1825Z" fill="#77554A"/>
<path d="M21 23.0309C21 23.0309 20.582 4.91532 8.4605 8.45968C-3.66102 12.004 19.955 25 19.955 25L21 23.0309Z" fill="#F09CAB"/>
<path fill-rule="evenodd" clip-rule="evenodd" d="M20.9513 23.1078L20.2195 24.5527C20.0798 24.4691 19.9121 24.3679 19.7199 24.2506C19.1037 23.8746 18.2362 23.3329 17.2327 22.6713C15.2227 21.3462 12.6793 19.5481 10.5171 17.642C9.43596 16.6889 8.45904 15.7167 7.6937 14.7702C6.92419 13.8185 6.39217 12.9216 6.16499 12.1193C5.94242 11.3333 6.01733 10.6663 6.42104 10.095C6.8402 9.50187 7.66897 8.93242 9.12614 8.48593C12.0092 7.60252 14.1269 8.07955 15.7178 9.22668C17.3383 10.3952 18.4771 12.3062 19.2688 14.399C20.0574 16.4837 20.4805 18.6922 20.7057 20.3881C20.818 21.2342 20.8805 21.9483 20.9149 22.4498C20.9321 22.7005 20.9423 22.8978 20.9481 23.0317C20.9493 23.0599 20.9504 23.0853 20.9513 23.1078ZM20.4342 25.2789C20.1715 25.7231 20.1713 25.723 20.1711 25.7229L20.1666 25.7203L20.1532 25.7126L20.1018 25.6826C20.0567 25.6563 19.9905 25.6174 19.9048 25.5667C19.7334 25.4652 19.4843 25.3163 19.172 25.1257C18.5474 24.7446 17.6695 24.1964 16.654 23.5269C14.6261 22.1899 12.0374 20.3614 9.82306 18.4094C8.71587 17.4334 7.69336 16.4188 6.87934 15.4121C6.0695 14.4106 5.44224 13.3881 5.16142 12.3963C4.87599 11.3883 4.94436 10.3867 5.56643 9.50637C6.17303 8.64793 7.25251 7.98279 8.81728 7.50333C11.9781 6.53485 14.4454 7.03521 16.3324 8.39584C18.1897 9.73507 19.4215 11.8622 20.245 14.0391C21.0716 16.224 21.5082 18.5167 21.7389 20.2544C21.8545 21.1252 21.919 21.8611 21.9546 22.3803C21.9724 22.6401 21.983 22.8458 21.9892 22.9875C21.9923 23.0583 21.9943 23.1131 21.9955 23.1506L21.9968 23.1938L21.9971 23.2054L21.9972 23.2086C21.9972 23.2089 21.9972 23.2101 21.4763 23.2213L21.9972 23.2086L22 23.3374L20.6516 26L20.1711 25.7229L20.4342 25.2789Z" fill="#CD879C"/>
<path d="M24.4876 28.7998C24.4876 28.7998 30.1129 49.418 19.6658 46.7642C9.21866 44.3145 19.264 27.9832 21.474 27.1666C23.8848 26.3501 24.4876 28.7998 24.4876 28.7998Z" fill="#F09CAB"/>
<path fill-rule="evenodd" clip-rule="evenodd" d="M22.5989 27.0923C22.0915 26.9521 21.4977 26.9634 20.8148 27.1835L20.8019 27.1876C20.5811 27.2653 20.3588 27.4149 20.1506 27.5849C19.9349 27.7611 19.7019 27.9864 19.459 28.2492C18.9728 28.7753 18.4252 29.4753 17.871 30.2909C16.7631 31.9213 15.606 34.0468 14.8492 36.2301C14.0966 38.4012 13.717 40.695 14.2468 42.6271C14.5143 43.6025 15.0145 44.4875 15.8125 45.2068C16.6083 45.924 17.6767 46.4553 19.0488 46.7622C20.4193 47.0929 21.5784 47.0732 22.5418 46.7374C23.5121 46.3992 24.2331 45.758 24.7529 44.9385C25.7739 43.329 26.0448 40.9927 25.9942 38.6806C25.9432 36.347 25.5609 33.9433 25.1942 32.1305C25.0105 31.2223 24.83 30.4587 24.6952 29.9214C24.6277 29.6528 24.5717 29.4405 24.5324 29.2949C24.5128 29.2222 24.4973 29.166 24.4866 29.1278L24.4744 29.0841L24.4711 29.0726L24.4692 29.0658L24.4613 29.0382C24.4547 29.0157 24.4451 28.985 24.4323 28.9475C24.4068 28.8726 24.3682 28.7696 24.3136 28.6499C24.2055 28.4131 24.0289 28.0974 23.7567 27.8049C23.4824 27.51 23.1039 27.2318 22.5989 27.0923ZM23.5022 29.3277L23.503 29.3304L23.5058 29.3402L23.5171 29.3805C23.5271 29.4164 23.5419 29.4701 23.5609 29.5404C23.5988 29.6809 23.6534 29.8877 23.7193 30.1505C23.8513 30.6762 24.0284 31.4254 24.2088 32.3169C24.5701 34.1033 24.9409 36.4461 24.9903 38.7011C25.0401 40.9777 24.7587 43.0722 23.897 44.4307C23.4754 45.0953 22.9223 45.5724 22.2013 45.8237C21.4744 46.0771 20.5262 46.1184 19.2879 45.819L19.279 45.8168C18.0425 45.5408 17.1416 45.0772 16.4971 44.4963C15.8541 43.9167 15.4426 43.1993 15.2174 42.3781C14.7619 40.717 15.0727 38.6406 15.8013 36.5387C16.5256 34.449 17.6403 32.3986 18.7102 30.8242C19.2449 30.0374 19.7627 29.3779 20.2076 28.8964C20.4304 28.6554 20.6294 28.465 20.7984 28.327C20.9698 28.187 21.0833 28.1235 21.1403 28.1022C21.6584 27.9366 22.0411 27.9481 22.323 28.0261C22.6088 28.105 22.8329 28.2638 23.0103 28.4545C23.19 28.6476 23.3147 28.8661 23.3949 29.0419C23.4344 29.1286 23.4617 29.2016 23.4785 29.2512C23.487 29.2759 23.4927 29.2945 23.496 29.3057L23.4991 29.3162L23.5022 29.3277Z" fill="#CD879C"/>
<path d="M25.4405 25.1972C25.4405 25.1972 34.8107 22.9657 36.7719 33.5146C38.7331 44.0634 27.4017 36.1518 27.4017 36.1518C27.4017 36.1518 21.3001 27.4287 25.4405 25.1972Z" fill="#F09CAB"/>
<path fill-rule="evenodd" clip-rule="evenodd" d="M25.7078 24.2269C25.7075 24.227 25.7072 24.227 25.8317 24.7506L25.7072 24.227L25.6399 24.2455L25.5799 24.2829C24.4179 25.0062 24.0105 26.2528 24.0002 27.5734C23.99 28.8791 24.3611 30.3383 24.8343 31.6721C25.3107 33.0149 25.907 34.2755 26.3816 35.1969C26.6195 35.6586 26.828 36.0374 26.9775 36.3015C27.0522 36.4336 27.1123 36.5372 27.1539 36.6081L27.2022 36.6897L27.2151 36.7113L27.2186 36.7171L27.2196 36.7188L27.2199 36.7193C27.22 36.7195 27.2201 36.7196 27.6413 36.4247C27.3397 36.8571 27.3399 36.8572 27.3401 36.8573L27.3406 36.8578L27.3425 36.8593L27.3491 36.8646L27.3733 36.8838C27.3943 36.9004 27.4249 36.9245 27.4644 36.9551C27.5433 37.0162 27.6578 37.1037 27.8024 37.2105C28.0913 37.4239 28.5014 37.7155 28.9879 38.0297C29.9532 38.6532 31.25 39.3856 32.5101 39.7564C33.7385 40.1179 35.1269 40.1891 36.0573 39.1757C36.9687 38.1829 37.2385 36.356 36.7823 33.5221C36.3178 30.6365 35.4075 28.5832 34.2743 27.1383C33.1398 25.6919 31.804 24.8833 30.5322 24.4515C29.2651 24.0212 28.0642 23.9654 27.1846 24.015C26.7436 24.0399 26.3798 24.0914 26.124 24.1373C25.996 24.1603 25.8948 24.1819 25.8241 24.1982C25.7887 24.2063 25.761 24.2131 25.7414 24.2181L25.718 24.2241L25.711 24.226L25.7087 24.2266L25.7078 24.2269ZM27.6413 36.4247L27.3397 36.8571L27.2686 36.7997L27.2201 36.7196L27.6413 36.4247ZM28.0145 36.0489L28.0041 36.0313C27.9652 35.9649 27.908 35.8664 27.8363 35.7397C27.6928 35.4861 27.4913 35.1201 27.2611 34.6732C26.7995 33.7773 26.2271 32.5653 25.7736 31.2868C25.3169 29.9994 24.9968 28.6887 25.0055 27.5825C25.0138 26.5216 25.3178 25.7292 26.0221 25.258C26.0261 25.2571 26.0302 25.2562 26.0345 25.2552C26.0913 25.2421 26.1776 25.2236 26.2895 25.2035C26.5137 25.1633 26.8394 25.1169 27.2372 25.0945C28.0352 25.0495 29.1089 25.1018 30.2294 25.4822C31.3452 25.8611 32.5102 26.5658 33.5057 27.8352C34.5025 29.1061 35.3514 30.9712 35.7917 33.7064C36.2404 36.4934 35.8818 37.8281 35.3418 38.4163C34.8208 38.9837 33.9347 39.0549 32.7755 38.7138C31.6479 38.382 30.4439 37.7092 29.5055 37.1031C29.0401 36.8025 28.6475 36.5233 28.3717 36.3196C28.2339 36.2178 28.1256 36.135 28.0522 36.0782C28.0384 36.0675 28.0258 36.0577 28.0145 36.0489Z" fill="#CD879C"/>
<path d="M24 22.1166C24 22.1166 27.503 15.121 33.6848 16.0926C39.8666 17.0642 42.9575 18.4245 39.6605 22.1166C36.3636 25.8087 26.4727 23.8655 25.4424 24.8371C24.4121 25.8087 24 22.1166 24 22.1166Z" fill="#F09CAB"/>
<path fill-rule="evenodd" clip-rule="evenodd" d="M24.0616 22.0541C24.0615 22.0544 24.0615 22.0546 24.5262 22.2834L24.0151 22.3397L24.0155 22.3436L24.0165 22.3536L24.0205 22.3901C24.0239 22.4215 24.0291 22.4667 24.036 22.5235C24.0497 22.637 24.0705 22.7971 24.0987 22.9856C24.1547 23.36 24.2417 23.8575 24.3644 24.3268C24.4806 24.7712 24.6507 25.281 24.9105 25.6089C25.0448 25.7785 25.2615 25.9728 25.5688 25.9974C25.8817 26.0225 26.1369 25.8608 26.3224 25.6697C26.3266 25.6671 26.3526 25.6502 26.4175 25.6281C26.5057 25.598 26.6319 25.5696 26.8026 25.5459C27.1445 25.4986 27.6008 25.4785 28.1585 25.4719C28.5423 25.4673 28.9741 25.4692 29.4383 25.4713C30.2907 25.4752 31.2525 25.4795 32.227 25.4448C33.7449 25.3907 35.3635 25.2414 36.8222 24.8377C38.277 24.435 39.6251 23.7649 40.5428 22.6286C41.3893 21.5805 41.8903 20.6233 41.9839 19.7363C42.0827 18.8009 41.7208 18.0332 41.0509 17.43C40.4051 16.8483 39.4633 16.4064 38.3353 16.044C37.1983 15.6787 35.8233 15.3793 34.2726 15.1098C30.9464 14.5318 28.3705 16.3357 26.6728 18.1888C25.8198 19.1199 25.1695 20.0824 24.7329 20.8102C24.5141 21.1748 24.3479 21.4824 24.2356 21.7003C24.1795 21.8094 24.1368 21.8961 24.1077 21.9564L24.0743 22.0267L24.0653 22.0461L24.0627 22.0518L24.0616 22.0541ZM24.5262 22.2834L24.0151 22.3397L24 22.1902L24.0616 22.0541L24.5262 22.2834ZM25.0545 22.3793C25.0549 22.3825 25.0553 22.3858 25.0557 22.3891C25.0685 22.4941 25.0879 22.6439 25.1143 22.8204C25.1675 23.1761 25.2475 23.6299 25.3561 24.0448C25.4539 24.419 25.5594 24.6975 25.6542 24.8549C25.7907 24.7332 25.9528 24.6589 26.098 24.6094C26.2689 24.5512 26.4633 24.5118 26.6672 24.4835C27.0745 24.4271 27.5834 24.4069 28.1467 24.4002C28.5625 24.3952 29.009 24.3973 29.4805 24.3996C30.317 24.4035 31.2318 24.4079 32.1919 24.3737C33.6805 24.3206 35.2098 24.1751 36.5584 23.8018C37.9109 23.4274 39.0298 22.8382 39.7566 21.9382C40.5547 20.9499 40.9017 20.1923 40.9622 19.619C41.0177 19.0941 40.8399 18.6561 40.3791 18.2411C39.8944 17.8046 39.1144 17.4158 38.0326 17.0682C36.9597 16.7235 35.6365 16.4334 34.1036 16.167C31.2626 15.6733 29.0076 17.1918 27.4161 18.9291C26.6245 19.7932 26.0156 20.693 25.6043 21.3786C25.3991 21.7207 25.2441 22.0076 25.1411 22.2075C25.1062 22.2752 25.0774 22.3329 25.0545 22.3793ZM25.7301 24.956C25.7301 24.9559 25.7293 24.9552 25.7277 24.954L25.7301 24.956Z" fill="#CD879C"/>
<path d="M17.294 23.1618C17.294 23.1618 2.67586 19.7297 0.616968 24.6634C-1.44193 29.5972 2.05819 32.3858 5.14653 31.9568C8.23487 31.5278 18.9411 33.0293 21 27.023L17.294 23.1618Z" fill="#F09CAB"/>
<path fill-rule="evenodd" clip-rule="evenodd" d="M17.7209 23.5336L17.8335 23.0612L17.9782 23.092L22 26.8951L21.891 27.1837C20.7557 30.1896 17.2744 31.2306 13.9681 31.6183C12.2853 31.8157 10.5768 31.852 9.11093 31.8642C8.85404 31.8663 8.60605 31.8677 8.36782 31.8691C7.22256 31.8757 6.30258 31.8809 5.70085 31.9568C4.00706 32.1704 2.18688 31.5877 1.06464 30.3088C-0.0802345 29.0041 -0.429958 27.0589 0.656158 24.6967C1.27098 23.3595 2.78092 22.6693 4.47544 22.3246C6.19385 21.975 8.25779 21.9473 10.2219 22.0573C12.1925 22.1676 14.0941 22.4186 15.5006 22.6413C16.2045 22.7527 16.7861 22.8573 17.1924 22.9342C17.3955 22.9727 17.5549 23.0043 17.664 23.0263L17.7889 23.0518L17.8216 23.0586L17.8301 23.0605L17.8335 23.0612C17.8337 23.0612 17.8335 23.0612 17.7209 23.5336ZM17.45 23.9736L17.465 23.9766L20.8087 27.1385C19.7849 29.3543 17.0123 30.2852 13.842 30.657C12.2211 30.8471 10.562 30.8834 9.10197 30.8955C8.85923 30.8975 8.62053 30.8988 8.38755 30.9001C7.2441 30.9063 6.23808 30.9118 5.56546 30.9966C4.1861 31.1705 2.72826 30.6877 1.85296 29.6902C1.00029 28.7185 0.632942 27.1766 1.59559 25.0829C2.00515 24.1921 3.08177 23.5989 4.69088 23.2716C6.2761 22.9491 8.23287 22.9163 10.1614 23.0243C12.0834 23.1319 13.9464 23.3773 15.3314 23.5966C16.0232 23.7061 16.594 23.8089 16.9913 23.8841C17.1899 23.9217 17.345 23.9524 17.45 23.9736Z" fill="#CD879C"/>
<path d="M24.3018 21.0972C24.3018 21.0972 29.1533 6.8759 25.8454 3.17446C22.5376 -0.526988 18.7888 5.51221 19.0093 7.65515C19.2298 9.79809 19.6708 18.9543 20.7735 21.8765C22.0966 24.7987 24.3018 21.0972 24.3018 21.0972Z" fill="#F09CAB"/>
<path fill-rule="evenodd" clip-rule="evenodd" d="M23.3613 2.02882C23.8636 1.9706 24.4646 2.18098 25.1205 3.05504C25.738 3.87804 26.0217 5.37834 26.0307 7.30723C26.0396 9.20391 25.7845 11.3939 25.4354 13.4833C25.0869 15.5693 24.6479 17.5376 24.2955 18.9856C24.1194 19.7092 23.9652 20.3019 23.8552 20.7131C23.8002 20.9187 23.7563 21.0789 23.7262 21.1874L23.6942 21.3018C23.6814 21.3261 23.6631 21.3603 23.6397 21.4026C23.5884 21.4954 23.5134 21.6257 23.4199 21.7732C23.2293 22.074 22.9778 22.4208 22.7086 22.6713C22.4208 22.9392 22.2214 22.9979 22.106 22.9755C22.0123 22.9574 21.7675 22.8398 21.4983 22.1385C21.2733 21.4219 21.0735 20.2964 20.8994 18.9448C20.7254 17.5936 20.5808 16.0486 20.46 14.5233C20.3393 12.9987 20.2426 11.4986 20.1639 10.2375C20.1512 10.0343 20.139 9.83701 20.1272 9.64664C20.066 8.66054 20.0164 7.85985 19.9752 7.38282C19.937 6.94132 20.0739 6.21525 20.3898 5.39691C20.7002 4.59252 21.1579 3.76571 21.696 3.12882C22.2422 2.48235 22.8189 2.09169 23.3613 2.02882ZM24.1441 21.4984C24.608 21.6455 24.608 21.6453 24.6081 21.6452L24.6089 21.6422L24.6114 21.6336L24.6207 21.6006L24.6564 21.4731C24.6873 21.3617 24.7321 21.1983 24.788 20.9893C24.8998 20.5714 25.056 19.9709 25.2343 19.2385C25.5905 17.7745 26.0357 15.7794 26.3898 13.6598C26.7433 11.5437 27.0091 9.28608 26.9998 7.30221C26.9906 5.35054 26.7171 3.5374 25.8811 2.4233C25.0834 1.36028 24.1823 0.90797 23.2552 1.01543C22.3683 1.11823 21.5884 1.7216 20.9717 2.45148C20.3469 3.19094 19.8356 4.1228 19.4919 5.01338C19.1536 5.88998 18.9514 6.79516 19.0101 7.47512C19.0501 7.9379 19.0987 8.72141 19.1599 9.70886C19.1718 9.89998 19.1841 10.0987 19.1969 10.3043C19.2757 11.5665 19.3728 13.074 19.4943 14.608C19.6158 16.1412 19.7619 17.7057 19.9392 19.0817C20.1152 20.4483 20.3257 21.6617 20.5835 22.4752L20.588 22.4894L20.5933 22.5033C20.9034 23.319 21.3344 23.8627 21.9305 23.9782C22.5055 24.0897 23.0087 23.7533 23.3507 23.4349C23.7115 23.0992 24.0172 22.6686 24.2262 22.3387C24.3327 22.1707 24.4182 22.0222 24.4774 21.9152C24.507 21.8615 24.5302 21.818 24.5464 21.7873L24.5651 21.751L24.5704 21.7406L24.572 21.7375C24.5721 21.7374 24.5729 21.7358 24.1441 21.4984ZM24.1441 21.4984L24.572 21.7375L24.5946 21.6924L24.6081 21.6452L24.1441 21.4984Z" fill="#CD879C"/>
<path d="M22 28C20.8954 28 20 27.1046 20 26C20 24.8954 20.8954 24 22 24C23.1046 24 24 24.8954 24 26C24 27.1046 23.1046 28 22 28Z" fill="#F29EAE"/>
<path fill-rule="evenodd" clip-rule="evenodd" d="M22 25C22.5523 25 23 25.4477 23 26C23 26.5523 22.5523 27 22 27C21.4477 27 21 26.5523 21 26C21 25.4477 21.4477 25 22 25ZM25 26C25 24.3431 23.6569 23 22 23C20.3431 23 19 24.3431 19 26C19 27.6569 20.3431 29 22 29C23.6569 29 25 27.6569 25 26Z" fill="#AA7083"/>
<path d="M4 96.1809C4 96.1809 15.0835 75.0305 25.3461 79.6634C35.8138 84.4978 22.2673 100.814 4 96.1809Z" fill="#F29EAE"/>
<path fill-rule="evenodd" clip-rule="evenodd" d="M3.57629 95.7141C3.5761 95.7144 3.57595 95.7147 4.47115 96.175L3.57629 95.7141L3 96.8344L4.21928 97.1494C13.5202 99.5525 21.6796 96.5361 26.2066 92.1965C28.4574 90.0388 29.8998 87.4622 29.995 84.9763C30.094 82.3904 28.7258 80.118 25.8379 78.7592L25.8299 78.7555C22.933 77.4232 20.0205 77.9852 17.4081 79.4126C14.8155 80.8292 12.4185 83.1441 10.3964 85.5368C8.36496 87.9406 6.6622 90.4828 5.47011 92.4171C4.873 93.386 4.40154 94.2064 4.07854 94.7862C3.91699 95.0761 3.79244 95.3061 3.70776 95.4647C3.66541 95.544 3.63301 95.6054 3.61093 95.6475L3.58558 95.6961L3.57878 95.7092L3.57629 95.7141ZM5.98989 95.4938C6.29052 94.9616 6.69324 94.2696 7.18416 93.473C8.34509 91.5892 9.9894 89.1372 11.9342 86.8359C13.8883 84.5237 16.0966 82.423 18.3736 81.1789C20.6295 79.9463 22.8496 79.6022 24.9846 80.5824C27.2275 81.639 28.0477 83.2153 27.9832 84.8993C27.9148 86.6844 26.8406 88.8001 24.8132 90.7436C20.9826 94.4156 14.0666 97.1461 5.98989 95.4938Z" fill="#AA7083"/>
<path d="M8 110.84C8 110.84 3.33358 104.492 1.38924 108.12C-0.555102 111.52 5.27792 113.334 8 110.84Z" fill="#F29EAE"/>
<path fill-rule="evenodd" clip-rule="evenodd" d="M6.82218 110.517C5.76481 110.905 4.4674 110.912 3.42251 110.568C2.71268 110.334 2.31201 110.001 2.15939 109.735C2.06696 109.574 1.97861 109.309 2.31638 108.776L2.32484 108.763L2.33292 108.749C2.50398 108.461 2.66758 108.331 2.79681 108.266C2.92856 108.201 3.09632 108.167 3.32494 108.192C3.82142 108.246 4.46317 108.557 5.16955 109.069C5.78515 109.516 6.36497 110.053 6.82218 110.517ZM8.50773 110.791L9.29541 110.081L10 110.946L9.14868 111.65C7.35749 113.131 4.6943 113.274 2.80363 112.653C1.85358 112.34 0.905579 111.773 0.383861 110.865C-0.195696 109.856 -0.110389 108.679 0.581541 107.578C0.928019 106.999 1.37118 106.561 1.90722 106.293C2.44495 106.025 3.00663 105.962 3.53664 106.019C4.55741 106.13 5.54961 106.692 6.34752 107.272C7.16849 107.867 7.90387 108.571 8.42601 109.113C8.68935 109.387 8.90358 109.625 9.05311 109.796C9.12796 109.882 9.18685 109.951 9.22784 109.999L9.27571 110.057L9.28917 110.073L9.29321 110.078L9.29541 110.081C9.29561 110.081 9.29541 110.081 8.50773 110.791ZM7.72047 111.502C7.72056 111.503 7.72054 111.503 7.72047 111.502V111.502Z" fill="#AA7083"/>
<path d="M884.5 94C888.833 107.333 896.2 144.1 891 184.5" stroke="#77554A"/>
<path d="M882.066 89.8543C882.066 89.8543 881.746 75.9953 872.472 78.7069C863.199 81.4184 881.266 91.3607 881.266 91.3607L882.066 89.8543Z" fill="#FFF4F6"/>
<path fill-rule="evenodd" clip-rule="evenodd" d="M882.028 89.913L881.468 91.0184C881.362 90.9545 881.233 90.8771 881.086 90.7873C880.615 90.4997 879.951 90.0853 879.183 89.5791C877.646 88.5654 875.7 87.1898 874.046 85.7316C873.219 85.0025 872.471 84.2586 871.886 83.5346C871.297 82.8065 870.89 82.1204 870.716 81.5066C870.546 80.9053 870.603 80.395 870.912 79.958C871.233 79.5042 871.867 79.0685 872.982 78.7269C875.187 78.0511 876.807 78.416 878.024 79.2936C879.264 80.1876 880.135 81.6496 880.741 83.2506C881.344 84.8454 881.668 86.535 881.84 87.8324C881.926 88.4797 881.974 89.026 882 89.4097C882.014 89.6015 882.021 89.7525 882.026 89.8549C882.027 89.8764 882.028 89.8959 882.028 89.913ZM881.633 91.574C881.432 91.9139 881.432 91.9138 881.431 91.9137L881.428 91.9117L881.418 91.9058L881.378 91.8829C881.344 91.8627 881.293 91.833 881.228 91.7942C881.097 91.7166 880.906 91.6027 880.667 91.4568C880.189 91.1653 879.518 90.7458 878.741 90.2337C877.189 89.2109 875.209 87.812 873.515 86.3187C872.668 85.572 871.886 84.7958 871.263 84.0256C870.643 83.2594 870.163 82.4772 869.949 81.7185C869.73 80.9473 869.783 80.1811 870.258 79.5076C870.723 78.8509 871.548 78.342 872.745 77.9752C875.164 77.2343 877.051 77.6171 878.495 78.658C879.916 79.6826 880.858 81.3099 881.488 82.9752C882.12 84.6468 882.454 86.4007 882.631 87.7301C882.719 88.3963 882.769 88.9593 882.796 89.3565C882.809 89.5552 882.818 89.7127 882.822 89.821C882.825 89.8752 882.826 89.9171 882.827 89.9458L882.828 89.9789L882.828 89.9877L882.828 89.9902C882.828 89.9904 882.828 89.9913 882.43 89.9999L882.828 89.9902L882.831 90.0887L881.799 92.1257L881.431 91.9137L881.633 91.574Z" fill="#CD879C"/>
<path d="M884.734 94.2676C884.734 94.2676 889.037 110.041 881.045 108.011C873.052 106.137 880.737 93.6429 882.428 93.0182C884.272 92.3935 884.734 94.2676 884.734 94.2676Z" fill="#FFF4F6"/>
<path fill-rule="evenodd" clip-rule="evenodd" d="M883.289 92.9613C882.901 92.854 882.446 92.8627 881.924 93.0311L881.914 93.0343C881.745 93.0937 881.575 93.2081 881.416 93.3382C881.251 93.4729 881.072 93.6453 880.887 93.8464C880.515 94.2488 880.096 94.7844 879.672 95.4083C878.824 96.6556 877.939 98.2817 877.36 99.952C876.784 101.613 876.494 103.368 876.899 104.846C877.104 105.592 877.486 106.269 878.097 106.819C878.706 107.368 879.523 107.775 880.573 108.009C881.621 108.262 882.508 108.247 883.245 107.99C883.987 107.732 884.539 107.241 884.937 106.614C885.718 105.383 885.925 103.595 885.886 101.827C885.847 100.041 885.555 98.2025 885.274 96.8156C885.134 96.1209 884.996 95.5367 884.892 95.1257C884.841 94.9201 884.798 94.7578 884.768 94.6464C884.753 94.5907 884.741 94.5478 884.733 94.5185L884.723 94.4851L884.721 94.4763L884.72 94.4711L884.714 94.45C884.708 94.4328 884.701 94.4093 884.691 94.3806C884.672 94.3233 884.642 94.2445 884.6 94.153C884.518 93.9717 884.383 93.7303 884.174 93.5065C883.965 93.2809 883.675 93.0681 883.289 92.9613ZM883.98 94.6715L883.98 94.6736L883.982 94.6811L883.991 94.7119C883.999 94.7393 884.01 94.7804 884.025 94.8342C884.054 94.9417 884.095 95.0999 884.146 95.3009C884.247 95.7031 884.382 96.2763 884.52 96.9583C884.797 98.3249 885.08 100.117 885.118 101.842C885.156 103.584 884.941 105.186 884.282 106.226C883.959 106.734 883.536 107.099 882.985 107.291C882.428 107.485 881.703 107.517 880.756 107.288L880.749 107.286C879.803 107.075 879.114 106.72 878.621 106.276C878.129 105.832 877.814 105.284 877.642 104.655C877.293 103.385 877.531 101.796 878.088 100.188C878.642 98.5894 879.495 97.0208 880.314 95.8164C880.723 95.2144 881.119 94.7098 881.459 94.3415C881.63 94.1571 881.782 94.0115 881.911 93.9059C882.042 93.7988 882.129 93.7503 882.173 93.734C882.569 93.6072 882.862 93.6161 883.078 93.6757C883.296 93.7361 883.468 93.8576 883.603 94.0035C883.741 94.1512 883.836 94.3183 883.898 94.4528C883.928 94.5191 883.949 94.575 883.962 94.6129C883.968 94.6318 883.972 94.6461 883.975 94.6547L883.977 94.6626L883.98 94.6715Z" fill="#CD879C"/>
<path d="M885.463 91.5115C885.463 91.5115 892.631 89.8044 894.131 97.8746C895.632 105.945 886.963 99.8921 886.963 99.8921C886.963 99.8921 882.295 93.2187 885.463 91.5115Z" fill="#FFF4F6"/>
<path fill-rule="evenodd" clip-rule="evenodd" d="M885.667 90.7692C885.667 90.7693 885.667 90.7693 885.762 91.1699L885.667 90.7693L885.615 90.7835L885.569 90.8121C884.68 91.3654 884.369 92.3191 884.361 93.3294C884.353 94.3283 884.637 95.4446 884.999 96.465C885.363 97.4922 885.819 98.4566 886.183 99.1616C886.365 99.5148 886.524 99.8046 886.638 100.007C886.696 100.108 886.742 100.187 886.773 100.241L886.81 100.304L886.82 100.32L886.823 100.325L886.824 100.326L886.824 100.326C886.824 100.326 886.824 100.326 887.146 100.101C886.916 100.432 886.916 100.432 886.916 100.432L886.916 100.432L886.918 100.433L886.923 100.437L886.941 100.452C886.957 100.465 886.981 100.483 887.011 100.507C887.071 100.553 887.159 100.62 887.269 100.702C887.491 100.865 887.804 101.088 888.176 101.329C888.915 101.806 889.907 102.366 890.871 102.65C891.811 102.926 892.873 102.981 893.585 102.205C894.282 101.446 894.488 100.048 894.139 97.8803C893.784 95.6727 893.088 94.1019 892.221 92.9965C891.353 91.89 890.331 91.2714 889.358 90.941C888.388 90.6119 887.47 90.5692 886.797 90.6071C886.459 90.6261 886.181 90.6656 885.985 90.7007C885.888 90.7183 885.81 90.7348 885.756 90.7472C885.729 90.7535 885.708 90.7587 885.693 90.7625L885.675 90.7671L885.67 90.7685L885.668 90.769L885.667 90.7692ZM887.146 100.101L886.916 100.432L886.861 100.388L886.824 100.326L887.146 100.101ZM887.432 99.8133L887.424 99.7999C887.394 99.7491 887.35 99.6737 887.295 99.5768C887.186 99.3828 887.032 99.1028 886.855 98.7609C886.502 98.0755 886.064 97.1483 885.717 96.1702C885.368 95.1853 885.123 94.1826 885.13 93.3363C885.136 92.5248 885.369 91.9185 885.908 91.5581C885.911 91.5574 885.914 91.5566 885.917 91.5559C885.96 91.5459 886.026 91.5317 886.112 91.5163C886.284 91.4856 886.533 91.4501 886.837 91.4329C887.448 91.3985 888.269 91.4385 889.126 91.7296C889.98 92.0194 890.871 92.5585 891.633 93.5296C892.395 94.5019 893.045 95.9288 893.382 98.0213C893.725 100.153 893.45 101.175 893.037 101.624C892.639 102.059 891.961 102.113 891.074 101.852C890.211 101.598 889.29 101.084 888.572 100.62C888.216 100.39 887.916 100.176 887.705 100.02C887.6 99.9426 887.517 99.8793 887.461 99.8358C887.45 99.8276 887.44 99.8201 887.432 99.8133Z" fill="#CD879C"/>
<path d="M884.361 89.1548C884.361 89.1548 887.041 83.8029 891.77 84.5462C896.499 85.2896 898.864 86.3302 896.341 89.1548C893.819 91.9793 886.252 90.4927 885.464 91.236C884.676 91.9793 884.361 89.1548 884.361 89.1548Z" fill="#FFF4F6"/>
<path fill-rule="evenodd" clip-rule="evenodd" d="M884.408 89.107C884.408 89.1072 884.408 89.1073 884.763 89.2824L884.372 89.3254L884.372 89.3285L884.373 89.3361L884.376 89.364C884.379 89.388 884.383 89.4226 884.388 89.4661C884.399 89.5529 884.415 89.6754 884.436 89.8196C884.479 90.106 884.545 90.4866 884.639 90.8456C884.728 91.1856 884.858 91.5756 885.057 91.8265C885.16 91.9562 885.326 92.1049 885.561 92.1237C885.8 92.1429 885.995 92.0192 886.137 91.873C886.141 91.871 886.16 91.8581 886.21 91.8412C886.278 91.8182 886.374 91.7964 886.505 91.7783C886.766 91.7421 887.115 91.7267 887.542 91.7216C887.836 91.7181 888.166 91.7196 888.521 91.7212C889.173 91.7242 889.909 91.7275 890.655 91.7009C891.816 91.6595 893.054 91.5454 894.17 91.2365C895.283 90.9284 896.314 90.4158 897.016 89.5464C897.664 88.7446 898.047 88.0123 898.119 87.3338C898.194 86.6182 897.917 86.0308 897.405 85.5694C896.911 85.1244 896.19 84.7863 895.327 84.5091C894.458 84.2296 893.406 84.0006 892.219 83.7944C889.675 83.3522 887.704 84.7322 886.405 86.1499C885.753 86.8622 885.255 87.5986 884.921 88.1553C884.754 88.4343 884.627 88.6696 884.541 88.8363C884.498 88.9197 884.465 88.9861 884.443 89.0322L884.417 89.086L884.411 89.1009L884.409 89.1052L884.408 89.107ZM884.763 89.2824L884.372 89.3254L884.361 89.2111L884.408 89.107L884.763 89.2824ZM885.167 89.3557C885.168 89.3582 885.168 89.3607 885.168 89.3632C885.178 89.4436 885.193 89.5581 885.213 89.6932C885.254 89.9654 885.315 90.3125 885.398 90.6299C885.473 90.9162 885.554 91.1292 885.626 91.2496C885.731 91.1565 885.855 91.0997 885.966 91.0619C886.096 91.0173 886.245 90.9871 886.401 90.9655C886.713 90.9223 887.102 90.9069 887.533 90.9018C887.851 90.898 888.193 90.8996 888.553 90.9013C889.193 90.9043 889.893 90.9077 890.628 90.8815C891.766 90.8409 892.936 90.7296 893.968 90.444C895.003 90.1576 895.859 89.7068 896.415 89.0183C897.025 88.2622 897.291 87.6826 897.337 87.244C897.38 86.8425 897.244 86.5074 896.891 86.1899C896.52 85.8559 895.924 85.5586 895.096 85.2926C894.275 85.0289 893.263 84.807 892.09 84.6032C889.917 84.2254 888.192 85.3872 886.974 86.7163C886.368 87.3773 885.903 88.0657 885.588 88.5902C885.431 88.8519 885.312 89.0714 885.234 89.2243C885.207 89.2761 885.185 89.3203 885.167 89.3557ZM885.684 91.327C885.684 91.327 885.684 91.3264 885.682 91.3255L885.684 91.327Z" fill="#CD879C"/>
<path d="M879.23 89.9544C879.23 89.9544 868.047 87.3287 866.472 91.1032C864.897 94.8776 867.575 97.011 869.937 96.6828C872.3 96.3546 880.49 97.5033 882.066 92.9083L879.23 89.9544Z" fill="#FFF4F6"/>
<path fill-rule="evenodd" clip-rule="evenodd" d="M879.557 90.2389L879.643 89.8774L879.754 89.901L882.831 92.8105L882.747 93.0313C881.879 95.3308 879.215 96.1272 876.686 96.4239C875.399 96.5748 874.091 96.6026 872.97 96.6119C872.774 96.6136 872.584 96.6146 872.402 96.6157C871.525 96.6207 870.822 96.6248 870.361 96.6828C869.065 96.8462 867.673 96.4004 866.814 95.422C865.939 94.4239 865.671 92.9357 866.502 91.1286C866.972 90.1056 868.127 89.5776 869.424 89.3139C870.738 89.0465 872.317 89.0253 873.82 89.1094C875.328 89.1938 876.782 89.3858 877.858 89.5562C878.397 89.6414 878.842 89.7215 879.153 89.7803C879.308 89.8097 879.43 89.8339 879.513 89.8507L879.609 89.8703L879.634 89.8755L879.641 89.8769L879.643 89.8774C879.643 89.8774 879.643 89.8774 879.557 90.2389ZM879.35 90.5754L879.361 90.5778L881.919 92.9967C881.136 94.6918 879.015 95.404 876.589 95.6884C875.349 95.8339 874.08 95.8617 872.963 95.8709C872.778 95.8724 872.595 95.8734 872.417 95.8744C871.542 95.8792 870.772 95.8834 870.258 95.9482C869.202 96.0813 868.087 95.7119 867.418 94.9488C866.765 94.2054 866.484 93.0258 867.221 91.4241C867.534 90.7426 868.358 90.2888 869.589 90.0384C870.801 89.7917 872.298 89.7665 873.774 89.8492C875.244 89.9315 876.669 90.1193 877.729 90.287C878.258 90.3708 878.695 90.4494 878.999 90.5069C879.151 90.5357 879.269 90.5592 879.35 90.5754Z" fill="#CD879C"/>
<path d="M884.591 88.3749C884.591 88.3749 888.303 77.4952 885.772 74.6635C883.242 71.8318 880.374 76.452 880.543 78.0914C880.711 79.7308 881.049 86.7355 881.892 88.9711C882.904 91.2066 884.591 88.3749 884.591 88.3749Z" fill="#FFF4F6"/>
<path fill-rule="evenodd" clip-rule="evenodd" d="M883.872 73.7871C884.256 73.7425 884.716 73.9035 885.218 74.5722C885.69 75.2018 885.907 76.3496 885.914 77.8252C885.921 79.2762 885.726 80.9516 885.459 82.5501C885.192 84.1459 884.856 85.6517 884.587 86.7595C884.452 87.3131 884.334 87.7664 884.25 88.0811C884.208 88.2383 884.174 88.3609 884.151 88.4439L884.127 88.5314C884.117 88.55 884.103 88.5762 884.085 88.6085C884.046 88.6795 883.988 88.7792 883.917 88.892C883.771 89.1222 883.579 89.3875 883.373 89.5792C883.152 89.7841 883 89.829 882.912 89.8119C882.84 89.798 882.653 89.7081 882.447 89.1715C882.275 88.6233 882.122 87.7623 881.989 86.7283C881.855 85.6946 881.745 84.5126 881.652 83.3457C881.56 82.1793 881.486 81.0317 881.426 80.0669C881.416 79.9115 881.407 79.7606 881.398 79.6149C881.351 78.8605 881.313 78.248 881.281 77.883C881.252 77.5453 881.357 76.9898 881.599 76.3638C881.836 75.7484 882.186 75.1158 882.598 74.6286C883.016 74.134 883.457 73.8352 883.872 73.7871ZM884.471 88.6818C884.826 88.7943 884.826 88.7942 884.826 88.7941L884.826 88.7919L884.828 88.7853L884.835 88.76L884.863 88.6625C884.886 88.5772 884.921 88.4523 884.963 88.2924C885.049 87.9727 885.168 87.5133 885.305 86.9529C885.577 85.833 885.918 84.3067 886.189 82.6851C886.459 81.0662 886.663 79.3391 886.655 77.8214C886.648 76.3283 886.439 74.9412 885.8 74.0889C885.189 73.2756 884.5 72.9296 883.791 73.0118C883.112 73.0904 882.516 73.552 882.044 74.1104C881.566 74.6761 881.175 75.389 880.912 76.0703C880.653 76.741 880.498 77.4335 880.543 77.9536C880.574 78.3077 880.611 78.9071 880.658 79.6625C880.667 79.8087 880.676 79.9608 880.686 80.118C880.746 81.0837 880.821 82.2369 880.914 83.4105C881.006 84.5834 881.118 85.7803 881.254 86.833C881.389 87.8785 881.55 88.8068 881.747 89.4291L881.75 89.44L881.754 89.4506C881.992 90.0746 882.321 90.4906 882.777 90.579C883.217 90.6642 883.602 90.4069 883.864 90.1633C884.14 89.9065 884.374 89.5771 884.534 89.3247C884.615 89.1962 884.68 89.0826 884.726 89.0007C884.748 88.9596 884.766 88.9263 884.779 88.9028L884.793 88.8751L884.797 88.8672L884.798 88.8648C884.798 88.8646 884.799 88.8634 884.471 88.6818ZM884.471 88.6818L884.798 88.8648L884.815 88.8303L884.826 88.7941L884.471 88.6818Z" fill="#CD879C"/>
<path d="M882.831 93.6557C881.986 93.6557 881.3 92.9707 881.3 92.1257C881.3 91.2807 881.986 90.5956 882.831 90.5956C883.676 90.5956 884.361 91.2807 884.361 92.1257C884.361 92.9707 883.676 93.6557 882.831 93.6557Z" fill="#F29EAE"/>
<path fill-rule="evenodd" clip-rule="evenodd" d="M882.831 91.3607C883.253 91.3607 883.596 91.7032 883.596 92.1257C883.596 92.5482 883.253 92.8907 882.831 92.8907C882.408 92.8907 882.066 92.5482 882.066 92.1257C882.066 91.7032 882.408 91.3607 882.831 91.3607ZM885.126 92.1257C885.126 90.8581 884.098 89.8306 882.831 89.8306C881.563 89.8306 880.535 90.8581 880.535 92.1257C880.535 93.3932 881.563 94.4208 882.831 94.4208C884.098 94.4208 885.126 93.3932 885.126 92.1257Z" fill="#AA7083"/>
<path fill-rule="evenodd" clip-rule="evenodd" d="M597.316 106.647C593.046 115.439 589.716 127.16 593.277 139.069C596.916 151.237 597.769 162.21 597.712 170.143C597.684 174.109 597.428 177.317 597.178 179.537C597.054 180.647 596.931 181.509 596.838 182.096C596.792 182.39 596.754 182.614 596.727 182.766C596.713 182.842 596.703 182.9 596.695 182.94L596.687 182.985L596.684 182.997L596.684 183C596.684 183 596.683 183.001 596.129 182.892L595.574 182.782L595.574 182.78L595.576 182.771L595.584 182.731C595.59 182.695 595.6 182.641 595.613 182.568C595.639 182.424 595.676 182.207 595.721 181.921C595.811 181.349 595.932 180.503 596.054 179.411C596.3 177.226 596.553 174.057 596.581 170.134C596.637 162.288 595.793 151.43 592.193 139.393C588.516 127.096 591.972 115.063 596.298 106.153C598.465 101.692 600.858 97.9952 602.71 95.4133C603.636 94.1219 604.428 93.1083 604.989 92.4162C605.27 92.0702 605.493 91.8044 605.646 91.6244C605.723 91.5344 605.783 91.4659 605.823 91.4194L605.87 91.3665L605.882 91.3526L605.885 91.3488C605.886 91.3485 605.887 91.3472 606.309 91.7239L606.73 92.1007L606.728 92.1038L606.717 92.1154L606.675 92.1636C606.637 92.2068 606.581 92.272 606.507 92.3586C606.359 92.5318 606.142 92.7903 605.868 93.1286C605.319 93.8054 604.541 94.8012 603.629 96.0725C601.805 98.616 599.448 102.257 597.316 106.647Z" fill="#AA7083"/>
<path d="M609.023 81.9964C609.023 81.9964 616.036 72.7213 620.561 76.3409C625.085 79.9604 624.406 84.9373 620.561 86.5209C616.715 88.1045 610.833 86.5209 610.833 86.5209L609.023 81.9964Z" fill="white"/>
<path d="M609.023 81.9964C610.607 79.5079 612.643 77.0194 615.584 75.4359C616.262 74.9834 617.167 74.7572 618.072 74.7572C618.525 74.7572 618.977 74.7572 619.43 74.9834C619.882 74.9834 620.334 75.2097 620.787 75.6621C622.37 76.567 623.275 77.9243 624.18 79.5079C624.859 81.0915 625.085 83.1275 624.18 84.711C623.728 85.6159 623.275 86.2946 622.597 86.9733C621.918 87.6519 621.013 87.8782 620.108 88.1044C618.525 88.5568 616.941 88.5568 615.358 88.3306C613.774 88.1044 612.19 87.8782 610.833 87.4257H610.607V87.1995C609.928 85.1635 609.249 83.5799 609.023 81.9964ZM609.023 81.9964L611.285 86.5208L610.833 86.0684C613.774 86.5208 616.715 86.747 619.43 85.8421C620.561 85.3897 621.692 84.711 622.144 83.5799C622.597 82.4488 622.597 81.3177 622.144 79.9603C621.692 78.8292 620.787 77.6981 619.656 77.0194C618.751 76.3408 617.62 76.3408 616.262 76.7932C613.548 77.9243 611.285 79.9603 609.023 81.9964Z" fill="#AA7083"/>
<path d="M607.213 88.7831C607.213 88.7831 603.82 103.94 611.964 105.071C620.108 106.202 617.62 92.1764 610.607 88.1044L607.213 88.7831Z" fill="white"/>
<path d="M607.213 88.7831C606.987 92.1764 606.987 95.796 607.666 98.9631C608.118 100.547 608.797 101.904 609.702 102.809C610.833 103.714 612.19 103.94 613.548 103.714C614.905 103.488 615.584 102.583 615.81 100.999C616.036 99.6418 616.036 97.832 615.584 96.4747C614.905 93.3075 613.095 90.3666 610.381 88.3306H610.607L607.213 88.7831ZM607.213 88.7831C608.345 88.3306 609.476 88.1044 610.833 87.652H611.059C614.226 89.2355 616.489 92.4026 617.62 95.796C618.072 97.6058 618.525 99.4156 618.072 101.452C617.846 102.356 617.62 103.488 616.715 104.392L616.262 105.071L615.584 105.524C615.131 105.976 614.679 105.976 614 105.976C611.964 106.202 609.702 105.75 608.345 104.392C606.761 103.035 606.309 100.999 606.082 99.1893C605.404 95.5698 606.082 92.1764 607.213 88.7831Z" fill="#AA7083"/>
<path d="M605.177 85.3897C605.177 85.3897 594.093 82.2226 592.283 94.8911C590.473 107.56 606.535 95.1173 606.309 89.0093C606.309 82.9013 605.177 85.3897 605.177 85.3897Z" fill="white"/>
<path d="M605.177 85.3897C601.105 84.7111 597.033 86.0684 595.224 89.2355C594.319 90.8191 593.64 92.6289 593.414 94.4387C593.188 95.3435 593.188 96.2484 593.188 97.1533C593.188 98.0582 593.64 98.7369 593.866 98.9631C594.319 99.1893 594.997 99.1893 595.676 98.9631C596.581 98.7369 597.26 98.2844 598.165 97.832C599.748 96.9271 601.105 95.5698 602.463 94.2124C604.046 93.0813 605.177 91.4978 605.856 89.688C606.082 88.7831 606.082 87.8782 606.082 86.7471C606.082 86.2946 606.082 85.8422 606.082 85.3897C606.082 85.1635 606.082 84.9373 605.856 84.9373C605.404 84.9373 605.177 85.1635 605.177 85.3897ZM605.177 85.3897C605.177 85.1635 605.404 84.9373 605.63 84.7111C606.082 84.7111 606.082 85.1635 606.082 85.3897C606.309 85.8422 606.309 86.2946 606.535 86.9733C606.761 87.8782 606.987 89.0093 606.761 90.1404C606.309 92.4026 605.177 94.2124 604.046 95.796C602.689 97.3796 601.332 98.7369 599.522 100.094C598.617 100.773 597.712 101.225 596.581 101.452C595.45 101.678 594.093 101.904 592.735 100.999C591.604 100.094 591.152 98.5107 591.152 97.6058C591.152 96.4747 591.152 95.3435 591.378 94.4387C591.83 92.4026 592.509 90.3666 593.866 88.5569C595.224 86.7471 597.033 85.616 599.069 85.1635C601.105 84.4848 603.368 84.4848 605.177 85.3897Z" fill="#AA7083"/>
<path d="M606.309 82.9013C606.309 82.9013 600.879 65.4821 606.535 63.6723C612.19 61.8625 613.321 68.6492 611.964 77.4719L609.249 83.5799L606.309 82.9013Z" fill="white"/>
<path d="M606.309 82.9013C604.951 79.7341 604.046 76.7932 603.368 73.6261C603.141 72.0426 602.915 70.2328 602.915 68.6492C602.915 67.0657 603.141 65.0296 604.499 63.4461C604.951 62.9936 605.404 62.7674 605.856 62.5412C606.309 62.315 606.761 62.315 607.213 62.0887C608.118 61.8625 609.249 62.0887 610.154 62.5412C611.964 63.6723 612.643 65.7083 612.869 67.2919C613.321 70.6852 612.869 73.8523 612.417 77.2457V77.4719C611.285 79.5079 610.381 81.3177 609.249 83.3537L609.023 83.5799H608.797C608.118 83.3537 607.213 83.1275 606.309 82.9013ZM606.309 82.9013L609.023 83.1275L608.797 83.3537C609.476 81.3177 610.381 79.0555 611.059 77.0195V77.2457C611.285 74.0786 611.512 70.9114 611.059 67.9705C610.833 66.6132 610.154 65.2559 609.249 64.8034C608.797 64.351 608.118 64.351 607.666 64.351C607.213 64.351 606.987 64.5772 606.761 64.5772C606.535 64.5772 606.309 64.8034 606.082 65.0296C605.404 65.7083 604.951 67.2919 604.951 68.8754C604.951 70.459 604.951 72.0426 604.951 73.3999C605.177 76.567 605.63 79.7341 606.309 82.9013Z" fill="#AA7083"/>
<path d="M603.368 84.9372C603.368 84.9372 587.08 81.7701 594.093 72.2688C601.106 62.7674 606.535 83.8061 606.535 83.8061L603.368 84.9372Z" fill="white"/>
<path d="M603.368 84.9373C601.558 84.711 599.975 84.4848 598.165 83.8062C596.355 83.3537 594.771 82.4488 593.414 81.0915C592.962 80.8653 592.735 80.4128 592.509 79.9604C592.057 79.7341 592.057 79.0555 591.604 78.603C591.604 78.1506 591.378 77.6981 591.378 77.2457C591.378 76.7932 591.378 76.1146 591.378 75.6621C591.83 73.6261 592.735 72.0426 594.093 70.459C594.771 69.7803 595.676 69.1017 596.807 68.6492C597.939 68.1968 599.296 68.6492 600.201 69.1017C602.011 70.2328 602.915 72.0426 603.82 73.6261C605.178 77.0195 606.309 80.1866 606.761 83.8062V84.2586H606.535C605.404 84.4848 604.273 84.711 603.368 84.9373ZM603.368 84.9373C604.273 84.4848 605.404 84.0324 606.309 83.5799L606.083 84.0324C604.951 80.639 603.594 77.4719 601.784 74.531C601.106 73.1737 599.975 71.8163 598.843 71.1377C597.712 70.459 596.807 70.9114 595.676 72.0426C594.545 73.1737 593.867 74.7572 593.414 76.1146C593.188 77.4719 593.64 78.8292 594.545 79.9604C595.676 81.0915 597.034 81.9964 598.391 82.9013C599.975 83.8062 601.558 84.4848 603.368 84.9373Z" fill="#AA7083"/>
<path d="M607.892 87.652C609.017 87.652 609.928 86.7404 609.928 85.616C609.928 84.4915 609.017 83.58 607.892 83.58C606.768 83.58 605.856 84.4915 605.856 85.616C605.856 86.7404 606.768 87.652 607.892 87.652Z" fill="white"/>
<path fill-rule="evenodd" clip-rule="evenodd" d="M607.892 84.7111C607.392 84.7111 606.987 85.1162 606.987 85.616C606.987 86.1157 607.392 86.5209 607.892 86.5209C608.392 86.5209 608.797 86.1157 608.797 85.616C608.797 85.1162 608.392 84.7111 607.892 84.7111ZM604.725 85.616C604.725 83.8668 606.143 82.4489 607.892 82.4489C609.641 82.4489 611.059 83.8668 611.059 85.616C611.059 87.3651 609.641 88.7831 607.892 88.7831C606.143 88.7831 604.725 87.3651 604.725 85.616Z" fill="#AA7083"/>
<path d="M592.283 136.29C592.283 136.29 596.581 122.49 612.19 124.074C612.417 124.074 611.059 140.136 592.283 136.29Z" fill="#F29EAE"/>
<path fill-rule="evenodd" clip-rule="evenodd" d="M593.843 135.426C597.722 136.047 600.696 135.731 602.974 134.936C605.5 134.054 607.246 132.556 608.459 130.944C609.679 129.322 610.361 127.577 610.723 126.23C610.837 125.807 610.918 125.429 610.973 125.113C604.209 124.74 599.889 127.48 597.211 130.359C595.787 131.89 594.818 133.472 594.206 134.672C594.066 134.946 593.946 135.199 593.843 135.426ZM612.049 125.196C612.065 125.198 612.08 125.2 612.096 125.201L612.076 125.199C612.067 125.198 612.058 125.197 612.049 125.196ZM592.283 136.29L591.203 135.954L590.831 137.147L592.056 137.398C596.904 138.391 600.723 138.117 603.719 137.071C606.722 136.023 608.821 134.227 610.267 132.304C611.705 130.392 612.493 128.362 612.908 126.817C613.116 126.043 613.234 125.378 613.293 124.892C613.322 124.652 613.338 124.441 613.341 124.274C613.343 124.197 613.342 124.094 613.33 123.99C613.325 123.949 613.312 123.838 613.267 123.711C613.247 123.653 613.194 123.513 613.076 123.367C612.962 123.226 612.699 122.979 612.283 122.946C604.088 122.122 598.783 125.349 595.555 128.818C593.954 130.538 592.872 132.307 592.19 133.645C591.849 134.315 591.606 134.881 591.446 135.284C591.366 135.486 591.307 135.647 591.267 135.761C591.247 135.818 591.232 135.863 591.221 135.896L591.209 135.934L591.205 135.946L591.204 135.951L591.203 135.952C591.203 135.953 591.203 135.954 592.283 136.29Z" fill="#AA7083"/>
<path d="M592.961 116.835C592.961 116.835 585.948 114.346 587.306 106.881C587.306 106.655 595.224 108.691 592.961 116.835Z" fill="#F29EAE"/>
<path fill-rule="evenodd" clip-rule="evenodd" d="M588.425 107.05L588.419 107.083C588.416 107.096 588.414 107.108 588.412 107.121C588.417 107.098 588.421 107.074 588.425 107.05ZM588.273 108.324C588.145 110.926 589.229 112.683 590.417 113.85C591.009 114.431 591.632 114.869 592.156 115.18C592.326 113.964 592.213 112.968 591.954 112.155C591.604 111.054 590.96 110.208 590.233 109.567C589.575 108.985 588.859 108.581 588.273 108.324ZM593.341 115.769L593.341 115.769L593.343 115.77L593.341 115.769ZM592.961 116.835C592.583 117.901 592.583 117.9 592.582 117.9L592.581 117.9L592.578 117.899L592.57 117.896L592.546 117.887C592.527 117.88 592.501 117.87 592.469 117.858C592.406 117.833 592.318 117.797 592.21 117.75C591.993 117.655 591.694 117.514 591.342 117.32C590.641 116.935 589.716 116.333 588.832 115.464C587.039 113.704 585.445 110.865 586.186 106.718C586.243 106.309 586.507 106.043 586.704 105.918C586.894 105.797 587.071 105.763 587.139 105.751C587.293 105.725 587.426 105.734 587.482 105.738C587.622 105.749 587.769 105.778 587.901 105.809C588.178 105.874 588.534 105.986 588.932 106.147C589.729 106.47 590.766 107.019 591.731 107.871C592.701 108.728 593.612 109.905 594.11 111.469C594.609 113.038 594.668 114.919 594.051 117.137L593.727 118.306L592.583 117.901L592.961 116.835Z" fill="#AA7083"/>
<path fill-rule="evenodd" clip-rule="evenodd" d="M62.4611 112.647C66.7307 121.439 70.0616 133.16 66.5001 145.069C62.8609 157.237 62.0081 168.21 62.065 176.143C62.0934 180.109 62.3494 183.317 62.5987 185.537C62.7234 186.647 62.8465 187.509 62.9387 188.096C62.9849 188.39 63.0233 188.614 63.0503 188.766C63.0638 188.842 63.0745 188.9 63.0819 188.94L63.0905 188.985L63.0928 188.997L63.0934 189C63.0935 189 63.0937 189.001 63.6486 188.892L64.2034 188.782L64.2029 188.78L64.2011 188.771L64.1936 188.731C64.1869 188.695 64.1768 188.641 64.1639 188.568C64.1382 188.424 64.1011 188.207 64.0561 187.921C63.9663 187.349 63.8455 186.503 63.7228 185.411C63.4773 183.226 63.2242 180.057 63.1961 176.134C63.1398 168.288 63.9837 157.43 67.5837 145.393C71.2614 133.096 67.8056 121.063 63.4786 112.153C61.3122 107.692 58.9188 103.995 57.0669 101.413C56.1407 100.122 55.3491 99.1083 54.788 98.4162C54.5074 98.0702 54.2843 97.8044 54.1307 97.6244C54.0539 97.5344 53.9945 97.4659 53.9539 97.4194L53.9074 97.3665L53.8951 97.3526L53.8918 97.3488C53.8915 97.3485 53.8903 97.3472 53.4685 97.7239L53.0467 98.1007L53.0495 98.1038L53.0597 98.1154L53.1021 98.1636C53.1398 98.2068 53.1964 98.272 53.2703 98.3586C53.418 98.5318 53.635 98.7903 53.9094 99.1286C54.4581 99.8054 55.236 100.801 56.1478 102.073C57.9721 104.616 60.3293 108.257 62.4611 112.647Z" fill="#AA7083"/>
<path d="M50.7538 87.9964C50.7538 87.9964 43.7409 78.7213 39.2164 82.3409C34.6919 85.9604 35.3706 90.9373 39.2164 92.5209C43.0622 94.1045 48.944 92.5209 48.944 92.5209L50.7538 87.9964Z" fill="white"/>
<path d="M50.7538 87.9964C49.1702 85.5079 47.1342 83.0194 44.1933 81.4359C43.5146 80.9834 42.6098 80.7572 41.7049 80.7572C41.2524 80.7572 40.8 80.7572 40.3475 80.9834C39.8951 80.9834 39.4426 81.2097 38.9902 81.6621C37.4066 82.567 36.5017 83.9243 35.5968 85.5079C34.9182 87.0915 34.6919 89.1275 35.5968 90.711C36.0493 91.6159 36.5017 92.2946 37.1804 92.9733C37.8591 93.6519 38.764 93.8782 39.6689 94.1044C41.2524 94.5568 42.836 94.5568 44.4195 94.3306C46.0031 94.1044 47.5867 93.8782 48.944 93.4257H49.1702V93.1995C49.8489 91.1635 50.5276 89.5799 50.7538 87.9964ZM50.7538 87.9964L48.4916 92.5208L48.944 92.0684C46.0031 92.5208 43.0622 92.747 40.3475 91.8421C39.2164 91.3897 38.0853 90.711 37.6328 89.5799C37.1804 88.4488 37.1804 87.3177 37.6328 85.9603C38.0853 84.8292 38.9902 83.6981 40.1213 83.0194C41.0262 82.3408 42.1573 82.3408 43.5146 82.7932C46.2293 83.9243 48.4916 85.9603 50.7538 87.9964Z" fill="#AA7083"/>
<path d="M52.5637 94.7831C52.5637 94.7831 55.9571 109.94 47.813 111.071C39.669 112.202 42.1575 98.1764 49.1704 94.1044L52.5637 94.7831Z" fill="white"/>
<path d="M52.5637 94.7831C52.7899 98.1764 52.7899 101.796 52.1112 104.963C51.6588 106.547 50.9801 107.904 50.0752 108.809C48.9441 109.714 47.5868 109.94 46.2294 109.714C44.8721 109.488 44.1934 108.583 43.9672 106.999C43.741 105.642 43.741 103.832 44.1934 102.475C44.8721 99.3075 46.6819 96.3666 49.3965 94.3306H49.1703L52.5637 94.7831ZM52.5637 94.7831C51.4326 94.3306 50.3014 94.1044 48.9441 93.652H48.7179C45.5508 95.2355 43.2885 98.4026 42.1574 101.796C41.705 103.606 41.2525 105.416 41.705 107.452C41.9312 108.356 42.1574 109.488 43.0623 110.392L43.5147 111.071L44.1934 111.524C44.6459 111.976 45.0983 111.976 45.777 111.976C47.813 112.202 50.0752 111.75 51.4326 110.392C53.0161 109.035 53.4686 106.999 53.6948 105.189C54.3735 101.57 53.6948 98.1764 52.5637 94.7831Z" fill="#AA7083"/>
<path d="M54.5996 91.3897C54.5996 91.3897 65.6845 88.2226 67.4943 100.891C69.3041 113.56 53.2423 101.117 53.4685 95.0093C53.4685 88.9013 54.5996 91.3897 54.5996 91.3897Z" fill="white"/>
<path d="M54.5996 91.3897C58.6716 90.7111 62.7437 92.0684 64.5534 95.2355C65.4583 96.8191 66.137 98.6289 66.3632 100.439C66.5895 101.344 66.5894 102.248 66.5894 103.153C66.5894 104.058 66.137 104.737 65.9108 104.963C65.4583 105.189 64.7797 105.189 64.101 104.963C63.1961 104.737 62.5174 104.284 61.6125 103.832C60.029 102.927 58.6716 101.57 57.3143 100.212C55.7307 99.0813 54.5996 97.4978 53.921 95.688C53.6947 94.7831 53.6947 93.8782 53.6947 92.7471C53.6947 92.2946 53.6947 91.8422 53.6947 91.3897C53.6947 91.1635 53.6947 90.9373 53.921 90.9373C54.3734 90.9373 54.5996 91.1635 54.5996 91.3897ZM54.5996 91.3897C54.5996 91.1635 54.3734 90.9373 54.1472 90.7111C53.6947 90.7111 53.6947 91.1635 53.6947 91.3897C53.4685 91.8422 53.4685 92.2946 53.2423 92.9733C53.0161 93.8782 52.7898 95.0093 53.0161 96.1404C53.4685 98.4026 54.5996 100.212 55.7307 101.796C57.0881 103.38 58.4454 104.737 60.2552 106.094C61.1601 106.773 62.065 107.225 63.1961 107.452C64.3272 107.678 65.6846 107.904 67.0419 106.999C68.173 106.094 68.6255 104.511 68.6255 103.606C68.6255 102.475 68.6255 101.344 68.3992 100.439C67.9468 98.4026 67.2681 96.3666 65.9108 94.5569C64.5534 92.7471 62.7437 91.616 60.7077 91.1635C58.6716 90.4848 56.4094 90.4848 54.5996 91.3897Z" fill="#AA7083"/>
<path d="M53.4685 88.9013C53.4685 88.9013 58.8979 71.4821 53.2423 69.6723C47.5867 67.8625 46.4556 74.6492 47.8129 83.4719L50.5276 89.5799L53.4685 88.9013Z" fill="white"/>
<path d="M53.4685 88.9013C54.8258 85.7341 55.7307 82.7932 56.4094 79.6261C56.6356 78.0426 56.8618 76.2328 56.8618 74.6492C56.8618 73.0657 56.6356 71.0296 55.2783 69.4461C54.8258 68.9936 54.3734 68.7674 53.9209 68.5412C53.4685 68.315 53.016 68.315 52.5636 68.0887C51.6587 67.8625 50.5276 68.0887 49.6227 68.5412C47.8129 69.6723 47.1342 71.7083 46.908 73.2919C46.4556 76.6852 46.908 79.8523 47.3605 83.2457V83.4719C48.4916 85.5079 49.3965 87.3177 50.5276 89.3537L50.7538 89.5799H50.98C51.6587 89.3537 52.5636 89.1275 53.4685 88.9013ZM53.4685 88.9013L50.7538 89.1275L50.98 89.3537C50.3014 87.3177 49.3965 85.0555 48.7178 83.0195V83.2457C48.4916 80.0786 48.2654 76.9114 48.7178 73.9705C48.944 72.6132 49.6227 71.2559 50.5276 70.8034C50.98 70.351 51.6587 70.351 52.1111 70.351C52.5636 70.351 52.7898 70.5772 53.016 70.5772C53.2423 70.5772 53.4685 70.8034 53.6947 71.0296C54.3734 71.7083 54.8258 73.2919 54.8258 74.8754C54.8258 76.459 54.8258 78.0426 54.8258 79.3999C54.5996 82.567 54.1472 85.7341 53.4685 88.9013Z" fill="#AA7083"/>
<path d="M56.4092 90.9372C56.4092 90.9372 72.6972 87.7701 65.6843 78.2688C58.6714 68.7674 53.2421 89.8061 53.2421 89.8061L56.4092 90.9372Z" fill="white"/>
<path d="M56.4092 90.9373C58.219 90.711 59.8025 90.4848 61.6123 89.8062C63.4221 89.3537 65.0057 88.4488 66.363 87.0915C66.8155 86.8653 67.0417 86.4128 67.2679 85.9604C67.7203 85.7341 67.7203 85.0555 68.1728 84.603C68.1728 84.1506 68.399 83.6981 68.399 83.2457C68.399 82.7932 68.399 82.1146 68.399 81.6621C67.9466 79.6261 67.0417 78.0426 65.6843 76.459C65.0057 75.7803 64.1008 75.1017 62.9697 74.6492C61.8385 74.1968 60.4812 74.6492 59.5763 75.1017C57.7665 76.2328 56.8616 78.0426 55.9567 79.6261C54.5994 83.0195 53.4683 86.1866 53.0159 89.8062V90.2586H53.2421C54.3732 90.4848 55.5043 90.711 56.4092 90.9373ZM56.4092 90.9373C55.5043 90.4848 54.3732 90.0324 53.4683 89.5799L53.6945 90.0324C54.8256 86.639 56.183 83.4719 57.9928 80.531C58.6714 79.1737 59.8025 77.8163 60.9337 77.1377C62.0648 76.459 62.9697 76.9114 64.1008 78.0426C65.2319 79.1737 65.9106 80.7572 66.363 82.1146C66.5892 83.4719 66.1368 84.8292 65.2319 85.9604C64.1008 87.0915 62.7434 87.9964 61.3861 88.9013C59.8025 89.8062 58.219 90.4848 56.4092 90.9373Z" fill="#AA7083"/>
<path d="M51.885 93.652C50.7605 93.652 49.8489 92.7404 49.8489 91.616C49.8489 90.4915 50.7605 89.58 51.885 89.58C53.0094 89.58 53.921 90.4915 53.921 91.616C53.921 92.7404 53.0094 93.652 51.885 93.652Z" fill="white"/>
<path fill-rule="evenodd" clip-rule="evenodd" d="M51.885 90.7111C52.3847 90.7111 52.7898 91.1162 52.7898 91.616C52.7898 92.1157 52.3847 92.5209 51.885 92.5209C51.3852 92.5209 50.9801 92.1157 50.9801 91.616C50.9801 91.1162 51.3852 90.7111 51.885 90.7111ZM55.0521 91.616C55.0521 89.8668 53.6341 88.4489 51.885 88.4489C50.1358 88.4489 48.7178 89.8668 48.7178 91.616C48.7178 93.3651 50.1358 94.7831 51.885 94.7831C53.6341 94.7831 55.0521 93.3651 55.0521 91.616Z" fill="#AA7083"/>
<path d="M67.4943 142.29C67.4943 142.29 63.1961 128.49 47.5867 130.074C47.3605 130.074 48.7178 146.136 67.4943 142.29Z" fill="#F29EAE"/>
<path fill-rule="evenodd" clip-rule="evenodd" d="M65.9338 141.426C62.055 142.047 59.0812 141.731 56.8034 140.936C54.2774 140.054 52.5308 138.556 51.3185 136.944C50.0985 135.322 49.4159 133.577 49.0537 132.23C48.9401 131.807 48.8594 131.429 48.8037 131.113C55.5684 130.74 59.8877 133.48 62.5659 136.359C63.9904 137.89 64.9592 139.472 65.5711 140.672C65.7106 140.946 65.8311 141.199 65.9338 141.426ZM47.7278 131.196C47.7124 131.198 47.6967 131.2 47.6808 131.201L47.7009 131.199C47.7099 131.198 47.7188 131.197 47.7278 131.196ZM67.4943 142.29L68.5743 141.954L68.9461 143.147L67.7213 143.398C62.8726 144.391 59.0541 144.117 56.0578 143.071C53.0555 142.023 50.9563 140.227 49.5105 138.304C48.0724 136.392 47.2845 134.362 46.8691 132.817C46.6609 132.043 46.5427 131.378 46.4841 130.892C46.4551 130.652 46.4388 130.441 46.4358 130.274C46.4344 130.197 46.435 130.094 46.447 129.99C46.4517 129.949 46.4653 129.838 46.5099 129.711C46.5303 129.653 46.5834 129.513 46.701 129.367C46.8146 129.226 47.0776 128.979 47.4943 128.946C55.6891 128.122 60.9945 131.349 64.2221 134.818C65.8234 136.538 66.9048 138.307 67.5866 139.645C67.9282 140.315 68.1715 140.881 68.331 141.284C68.4108 141.486 68.4698 141.647 68.5097 141.761C68.5297 141.818 68.5449 141.863 68.5556 141.896L68.5682 141.934L68.5721 141.946L68.5734 141.951L68.5739 141.952C68.5741 141.953 68.5743 141.954 67.4943 142.29Z" fill="#AA7083"/>
<path d="M66.8157 122.835C66.8157 122.835 73.8286 120.346 72.4713 112.881C72.4713 112.655 64.5535 114.691 66.8157 122.835Z" fill="#F29EAE"/>
<path fill-rule="evenodd" clip-rule="evenodd" d="M71.3524 113.05L71.3584 113.083C71.3606 113.096 71.3629 113.108 71.3651 113.121C71.3602 113.098 71.3559 113.074 71.3524 113.05ZM71.5038 114.324C71.6321 116.926 70.5485 118.683 69.3599 119.85C68.7681 120.431 68.1449 120.869 67.6207 121.18C67.4514 119.964 67.564 118.968 67.8228 118.155C68.1733 117.054 68.8174 116.208 69.5439 115.567C70.2025 114.985 70.9176 114.581 71.5038 114.324ZM66.4364 121.769L66.4356 121.769L66.4345 121.77L66.4364 121.769ZM66.8157 122.835C67.1939 123.901 67.1945 123.9 67.195 123.9L67.1963 123.9L67.1994 123.899L67.2075 123.896L67.2312 123.887C67.2503 123.88 67.276 123.87 67.3077 123.858C67.3711 123.833 67.4589 123.797 67.5672 123.75C67.7836 123.655 68.0834 123.514 68.4353 123.32C69.1359 122.935 70.0609 122.333 70.945 121.464C72.7378 119.704 74.3319 116.865 73.5912 112.718C73.5342 112.309 73.2705 112.043 73.0726 111.918C72.8834 111.797 72.706 111.763 72.6381 111.751C72.4843 111.725 72.3515 111.734 72.295 111.738C72.1552 111.749 72.0079 111.778 71.8762 111.809C71.5994 111.874 71.2434 111.986 70.8448 112.147C70.0479 112.47 69.0113 113.019 68.0463 113.871C67.0761 114.728 66.1649 115.905 65.6671 117.469C65.1677 119.038 65.1095 120.919 65.7258 123.137L66.0505 124.306L67.1939 123.901L66.8157 122.835Z" fill="#AA7083"/>
<path fill-rule="evenodd" clip-rule="evenodd" d="M225.003 106.256C221.814 117.403 222.169 130.368 227.991 142.321C233.743 154.129 234.406 167.753 233.62 178.446C233.228 183.788 232.475 188.39 231.82 191.656C231.493 193.289 231.19 194.587 230.97 195.477C230.859 195.921 230.769 196.264 230.707 196.495C230.676 196.61 230.652 196.698 230.636 196.756L230.617 196.822L230.613 196.838L230.611 196.842C230.611 196.842 230.611 196.843 231.107 196.922C231.604 197 231.604 197 231.604 197L231.606 196.994L231.611 196.977L231.63 196.908C231.647 196.848 231.671 196.759 231.703 196.642C231.766 196.407 231.857 196.061 231.968 195.613C232.19 194.715 232.495 193.409 232.824 191.766C233.483 188.483 234.24 183.857 234.634 178.486C235.422 167.754 234.765 154.013 228.946 142.066C223.196 130.262 222.841 117.441 225.996 106.412C229.155 95.3696 235.812 86.1848 244 81.5997L243.388 81C234.929 85.7368 228.188 95.1207 225.003 106.256Z" fill="#77554A"/>
<path d="M223.071 117.999C223.071 117.999 221.3 103.394 214.375 103.824C207.289 104.326 211.534 116.683 223.071 117.999Z" fill="white"/>
<path fill-rule="evenodd" clip-rule="evenodd" d="M223.417 117.823C223.417 117.823 223.417 117.823 222.801 117.893L223.417 117.823L223.504 118.594L222.733 118.51C216.85 117.865 212.806 114.346 211.145 110.858C210.319 109.124 210.05 107.324 210.537 105.871C211.045 104.36 212.329 103.349 214.289 103.196L214.295 103.196C216.255 103.06 217.81 104.019 219.004 105.412C220.189 106.794 221.065 108.651 221.708 110.471C222.354 112.299 222.78 114.135 223.045 115.51C223.178 116.198 223.27 116.774 223.33 117.179C223.36 117.381 223.381 117.541 223.396 117.65C223.403 117.705 223.408 117.748 223.411 117.777L223.415 117.81L223.416 117.82L223.417 117.823ZM222.074 117.169C222.017 116.797 221.936 116.31 221.827 115.744C221.569 114.406 221.157 112.634 220.538 110.884C219.917 109.125 219.103 107.433 218.062 106.219C217.031 105.016 215.827 104.334 214.383 104.433C212.86 104.552 212.044 105.281 211.713 106.266C211.363 107.309 211.521 108.763 212.265 110.325C213.671 113.277 217.06 116.359 222.074 117.169Z" fill="#AA7083"/>
<path d="M244.754 74.9964C244.754 74.9964 237.741 65.7213 233.216 69.3409C228.692 72.9604 229.371 77.9373 233.216 79.5209C237.062 81.1045 242.944 79.5209 242.944 79.5209L244.754 74.9964Z" fill="white"/>
<path d="M244.754 74.9964C243.17 72.5079 241.134 70.0194 238.193 68.4359C237.515 67.9834 236.61 67.7572 235.705 67.7572C235.252 67.7572 234.8 67.7572 234.347 67.9834C233.895 67.9834 233.443 68.2097 232.99 68.6621C231.407 69.567 230.502 70.9243 229.597 72.5079C228.918 74.0915 228.692 76.1275 229.597 77.711C230.049 78.6159 230.502 79.2946 231.18 79.9733C231.859 80.6519 232.764 80.8782 233.669 81.1044C235.252 81.5568 236.836 81.5568 238.42 81.3306C240.003 81.1044 241.587 80.8782 242.944 80.4257H243.17V80.1995C243.849 78.1635 244.528 76.5799 244.754 74.9964ZM244.754 74.9964L242.492 79.5208L242.944 79.0684C240.003 79.5208 237.062 79.747 234.347 78.8421C233.216 78.3897 232.085 77.711 231.633 76.5799C231.18 75.4488 231.18 74.3177 231.633 72.9603C232.085 71.8292 232.99 70.6981 234.121 70.0194C235.026 69.3408 236.157 69.3408 237.515 69.7932C240.229 70.9243 242.492 72.9603 244.754 74.9964Z" fill="#AA7083"/>
<path d="M246.564 81.7831C246.564 81.7831 249.957 96.94 241.813 98.0712C233.669 99.2023 236.157 85.1764 243.17 81.1044L246.564 81.7831Z" fill="white"/>
<path d="M246.564 81.7831C246.79 85.1764 246.79 88.796 246.111 91.9631C245.659 93.5467 244.98 94.904 244.075 95.8089C242.944 96.7138 241.587 96.94 240.229 96.7138C238.872 96.4876 238.193 95.5827 237.967 93.9991C237.741 92.6418 237.741 90.832 238.193 89.4747C238.872 86.3075 240.682 83.3666 243.397 81.3306H243.17L246.564 81.7831ZM246.564 81.7831C245.433 81.3306 244.301 81.1044 242.944 80.652H242.718C239.551 82.2355 237.288 85.4026 236.157 88.796C235.705 90.6058 235.252 92.4156 235.705 94.4516C235.931 95.3565 236.157 96.4876 237.062 97.3925L237.515 98.0711L238.193 98.5236C238.646 98.976 239.098 98.976 239.777 98.976C241.813 99.2022 244.075 98.7498 245.433 97.3925C247.016 96.0351 247.469 93.9991 247.695 92.1893C248.373 88.5698 247.695 85.1764 246.564 81.7831Z" fill="#AA7083"/>
<path d="M248.6 78.3897C248.6 78.3897 259.685 75.2226 261.494 87.8911C263.304 100.56 247.242 88.1173 247.468 82.0093C247.468 75.9013 248.6 78.3897 248.6 78.3897Z" fill="white"/>
<path d="M248.6 78.3897C252.672 77.7111 256.744 79.0684 258.553 82.2355C259.458 83.8191 260.137 85.6289 260.363 87.4387C260.589 88.3435 260.589 89.2484 260.589 90.1533C260.589 91.0582 260.137 91.7369 259.911 91.9631C259.458 92.1893 258.78 92.1893 258.101 91.9631C257.196 91.7369 256.517 91.2844 255.613 90.832C254.029 89.9271 252.672 88.5698 251.314 87.2124C249.731 86.0813 248.6 84.4978 247.921 82.688C247.695 81.7831 247.695 80.8782 247.695 79.7471C247.695 79.2946 247.695 78.8422 247.695 78.3897C247.695 78.1635 247.695 77.9373 247.921 77.9373C248.373 77.9373 248.6 78.1635 248.6 78.3897ZM248.6 78.3897C248.6 78.1635 248.373 77.9373 248.147 77.7111C247.695 77.7111 247.695 78.1635 247.695 78.3897C247.468 78.8422 247.468 79.2946 247.242 79.9733C247.016 80.8782 246.79 82.0093 247.016 83.1404C247.468 85.4026 248.6 87.2124 249.731 88.796C251.088 90.3796 252.445 91.7369 254.255 93.0942C255.16 93.7729 256.065 94.2253 257.196 94.4516C258.327 94.6778 259.685 94.904 261.042 93.9991C262.173 93.0942 262.625 91.5107 262.625 90.6058C262.625 89.4747 262.625 88.3435 262.399 87.4387C261.947 85.4026 261.268 83.3666 259.911 81.5569C258.553 79.7471 256.744 78.616 254.708 78.1635C252.672 77.4848 250.409 77.4848 248.6 78.3897Z" fill="#AA7083"/>
<path d="M247.469 75.9013C247.469 75.9013 252.898 58.4821 247.242 56.6723C241.587 54.8625 240.456 61.6492 241.813 70.4719L244.528 76.5799L247.469 75.9013Z" fill="white"/>
<path d="M247.468 75.9013C248.826 72.7341 249.731 69.7932 250.409 66.6261C250.636 65.0426 250.862 63.2328 250.862 61.6492C250.862 60.0657 250.636 58.0296 249.278 56.4461C248.826 55.9936 248.373 55.7674 247.921 55.5412C247.468 55.315 247.016 55.315 246.564 55.0887C245.659 54.8625 244.528 55.0887 243.623 55.5412C241.813 56.6723 241.134 58.7083 240.908 60.2919C240.456 63.6852 240.908 66.8523 241.36 70.2457V70.4719C242.492 72.5079 243.396 74.3177 244.528 76.3537L244.754 76.5799H244.98C245.659 76.3537 246.564 76.1275 247.468 75.9013ZM247.468 75.9013L244.754 76.1275L244.98 76.3537C244.301 74.3177 243.396 72.0555 242.718 70.0195V70.2457C242.492 67.0786 242.265 63.9114 242.718 60.9705C242.944 59.6132 243.623 58.2559 244.528 57.8034C244.98 57.351 245.659 57.351 246.111 57.351C246.564 57.351 246.79 57.5772 247.016 57.5772C247.242 57.5772 247.468 57.8034 247.695 58.0296C248.373 58.7083 248.826 60.2919 248.826 61.8754C248.826 63.459 248.826 65.0426 248.826 66.3999C248.6 69.567 248.147 72.7341 247.468 75.9013Z" fill="#AA7083"/>
<path d="M250.409 77.9372C250.409 77.9372 266.697 74.7701 259.684 65.2688C252.671 55.7674 247.242 76.8061 247.242 76.8061L250.409 77.9372Z" fill="white"/>
<path d="M250.409 77.9373C252.219 77.711 253.803 77.4848 255.612 76.8062C257.422 76.3537 259.006 75.4488 260.363 74.0915C260.815 73.8653 261.042 73.4128 261.268 72.9604C261.72 72.7341 261.72 72.0555 262.173 71.603C262.173 71.1506 262.399 70.6981 262.399 70.2457C262.399 69.7932 262.399 69.1146 262.399 68.6621C261.947 66.6261 261.042 65.0426 259.684 63.459C259.006 62.7803 258.101 62.1017 256.97 61.6492C255.839 61.1968 254.481 61.6492 253.576 62.1017C251.767 63.2328 250.862 65.0426 249.957 66.6261C248.599 70.0195 247.468 73.1866 247.016 76.8062V77.2586H247.242C248.373 77.4848 249.504 77.711 250.409 77.9373ZM250.409 77.9373C249.504 77.4848 248.373 77.0324 247.468 76.5799L247.694 77.0324C248.826 73.639 250.183 70.4719 251.993 67.531C252.671 66.1737 253.803 64.8163 254.934 64.1377C256.065 63.459 256.97 63.9114 258.101 65.0426C259.232 66.1737 259.911 67.7572 260.363 69.1146C260.589 70.4719 260.137 71.8292 259.232 72.9604C258.101 74.0915 256.743 74.9964 255.386 75.9013C253.803 76.8062 252.219 77.4848 250.409 77.9373Z" fill="#AA7083"/>
<path d="M245.885 80.652C244.76 80.652 243.849 79.7404 243.849 78.616C243.849 77.4915 244.76 76.58 245.885 76.58C247.009 76.58 247.921 77.4915 247.921 78.616C247.921 79.7404 247.009 80.652 245.885 80.652Z" fill="white"/>
<path fill-rule="evenodd" clip-rule="evenodd" d="M245.885 77.7111C246.385 77.7111 246.79 78.1162 246.79 78.616C246.79 79.1157 246.385 79.5209 245.885 79.5209C245.385 79.5209 244.98 79.1157 244.98 78.616C244.98 78.1162 245.385 77.7111 245.885 77.7111ZM249.052 78.616C249.052 76.8668 247.634 75.4489 245.885 75.4489C244.136 75.4489 242.718 76.8668 242.718 78.616C242.718 80.3651 244.136 81.7831 245.885 81.7831C247.634 81.7831 249.052 80.3651 249.052 78.616Z" fill="#AA7083"/>
</svg>
