<svg width="84" height="69" viewBox="0 0 84 69" fill="none" xmlns="http://www.w3.org/2000/svg">
<g clip-path="url(#clip0_68_4)">
<path d="M52.3979 15L47.3979 24.5L40.8979 30.5C41.8979 26 44.2979 16.6 45.8979 15C47.4979 13.4 50.7313 14.5 52.3979 15Z" fill="#F2A49A"/>
<path d="M46.3979 19.5C47.198 24.3 43.2313 28.1667 41.398 29C41.0646 29 39.998 28.5 38.398 26.5C36.398 24 38.398 20.5 38.398 16.5C38.398 13.3 40.7313 10.5 41.898 9.5C43.898 12.5 45.3979 13.5 46.3979 19.5Z" fill="#BC7D89"/>
<path d="M6.39798 40C4.798 41.2 9.06465 45.5 11.398 47.5C12.2313 46.8333 14.398 44.8 16.398 42C18.398 39.2 23.898 38.8333 26.398 39C24.5646 37.5 20.198 34.5 17.398 34.5C13.898 34.5 8.39796 38.5 6.39798 40Z" fill="#D48389"/>
<path d="M32.398 19.5C40.798 21.9 41.2313 27.8333 40.398 30.5C38.798 30.1 32.398 24 29.3979 21C28.2313 21 25.8979 20.7 25.8979 19.5C25.8979 18.3 30.2313 19 32.398 19.5Z" fill="#FCA9B9"/>
<path d="M57.898 24.5C52.698 32.9 44.398 32 40.898 30.5C43.5647 27.8333 49.898 22.5 53.898 22.5C57.898 22.5 58.2313 23.8333 57.898 24.5Z" fill="#FCA9B9"/>
<path d="M30.3979 48C31.3857 47.2098 35.0646 44.1667 37.3979 43C35.7313 41.8333 30.7979 39.5 24.3979 39.5C16.3979 39.5 14.3979 44.5 12.3979 46C10.3979 47.5 8.39792 48.5 14.3979 51.5C20.3979 54.5 27.8979 50 30.3979 48Z" fill="#FCA9B9"/>
<path d="M14.8979 29.5L18.8979 34C15.6979 33.6 11.8979 36.1667 10.3979 37.5C10.0646 36.8333 9.09792 35.1 7.89792 33.5C6.69792 31.9 6.39792 30.8333 6.39792 30.5C9.19792 27.3 13.2313 28.5 14.8979 29.5Z" fill="#F2ABA9"/>
<path d="M24.8979 28.5C32.8979 30.9 36.2313 38.8333 36.8979 42.5L25.3979 38.5C19.7979 35.7 15.7313 29.6667 14.3979 27C14.5646 26.5 16.8979 26.1 24.8979 28.5Z" fill="#F2A49A"/>
<path d="M4.39792 36C4.39792 35.6 6.73125 34.1667 7.89792 33.5L12.3979 36.5L8.39792 39C7.06458 38.1667 4.39792 36.4 4.39792 36Z" fill="#BC7D89"/>
<path d="M6.00483 39.4047C5.92363 39.4936 5.72416 39.6048 5.56176 39.7825C5.17811 40.3449 5.44521 40.9804 5.5564 41.1799C6.52831 43.4705 7.95914 46.1153 10.3638 47.3022L9.60358 48.2053C9.34526 48.5236 8.95397 48.916 8.93276 49.5815C8.87449 50.1805 9.18629 51.0525 10.6955 51.6492C16.4215 53.9476 22.1812 53.9614 26.4735 51.6557C28.254 50.7067 29.7456 49.3959 31.2078 48.1886C31.7173 47.7738 32.1751 47.3443 32.6846 46.9295C34.6564 45.3074 36.4292 44.1884 38.721 44.0002L38.7728 44.0149C41.6929 43.7815 44.6365 44.45 47.4113 45.9099C46.6576 46.1993 45.8226 46.5776 45.0913 46.9854L44.8918 47.0965C40.0822 49.647 35.5834 52.2857 33.039 56.7108C32.9137 56.955 32.8919 57.2285 33.0031 57.428C33.0996 57.6793 33.3438 57.8046 33.6174 57.8264C35.6361 58.0083 37.5795 57.2735 39.22 56.6204C41.6806 55.6409 44.2448 54.6908 46.5272 53.1569C46.5419 53.1052 46.5937 53.1199 46.6084 53.0681C48.4772 51.8085 50.8184 50.0675 51.1409 48.1447C52.4065 49.0079 53.7756 49.9006 55.2036 50.5861C61.3891 53.6306 69.2034 53.1091 74.965 49.3743C75.1645 49.2631 75.3787 49.1001 75.5929 48.9371C75.94 48.7 76.0206 48.2193 75.7835 47.8722C75.5464 47.525 75.0657 47.4444 74.7186 47.6815C70.7228 50.5191 65.4379 51.5915 60.5938 50.7187C61.9812 48.9866 60.7482 45.055 60.3028 43.8652C59.308 41.0645 57.2788 38.7532 54.8223 37.5517C54.5781 37.4263 54.2898 37.4563 54.0756 37.6193C53.8615 37.7823 53.7361 38.0264 53.7661 38.3148L54.1272 42.5582C54.2925 44.3398 54.443 46.1732 55.1184 47.9319C55.2149 48.1831 55.4226 48.6339 55.682 49.0993C54.3205 48.3767 52.9885 47.5505 51.7229 46.6873C51.0198 46.2078 50.3167 45.7282 49.5471 45.2857C47.622 43.3957 45.704 41.284 44.1478 38.8833C42.6805 36.5638 41.7527 34.1179 41.4092 31.782C41.5128 31.8114 41.6163 31.8409 41.7717 31.885C47.2889 32.949 53.2675 31.0106 57.1063 26.9532C58.3096 25.6724 58.6774 24.378 58.2026 23.2918C57.6537 22.0727 56.2186 21.6089 54.1711 21.9225C52.3453 22.2431 50.5937 22.6966 49.005 23.3644L51.9471 17.9331C52.3084 17.2524 52.6845 16.5199 52.9569 15.7579C53.0157 15.5508 53.2441 14.9442 52.9475 14.4123C52.7252 14.0134 52.3774 13.8586 52.2221 13.8145C50.3946 12.9595 48.1841 13.0588 46.3518 13.9931C45.6017 11.7096 44.4086 9.80374 42.8241 8.29036C42.5058 8.03205 42.0622 8.0179 41.7668 8.26972C38.3482 11.4392 36.5363 16.2403 36.9127 20.8238C35.5583 19.8794 33.8714 19.1203 31.7262 18.3989C28.7526 17.442 26.5273 17.5931 25.0728 18.9705C24.9104 19.1482 24.7851 19.3923 24.8298 19.6289C24.8745 19.8654 25.0374 20.0796 25.2816 20.2049C28.3594 21.583 31.157 23.5531 33.534 26.0191C33.7858 26.3144 34.0894 26.6245 34.3559 26.8681C35.8962 28.5369 37.4883 30.2203 39.7812 30.8158C39.9629 33.7213 41.0024 36.7585 42.8698 39.6393C43.7294 40.9467 44.6702 42.1653 45.6774 43.3468C43.4952 42.5589 41.2323 42.2517 38.9552 42.3881C38.5851 42.115 38.2004 41.8938 37.8673 41.6873C37.7986 40.1569 37.2491 38.5459 36.1595 36.6695C31.7352 29.5928 23.3444 25.2502 15.1383 25.7723C14.9017 25.817 14.2216 25.8476 13.9044 26.373C13.4913 27.039 13.8473 27.7557 13.9585 27.9552C14.0326 28.0882 14.1067 28.2211 14.1809 28.3541C13.2636 28.0375 12.3022 27.8763 11.5037 27.9292C9.90687 28.035 8.3847 28.6657 7.15084 29.2664C5.59925 30.0006 5.48977 30.9767 5.57918 31.4498C5.63153 31.8564 5.86863 32.2035 6.12045 32.4989C6.37226 32.7943 6.62407 33.0897 6.92767 33.3998L4.58585 34.7488C3.78799 35.1936 3.72971 35.7926 3.79677 36.1474C3.82677 36.4357 4.00445 36.5981 4.07858 36.731C4.81931 37.669 5.77422 38.4439 6.85447 38.9747L6.00483 39.4047ZM58.7436 44.4294C59.486 46.5429 59.9113 49.1818 59.2246 49.8261C59.1434 49.9149 59.0622 50.0038 58.944 50.0261C58.8576 46.5882 57.8028 43.2108 56.0019 40.293C57.2457 41.4298 58.1941 42.8184 58.7436 44.4294ZM58.5662 49.583C58.4921 49.4501 58.3809 49.2506 58.3068 49.1176C57.8249 48.2533 57.306 47.3224 57.0754 46.3616C56.7783 45.4378 56.5995 44.4917 56.3689 43.5309C56.1159 42.4518 55.8777 41.3209 55.5065 40.2641C57.3515 43.0267 58.384 46.2858 58.5662 49.583ZM55.4505 42.4305L55.3152 40.9372C55.5605 41.8463 55.7541 42.7406 55.9623 43.5832C56.1929 44.544 56.4235 45.5049 56.6689 46.4139C56.9512 47.3895 57.4701 48.3203 57.9373 49.2365C58.0855 49.5024 58.1967 49.7019 58.345 49.9678C57.6125 49.5918 56.6494 48.255 56.3523 47.3312C55.7587 45.8755 55.6452 44.1086 55.4505 42.4305ZM45.6437 20.227C45.6372 20.8407 45.616 21.5061 45.6095 22.1198C45.5954 22.5634 45.3671 23.17 45.087 23.7619C45.1752 23.4513 45.2264 23.0741 45.2629 22.7488C45.4465 21.9056 45.5266 21.0331 45.6437 20.227ZM54.2545 23.4011C54.7276 23.3117 56.2874 23.1393 56.6433 23.856C56.9622 24.5062 56.1873 25.4611 55.8107 25.8017C52.3856 29.5849 46.9094 31.3304 41.9247 30.3617C41.8212 30.3323 41.7176 30.3028 41.6141 30.2734C42.1454 29.585 42.7803 28.9261 43.4522 28.3336L43.5187 28.2965C43.7847 28.1483 44.0801 27.8965 44.3384 27.5782C46.9897 25.5336 50.3665 24.087 54.2545 23.4011ZM51.3812 15.1983L51.3665 15.2501C51.1235 15.9085 50.7769 16.5375 50.4303 17.1664L46.5591 24.2921L46.5444 24.3439C46.4779 24.381 46.4779 24.381 46.4114 24.418C46.8021 23.6338 47.0375 22.8053 47.0958 22.2063C47.2771 19.7958 47.0889 17.504 46.5536 15.4494C47.9792 14.5674 49.7979 14.4687 51.3812 15.1983ZM45.4926 18.0017C45.3248 19.5768 45.1718 21.1001 44.8858 22.6976C44.7539 23.5554 44.5409 24.5021 44.1873 25.3529C43.8848 25.8265 43.5453 26.2337 43.2205 26.589C43.0875 26.6632 42.9916 26.8038 42.8586 26.8779C43.3223 25.4429 43.5124 23.986 43.6437 22.7363C43.9781 18.8024 43.7505 14.8767 42.9835 11.0775C44.3096 12.9092 45.2003 15.2887 45.4926 18.0017ZM40.1168 12.5013C39.9773 13.1891 39.9267 13.9581 39.8537 14.6089C39.7029 17.6996 39.7075 20.8345 39.8821 23.9618C39.4968 23.3487 39.0449 22.7726 38.4748 22.2189C37.7824 18.9446 38.4427 15.439 40.1168 12.5013ZM39.9196 29.3443C38.1074 28.8294 36.7818 27.3895 35.3156 25.8538C35.012 25.5437 34.7602 25.2483 34.4566 24.9383C32.2944 22.7011 29.7927 20.8712 27.055 19.4778C28.0306 19.1954 29.3986 19.3043 31.0778 19.8933C33.2748 20.6295 34.8951 21.4256 36.2495 22.37C37.8705 23.5581 38.9966 25.1091 39.4796 26.7572C39.606 27.2967 39.7325 27.8363 39.7925 28.4129C39.8225 28.7012 39.9043 29.0042 39.9713 29.359C39.986 29.3072 39.9343 29.2925 39.9196 29.3443ZM41.33 28.1223C41.2182 27.5309 41.1211 26.8878 40.9576 26.2818C40.8311 25.7422 40.5864 25.2251 40.3269 24.7596C40.1076 21.3959 40.0583 18.0244 40.2826 14.6748C40.318 13.5657 40.4716 12.4342 40.8694 11.4281C41.2383 10.9174 41.6737 10.3696 42.1462 9.88837C42.2721 10.0361 42.3981 10.1838 42.4722 10.3167C43.3875 14.3819 43.6598 18.5441 43.3183 22.6998C43.1947 24.1196 42.9458 25.7835 42.3196 27.3963C42.0096 27.6998 41.6477 27.9887 41.3229 28.3441C41.3523 28.2405 41.3152 28.1741 41.33 28.1223ZM45.4778 48.3822L45.6772 48.271C46.3939 47.9151 48.1891 46.9143 49.0322 47.0979C49.1358 47.1273 49.1728 47.1938 49.2764 47.2232C48.938 48.4141 47.7859 49.3178 46.5597 50.0885C46.545 50.1403 46.4932 50.1256 46.4932 50.1256C44.425 51.4964 42.2309 52.7196 40.0515 53.891C39.3348 54.2469 38.5664 54.5881 37.7461 54.9147C36.8594 55.2782 35.9062 55.6789 35.0566 56.109C37.5656 52.7929 41.3996 50.5249 45.4778 48.3822ZM45.6824 51.7977C43.4812 53.2427 41.0205 54.2223 38.5746 55.15C37.8726 55.4542 37.1336 55.6919 36.3428 55.9148C36.86 55.6701 37.3625 55.4771 37.8797 55.2324C38.6999 54.9059 39.5201 54.5794 40.2515 54.1716C42.4827 53.015 44.6398 51.7253 46.7598 50.3692C46.7745 50.3174 46.8262 50.3321 46.841 50.2804C48.0007 49.5467 49.0863 48.6801 49.58 47.5333C49.6623 48.2282 49.1763 49.545 45.6824 51.7977ZM12.626 36.9774C13.6527 36.3178 14.6795 35.6583 15.8621 35.4348C17.8727 35.0548 19.9149 36.1386 22.0312 37.3555C22.6455 37.7539 23.208 38.1375 23.8222 38.5359C23.1938 38.5812 22.4989 38.6635 21.8411 38.8123C21.3681 38.9017 20.895 38.9912 20.4737 39.0953C18.3362 38.5439 16.0003 38.8874 13.9086 39.3562C13.369 39.4827 12.8295 39.6092 12.2899 39.7357C10.6048 40.1522 9.10437 40.5093 7.35924 40.3491L12.626 36.9774ZM15.533 27.7311C16.8051 27.9806 18.0624 28.2819 19.2533 28.6203C21.9457 29.3853 24.0615 30.2103 25.8077 31.1541C29.182 33.0642 32.0032 35.9362 33.7752 39.3494C31.4424 36.7281 27.661 34.4786 24.4644 32.7309C23.5913 32.259 22.7181 31.7871 21.8968 31.3299C19.6992 30.2019 17.6199 29.0515 15.533 27.7311ZM21.7273 31.7294C22.6004 32.2013 23.4218 32.6585 24.2949 33.1304C27.4915 34.8781 31.31 37.1941 33.6428 39.8154C31.5123 39.0422 29.2418 38.5649 26.9718 38.4795C25.5291 37.8458 24.1453 37.0049 22.8945 36.0899C20.0597 34.0534 17.7122 31.4839 15.9554 28.4107C17.7982 29.6058 19.7368 30.6602 21.7273 31.7294ZM14.0914 43.0454C13.463 43.0907 12.7752 42.9512 12.1909 42.8411C10.2828 42.4669 8.5224 41.9667 7.35981 40.741C9.2085 40.9305 10.7754 40.5364 12.4605 40.1199C13.0001 39.9934 13.4878 39.8522 14.0792 39.7405C15.8679 39.3534 17.9154 39.0399 19.7865 39.3477C18.9957 39.5706 18.2937 39.8748 17.6288 40.2454C16.2473 40.972 15.1176 41.994 14.0914 43.0454ZM7.24212 41.1552C8.47119 42.3438 10.2463 42.7922 12.0879 43.2036C12.5686 43.2842 13.1382 43.446 13.7001 43.4378C13.1464 44.0079 12.6445 44.5928 12.2091 45.1405L11.3823 46.0807C9.42189 45.2999 8.13225 43.1428 7.24212 41.1552ZM31.6403 45.6815C31.1308 46.0963 30.6212 46.5111 30.1487 46.9924C28.6718 48.2514 27.3279 49.4364 25.6804 50.3112C21.8017 52.3427 16.5522 52.306 11.2257 50.177C10.619 49.9487 10.419 49.6681 10.4337 49.6163C10.4631 49.5127 10.6403 49.2833 10.7362 49.1426L13.3269 46.1297C14.6556 44.6046 15.9842 43.0796 17.6388 41.9829C17.853 41.82 18.0524 41.7088 18.3037 41.6123C19.3528 41.071 20.5943 40.6404 22.1317 40.3498C27.0324 39.448 32.2019 40.3573 36.5381 42.8204C34.8236 43.3405 33.302 44.363 31.6403 45.6815ZM34.6967 37.4849C35.4675 38.7111 35.8905 39.7826 36.1064 40.7952C35.618 40.5445 35.1149 40.3456 34.6119 40.1467C32.8169 36.2233 29.7734 32.9524 25.9996 30.8729C24.2162 29.8626 22.1004 29.0376 19.3563 28.2578C18.0101 27.8753 16.6492 27.5446 15.2735 27.2656C22.9549 26.8182 30.7537 30.8807 34.6967 37.4849ZM7.70739 30.6556C8.86005 30.1437 10.1975 29.5725 11.5725 29.4596C12.7775 29.3543 14.7527 30.0834 15.6782 30.9619C16.4413 32.0181 17.2561 33.0889 18.1151 34.0045C17.272 33.8209 16.3847 33.7926 15.5051 33.9344C14.0859 34.2026 12.7932 35.0104 11.7517 35.7217L10.8579 36.3071C10.3532 34.9326 9.36825 33.8694 8.36863 32.8579C7.92442 32.4519 7.5467 32.0088 7.16898 31.5658C7.04307 31.4181 6.96894 31.2851 6.96894 31.2851C6.99837 31.1816 7.1237 30.9374 7.70739 30.6556ZM8.28722 37.8709C7.14813 37.5473 6.11202 36.8612 5.34187 36.0268L7.89786 34.5148C8.66801 35.3491 9.33461 36.1541 9.55051 37.1667L8.37606 37.9521C8.339 37.8856 8.339 37.8856 8.28722 37.8709Z" fill="#6D6D6D"/>
</g>
<defs>
<clipPath id="clip0_68_4">
<rect width="50.6507" height="72.8272" fill="white" transform="translate(0 48.7221) rotate(-74.1382)"/>
</clipPath>
</defs>
</svg>
