<svg width="287" height="490" viewBox="0 0 287 490" fill="none" xmlns="http://www.w3.org/2000/svg">
<path d="M97.0001 114.5C92.6001 106.5 104.167 87.6667 110 78.5L123 220.5L89.5 251.5C89.5 246 84.5 241.5 79 229C73.5 216.5 81 211 81.5 202.5C82 194 80.5 188 76.5 180C72.5 172 77 168 84.5 163.5C92 159 89.5 154 87 147.5C84.5 141 85 130.5 89.5 130.5C94 130.5 102.5 124.5 97.0001 114.5Z" fill="#6B4B41" stroke="#77554A" stroke-width="3"/>
<path d="M204.68 194.861C204.68 194.861 195.988 207.894 199.519 222.828C203.05 237.763 192.729 255.684 192.729 255.684L178.877 239.392C178.877 239.392 194.902 225.272 191.643 188.344L204.68 194.861Z" fill="#6B4B41"/>
<path d="M193.001 258.127L176.976 239.392L178.062 238.577C178.334 238.306 193.544 224.186 190.285 188.615L190.013 186.172L206.853 194.046L206.038 195.404C206.038 195.404 197.618 208.166 201.149 222.285C204.68 237.763 194.63 255.412 194.359 256.227L193.001 258.127ZM180.507 239.663L192.458 253.511C194.902 248.624 200.877 235.047 198.161 223.371C195.174 210.609 200.606 199.477 202.779 195.675L193.001 191.059C195.174 221.471 184.038 235.862 180.507 239.663Z" fill="#77554A"/>
<path d="M179.963 184.271L168.827 234.504L185.124 244.279L202.236 184.271H179.963Z" fill="#6B4B41"/>
<path d="M185.939 246.452L167.469 235.047L178.877 182.913H204.137L185.939 246.452ZM170.457 233.69L184.309 242.107L200.606 185.628H181.05L170.457 233.69Z" fill="#77554A"/>
<path d="M115.32 227.173C115.32 227.173 60.7261 271.704 32.207 357.78C3.68781 443.855 9.93487 443.041 18.0832 449.014C26.2315 454.988 29.4909 463.405 58.2816 464.763C87.0724 466.121 82.9982 478.34 103.097 479.154C123.197 479.969 162.58 464.492 174.531 470.737C186.482 476.982 240.261 471.28 242.977 457.16C245.693 443.312 256.829 447.385 274.484 441.14C292.139 434.895 213.372 250.796 176.432 225.001" fill="white"/>
<path d="M104.727 480.512C104.184 480.512 103.641 480.512 102.826 480.512C93.3195 479.969 88.9737 477.254 84.3563 474.267C78.9241 470.737 73.4919 466.935 58.01 466.392C34.1083 465.306 27.318 459.333 21.3425 453.902C19.9845 452.544 18.6264 451.458 17.2684 450.372L16.1819 449.557C8.03359 443.855 3.68781 440.868 31.1205 357.78C59.0965 272.247 113.962 226.901 114.505 226.358L116.135 228.531C115.592 229.074 61.2694 273.876 33.565 358.594C6.94714 439.782 11.0213 442.769 17.54 447.385L18.6264 448.2C20.2561 449.286 21.6141 450.644 22.9722 451.73C28.9476 456.889 35.1947 462.591 58.01 463.677C74.0351 464.492 80.2821 468.565 85.7144 472.095C90.0601 475.081 93.8627 477.525 102.826 478.068C111.246 478.34 123.74 475.624 135.962 472.909C152.259 469.379 167.741 465.849 174.803 469.651C183.494 474.267 217.717 471.823 233.471 464.22C238.088 462.048 240.804 459.604 241.348 457.16C243.249 446.842 250.039 445.484 259.274 443.584C263.62 442.769 268.237 441.955 273.669 439.782C274.484 439.511 275.027 437.882 275.027 436.795C278.83 407.742 207.668 248.895 175.074 226.087L176.704 223.914C195.174 236.676 222.335 286.367 241.619 328.726C260.36 369.727 279.916 421.318 277.743 437.067C277.472 440.054 276.385 441.683 274.484 442.226C268.78 444.127 263.891 445.213 259.545 446.027C250.582 447.657 245.693 448.743 243.792 457.432C243.249 460.69 239.989 463.949 234.557 466.392C218.532 473.995 183.766 477.254 173.445 471.823C167.198 468.565 151.444 472.095 136.506 475.353C125.098 477.797 113.419 480.512 104.727 480.512Z" fill="#CECECE"/>
<g clip-path="url(#clip0_92_14)">
<path d="M114.744 227.655C114.744 227.655 47.3634 268.146 18.0432 357.281C-11.2771 446.417 5.35653 451.197 13.8143 457.383C22.2721 463.569 25.6552 472.285 55.5392 473.691C85.4233 475.097 81.1945 487.751 102.057 488.594C122.919 489.438 163.799 473.41 176.203 479.877C188.608 486.345 244.429 480.44 247.248 465.818C250.068 451.478 261.627 455.696 279.952 449.228C298.277 442.761 276.287 281.362 177.613 225.125" fill="white"/>
<path d="M103.749 490C103.185 490 102.621 490 101.775 490C91.9076 489.438 87.3968 486.626 82.6041 483.533C76.9656 479.877 71.3271 475.941 55.2573 475.378C30.4479 474.254 23.3998 468.068 17.1974 462.444C15.7878 461.038 14.3782 459.913 12.9685 458.789C12.4047 458.507 12.1228 458.226 11.5589 457.664C2.5373 451.478 -11.277 441.918 16.6336 356.719C45.9538 268.146 113.334 226.812 114.18 226.531L115.589 229.061C115.026 229.342 48.2092 270.114 19.4528 357.562C-7.89393 440.793 5.35656 449.791 13.2505 455.133C13.8143 455.414 14.3782 455.696 14.6601 456.258C16.3516 457.383 17.7613 458.789 19.1709 459.913C25.3733 465.256 31.8575 471.161 55.5393 472.285C72.1729 473.129 78.6572 477.347 84.2957 481.002C88.8065 484.095 92.7534 486.626 102.057 487.188C110.797 487.469 123.765 484.658 136.452 481.846C153.367 478.19 169.437 474.535 176.767 478.471C185.789 483.252 221.311 480.721 237.663 472.848C242.456 470.598 245.275 468.068 245.839 465.537C247.812 454.852 254.86 453.446 264.446 451.478C268.957 450.634 273.749 449.791 279.388 447.541C281.643 446.698 283.335 441.918 283.899 434.607C287.282 394.679 260.781 274.051 177.049 226.531L178.459 224C263.318 272.082 290.101 394.397 286.718 434.888C285.872 443.886 283.617 448.947 280.234 450.353C274.313 452.321 269.239 453.446 264.728 454.29C255.424 455.977 250.35 457.101 248.376 466.099C247.812 469.474 244.429 472.848 238.791 475.378C222.157 483.252 186.071 486.626 175.358 481.002C168.873 477.628 152.522 481.283 137.016 484.658C125.175 487.188 112.77 490 103.749 490Z" fill="#CECECE"/>
<path d="M172.256 476.503C172.538 467.786 173.102 458.789 173.102 450.072C173.384 441.355 173.384 432.357 173.666 423.641C173.666 405.926 173.666 388.211 172.82 370.778C172.256 353.063 170.847 335.63 169.155 317.915C168.309 309.199 167.182 300.482 166.054 291.765C165.208 283.049 163.235 274.332 161.825 265.615C166.054 282.767 169.155 300.201 171.411 317.915C173.384 335.63 174.794 353.063 175.639 370.778C176.203 388.493 176.485 406.207 175.921 423.922C175.076 441.074 174.23 458.789 172.256 476.503Z" fill="#CECECE"/>
<path d="M250.068 458.789C250.068 458.789 227.232 327.476 199.039 281.362L250.068 458.789Z" fill="white"/>
<path d="M250.068 458.789L244.993 436.294C243.302 428.702 241.61 421.11 239.918 413.799C236.535 398.896 232.87 383.712 228.923 368.81C225.258 353.907 221.029 339.004 216.237 324.383C211.444 309.761 206.369 295.14 199.039 281.643C201.013 285.017 202.986 288.391 204.96 291.765L210.034 302.169L214.263 312.854C215.673 316.51 216.801 320.165 218.21 323.82C223.285 338.442 227.514 353.345 231.461 368.247C235.126 383.15 238.791 398.334 241.892 413.518C244.993 428.14 247.812 443.323 250.068 458.789Z" fill="#CECECE"/>
<path d="M72.1729 473.691C71.0452 457.945 71.0452 441.918 71.891 426.171C72.4548 410.425 74.1464 394.679 76.1198 378.932C78.3752 363.186 81.1945 347.721 85.1415 332.256C88.8065 316.791 93.8811 301.888 99.5196 286.985L96.1365 298.233L94.445 303.856L93.0354 309.48L89.9342 321.008L87.3969 332.537C86.5511 336.474 85.7053 340.129 84.8595 344.066C84.0138 348.002 83.168 351.658 82.6041 355.594C81.1945 363.467 80.0668 371.059 78.9391 378.932C76.6837 394.397 74.9921 410.144 73.8644 425.89C73.3006 433.763 72.7367 441.636 72.4548 449.51C72.1729 457.945 72.1729 465.818 72.1729 473.691Z" fill="#CECECE"/>
</g>
<path d="M200.877 60.4523C200.877 60.4523 215.816 75.6581 216.088 94.3938C216.359 113.13 214.186 148.7 214.186 148.7L172.901 146.256L193.001 111.5C193.001 111.5 213.643 74.0289 200.877 60.4523Z" fill="#6B4B41"/>
<path d="M215.273 150.329L170.457 147.614L191.643 110.957C191.914 110.686 211.742 74.3005 199.791 61.5385L201.692 59.6378C202.235 60.1808 217.174 75.3866 217.174 94.6653C217.174 113.401 215.273 148.7 215.273 148.972V150.329ZM175.074 144.899L212.828 147.342C213.1 140.554 214.73 111.229 214.458 94.6653C214.458 84.6187 209.841 75.6581 206.038 69.4129C208.211 86.2478 194.902 110.957 194.087 112.043L175.074 144.899Z" fill="#77554A"/>
<path d="M177.791 224.729V221.742C176.432 212.782 179.692 206.808 182.136 198.119L184.038 191.602L147.37 209.523L143.024 225.001L177.791 224.729Z" fill="white"/>
<path d="M141.123 226.358L146.284 208.437L186.21 188.887L183.494 198.39C182.951 200.563 182.408 202.463 181.593 204.093C179.692 209.795 178.062 214.682 179.149 221.199V225.815L141.123 226.358ZM148.728 210.609L144.926 223.914L176.704 223.643V222.014C175.618 215.225 177.247 209.795 179.42 203.821C179.963 201.92 180.507 200.02 181.321 198.119L182.408 194.589L148.728 210.609Z" fill="#CECECE"/>
<path d="M118.036 137.567C118.036 137.567 110.974 145.985 106.357 147.343C101.739 148.7 88.1589 153.316 87.344 162.005C86.2576 172.595 87.344 180.198 88.1589 188.344C88.9737 195.675 91.6898 205.993 99.2949 221.742C110.431 244.551 115.048 240.206 115.048 240.206C115.048 240.206 123.468 236.405 128.629 233.69C132.703 231.517 148.185 223.914 165.025 204.636C165.025 204.636 179.42 205.45 183.766 201.106C188.383 196.49 192.186 191.602 192.186 191.602" fill="#FFE4D4"/>
<path d="M118.036 137.567C116.406 139.74 114.505 141.64 112.604 143.541C110.703 145.442 108.53 147.071 105.814 147.886C100.925 149.515 95.764 151.687 91.9614 155.217C90.0601 156.846 88.4305 159.018 88.1589 161.462C87.8872 163.906 87.8873 166.621 87.8873 169.337C87.8873 174.767 88.4305 179.926 88.9737 185.085C89.7885 195.675 93.5911 205.722 97.9369 215.225C100.11 220.113 102.554 224.729 105.27 229.345C106.628 231.517 107.986 233.69 109.616 235.59C110.431 236.676 111.246 237.491 112.332 238.034C112.875 238.306 113.419 238.577 113.69 238.577C113.962 238.849 114.505 238.577 114.505 238.577L114.777 238.306C124.012 233.961 133.518 229.617 141.666 223.915C150.086 218.212 157.691 211.153 164.482 203.55L164.753 203.278H165.025C167.741 203.55 170.457 203.55 172.902 203.278C175.618 203.007 178.334 202.735 180.778 201.92C183.223 201.106 184.852 198.934 186.754 197.033C188.655 195.132 190.556 193.231 192.186 191.059C190.556 193.231 188.927 195.132 187.025 197.304C186.21 198.391 185.124 199.205 184.309 200.291C183.494 201.377 182.136 202.192 180.778 202.735C178.334 203.821 175.618 204.364 172.902 204.636C170.185 204.907 167.469 204.907 164.753 204.907L165.296 204.636C158.506 212.51 150.901 219.842 142.481 225.815C134.061 232.06 124.555 236.405 115.32 240.749L115.592 240.478C114.234 241.293 113.419 241.293 112.604 241.021C111.789 240.749 110.974 240.478 110.431 239.935C109.073 239.12 108.258 238.034 107.172 236.948C105.27 234.776 103.641 232.603 102.283 230.16C99.5665 225.544 97.122 220.656 94.9491 215.769C90.6034 205.993 86.8008 195.675 86.2576 184.814C85.7144 179.383 85.4427 173.953 85.4427 168.794C85.4427 166.078 85.7144 163.363 85.986 160.648C86.5292 157.661 88.4305 155.217 90.3318 153.588C94.6775 150.058 99.8381 148.157 104.999 146.528C107.443 145.985 109.616 144.356 111.789 142.455C114.234 141.64 116.135 139.74 118.036 137.567Z" fill="#D1AFAC"/>
<path d="M124.012 59.3662C124.012 59.3662 107.986 99.5529 109.616 118.017C111.246 136.481 125.641 150.872 150.629 148.7C175.618 146.528 192.729 111.772 192.729 111.772C192.729 111.772 214.73 74.0289 199.519 59.6378C184.309 44.7035 147.642 28.4116 124.012 59.3662Z" fill="#FFE4D5"/>
<path d="M124.012 59.3662C119.666 71.8567 115.592 84.6187 112.604 97.3807C111.246 103.897 110.159 110.414 110.431 116.931C110.974 123.448 113.147 129.693 116.95 134.852C120.752 140.011 126.456 143.813 132.431 145.713C138.407 147.614 145.197 148.157 151.444 147.342C157.691 146.528 163.667 143.541 168.827 139.468C173.988 135.395 178.334 130.779 182.408 125.348C186.482 120.189 189.741 114.487 193.001 108.785C195.988 103.083 198.705 96.8376 200.877 90.8639C202.779 84.6187 204.408 78.1019 203.865 71.8567C203.594 68.5983 202.779 65.6114 201.149 62.8961C200.334 61.5385 199.248 60.4523 198.161 59.3662C197.075 58.2801 195.717 57.194 194.359 56.1078C184.038 48.2334 171.272 42.8028 158.235 42.5312C151.716 42.5312 145.197 43.6173 139.222 46.8757C133.246 49.8626 128.357 54.2071 124.012 59.3662ZM124.012 59.3662C128.086 54.2071 132.975 49.3195 138.679 46.0612C144.654 42.8028 151.173 41.1736 157.963 41.1736C164.753 41.1736 171.272 42.5312 177.791 44.975C184.038 47.4188 190.013 50.6772 195.445 54.4786C196.803 55.5648 198.161 56.6509 199.248 57.737C200.606 58.8231 201.692 60.1808 202.779 61.5385C204.68 64.5253 205.766 68.0552 206.038 71.3136C206.581 78.1019 204.952 84.8902 203.05 91.407C200.877 97.9237 198.433 103.897 195.174 109.871C192.186 115.845 188.655 121.547 184.581 126.978C180.507 132.408 175.889 137.296 170.457 141.369C165.025 145.442 158.778 148.7 151.987 149.515C145.197 150.329 138.407 149.786 131.888 147.614C125.37 145.442 119.394 141.369 115.32 135.938C111.246 130.508 109.073 123.719 108.801 116.931C108.53 110.143 109.888 103.626 111.517 97.1091C114.777 84.0756 119.123 71.5851 124.012 59.3662Z" fill="#B69079"/>
<path d="M125.098 111.229C124.012 113.944 120.752 115.03 117.764 113.944C114.777 112.858 113.147 109.6 114.234 107.156C115.32 104.44 118.579 103.354 121.567 104.44C124.555 105.527 126.184 108.513 125.098 111.229Z" fill="url(#paint0_radial_92_14)"/>
<path d="M166.654 129.421C165.568 132.137 161.494 132.951 157.42 131.322C153.346 129.693 150.901 126.435 151.987 123.719C153.074 121.004 157.148 120.189 161.222 121.819C165.296 123.448 167.741 126.706 166.654 129.421Z" fill="url(#paint1_radial_92_14)"/>
<path d="M124.012 116.931C125.913 119.918 128.357 122.362 131.345 123.991C132.703 124.805 134.333 125.62 135.962 125.891C137.592 126.435 139.222 126.706 140.851 126.706L143.568 126.978L141.938 128.878C140.58 130.508 138.95 131.594 137.32 132.951C135.691 134.037 133.246 134.852 131.073 134.309C129.987 134.037 128.901 133.223 128.086 132.408C127.542 131.322 127.271 130.236 126.999 129.421C126.728 127.521 126.999 125.077 128.357 123.719C127.271 125.348 127.542 127.249 128.357 128.878C128.901 130.779 129.715 131.865 131.345 132.137C132.703 132.408 134.333 131.594 135.691 130.779C137.049 129.964 138.407 128.607 139.765 127.249L140.58 129.421C138.679 129.15 136.777 128.878 135.148 128.335C133.518 127.792 131.617 126.706 130.259 125.62C128.629 124.534 127.542 123.176 126.456 121.547C125.37 120.189 124.555 118.56 124.012 116.931Z" fill="#B69079"/>
<path d="M132.975 112.858C134.876 113.129 135.962 113.401 136.777 113.401C137.049 113.401 137.321 113.401 137.864 113.13C138.407 112.858 138.95 112.315 139.493 111.772C139.765 112.586 139.765 113.673 139.493 114.487C139.222 115.302 137.864 116.116 136.777 116.116C135.691 116.116 134.876 115.573 134.061 115.03C133.79 114.487 133.246 113.673 132.975 112.858Z" fill="#B69079"/>
<path d="M165.568 96.023C167.198 96.023 168.013 96.5661 168.827 97.6522C169.099 98.1953 169.371 98.7383 169.642 99.2814C169.642 99.8244 169.642 100.639 169.099 101.182C168.556 100.639 168.013 100.367 167.741 100.096C167.469 99.8244 166.926 99.2814 166.655 99.0098C166.111 98.4668 165.568 97.6522 165.568 96.023Z" fill="#B69079"/>
<path d="M150.242 107.485C152.678 108.277 154.654 109.463 156.564 110.386L162.688 113.616C160.119 114.536 157.418 113.811 155.443 112.625C154.455 112.031 153.401 111.175 152.348 110.318C151.624 109.659 150.768 108.473 150.242 107.485Z" fill="#B69079"/>
<path d="M119.666 92.2216C121.295 93.0362 122.382 94.1223 123.197 95.2084C123.74 95.7514 124.012 96.2945 124.283 97.1091C124.555 97.6522 125.457 98.4569 126 99C125.185 99.543 123.468 99.0098 122.653 98.7383C121.839 98.1952 121.295 97.6522 120.752 97.1091C120.209 95.4799 119.666 94.1223 119.666 92.2216Z" fill="#B69079"/>
<path d="M126.184 79.188C127.271 78.1019 128.357 77.8304 129.172 77.8304C130.259 77.8304 131.345 78.1019 132.16 79.188C131.073 80.2742 129.987 80.5457 129.172 80.5457C128.086 80.5457 126.999 80.2742 126.184 79.188Z" fill="#B69079"/>
<path d="M198.149 58.6509L225.582 36.6568L205.754 38.829L205.211 18.7357L190.001 24.1663L189.186 5.15912L169.086 42.359" fill="white"/>
<path d="M199.235 59.737L197.334 57.5648L220.964 38.5576L204.396 40.4583L203.853 20.6364L188.642 26.0671L187.828 10.0467L170.444 42.902L168 41.5444L190.272 0L191.359 22.2656L206.569 16.835L207.112 37.4714L229.927 34.7561L199.235 59.737Z" fill="#B69079"/>
<path d="M111.789 176.668C111.789 176.668 138.95 181.012 145.469 195.675C145.469 195.675 160.407 178.84 171 182.642C181.593 186.443 172.087 189.158 172.087 189.158L145.469 198.119L120.209 209.523C120.209 209.523 112.332 199.477 111.789 185.357C111.517 171.237 111.789 176.668 111.789 176.668Z" fill="white"/>
<path d="M163.395 66.1545C163.395 66.1545 164.21 96.8376 187.84 109.057C187.84 109.057 181.865 100.639 182.68 88.9632C183.223 77.2873 183.766 55.2932 177.519 52.0349" fill="#6B4B41"/>
<path d="M191.914 112.858L187.025 110.414C162.852 97.9237 161.766 66.6976 161.766 66.426H164.482C164.482 66.6976 165.296 92.7646 184.038 105.798C182.408 101.997 180.507 96.2945 181.05 89.2347C182.136 69.1413 180.507 55.5647 176.704 53.664L178.062 51.2202C184.581 54.4786 184.852 73.7574 184.038 89.5062C183.494 100.639 188.927 108.785 188.927 108.785L191.914 112.858Z" fill="#77554A"/>
<path d="M192.458 58.8232C192.458 58.8232 197.618 63.7107 193.544 90.3208C193.544 90.3208 194.087 106.341 202.236 115.03C202.236 115.03 195.445 114.487 187.569 109.057C187.569 109.057 181.321 102.268 182.68 80.5457C184.038 58.8232 178.334 52.0349 178.334 52.0349L180.507 46.8757C180.778 46.8757 190.013 49.3195 192.458 58.8232Z" fill="#6B4B41"/>
<path d="M205.495 116.659L202.236 116.388C201.964 116.388 194.902 115.845 187.025 110.143L186.754 109.871C186.482 109.6 179.963 102.268 181.593 80.2741C182.951 59.3662 177.519 52.8494 177.519 52.5779L176.976 52.0349L179.963 44.975L181.05 45.2466C181.321 45.2466 190.828 47.9618 193.816 57.737C194.902 59.3662 198.705 66.1545 195.174 90.3208C195.174 90.3208 195.988 105.527 203.594 113.944L205.495 116.659ZM188.655 107.97C192.729 110.957 196.532 112.315 198.976 112.858C192.729 103.626 192.186 90.8639 192.186 90.3208C195.988 65.0684 191.371 59.6377 191.371 59.6377L191.099 59.3662V59.0947C189.198 52.3064 183.766 49.3195 181.321 48.5049L179.963 51.7633C181.321 53.9356 185.396 62.0815 184.038 80.5457C182.951 100.096 188.112 107.156 188.655 107.97Z" fill="#77554A"/>
<path d="M115 81.5C117.8 70.7 125.333 67.1667 128 67.5V55L116.5 69.5L115 81.5Z" fill="#6B4B41" stroke="#77554A" stroke-width="3"/>
<path d="M187.84 50.9487C187.84 50.9487 206.31 57.737 212.285 77.8304C218.261 97.9237 209.026 115.302 204.408 125.077C199.791 134.852 199.248 156.303 201.421 163.091C203.594 169.88 185.939 136.481 191.643 123.448C197.075 110.414 194.087 66.1545 187.84 50.9487Z" fill="#6B4B41"/>
<path d="M201.421 165.535L200.606 164.992C198.976 163.634 184.852 135.395 190.285 122.905C195.717 109.871 192.729 66.1545 186.754 51.4918L185.667 48.7765L188.655 49.8626C189.47 50.1341 207.939 56.9224 213.915 77.5588C219.619 97.3807 211.47 114.487 206.581 124.534L206.038 125.892C201.421 135.395 200.877 156.303 203.322 162.82C203.594 163.363 203.865 164.449 203.05 165.264L201.421 165.535ZM190.013 53.664C195.717 71.3136 197.89 111.229 192.458 123.991C189.198 131.594 194.63 146.799 198.705 156.032C198.161 146.528 199.248 132.408 202.779 124.805L203.322 123.448C208.211 113.673 216.088 97.1091 210.655 78.3734C206.581 63.7107 195.445 56.3793 190.013 53.664Z" fill="#77554A"/>
<path d="M111.789 175.039C111.789 178.026 111.789 181.012 112.061 184.271C112.332 187.258 112.604 190.245 113.419 193.231C114.777 199.205 117.221 204.636 121.295 208.709L119.937 208.437C129.444 203.55 139.222 199.205 149.271 195.132C151.716 194.046 154.432 193.231 156.876 192.417C159.321 191.602 162.309 191.059 164.753 190.788C169.914 190.245 174.803 187.529 178.605 184.271C176.976 186.443 174.803 188.072 172.63 189.43C170.457 190.788 167.741 191.874 165.025 192.417C159.864 192.96 154.975 195.404 150.086 197.304C140.308 201.377 130.802 205.993 121.024 210.609L120.209 210.881L119.666 210.338C117.493 207.894 115.592 205.179 114.234 202.463C113.147 199.477 112.332 196.49 111.789 193.503C111.246 190.516 111.246 187.258 111.246 184.271C110.974 181.012 111.246 178.026 111.789 175.039Z" fill="#D1AFAC"/>
<path d="M193.544 166.893H203.322L204.137 180.469L189.47 186.172L185.124 175.039L193.544 166.893Z" fill="#BC7D89"/>
<path d="M188.112 189.701L181.865 174.224L192.729 164.177H206.038L207.125 182.099L188.112 189.701ZM188.383 175.853L191.099 182.913L201.421 178.84L200.877 169.88H194.63L188.383 175.853Z" fill="#282828"/>
<path d="M172.901 144.356L185.667 142.998L196.532 159.833L182.951 163.091L172.901 150.329V144.356Z" fill="#BC7D89"/>
<path d="M181.865 166.078L170.457 151.144L170.185 141.64L187.025 140.011L200.877 161.462L181.865 166.078ZM175.618 149.243L183.766 159.833L191.914 157.932L184.038 145.713L175.618 146.528V149.243Z" fill="#282828"/>
<path d="M155.518 151.415C155.518 151.415 166.654 156.303 166.654 159.29C166.654 162.277 153.074 170.966 153.074 170.966L148.457 162.277L155.518 151.415Z" fill="#BC7D89"/>
<path d="M152.802 172.052L147.642 162.548L155.247 150.601L155.79 150.872C157.691 151.687 167.198 156.303 167.469 159.29C167.741 162.548 155.79 170.151 153.617 171.509L152.802 172.052ZM149 162.548L153.074 170.151C159.593 166.078 165.84 160.919 165.84 159.29C165.84 157.661 159.864 154.131 155.518 152.23L149 162.548Z" fill="#282828"/>
<path d="M212.285 171.237C212.285 171.237 222.335 176.396 223.15 184.271C223.964 191.874 191.643 192.688 201.421 173.681" fill="#D38D97"/>
<path d="M212.828 189.973C208.211 189.973 203.594 188.615 201.149 185.9C199.248 183.728 197.346 179.926 200.877 173.41L201.964 173.953C199.519 178.569 199.519 182.37 201.964 184.814C206.038 189.158 215.544 189.158 219.89 186.986C220.977 186.443 222.606 185.357 222.335 183.999C221.52 176.939 212.013 171.78 211.742 171.509L212.285 170.423C212.828 170.694 222.606 175.853 223.421 183.728C223.693 185.357 222.606 186.986 220.162 188.072C218.261 189.43 215.544 189.973 212.828 189.973Z" fill="#282828"/>
<path d="M168.556 177.754C168.556 177.754 190.556 176.396 190.556 182.642C190.556 188.887 185.939 194.589 180.778 192.688L167.469 181.284L168.556 177.754Z" fill="#F2ABA9"/>
<path d="M168.556 177.754C171.815 177.483 175.346 177.211 178.605 177.483C181.865 177.754 185.396 177.754 188.655 179.383C189.47 179.926 190.285 180.469 190.828 181.284C191.099 181.827 191.099 182.37 191.099 182.642C191.099 183.185 191.099 183.456 191.099 183.999C190.828 185.628 190.556 187.529 189.741 189.158C188.927 190.788 187.569 192.145 185.939 192.96C184.309 194.046 182.408 194.046 180.507 193.503C176.161 189.701 171.815 185.9 167.469 181.827L168.556 177.754ZM168.556 177.754L167.741 181.556V181.284C172.358 184.814 176.704 188.615 181.321 192.145H181.05C184.038 193.231 187.025 191.059 188.383 188.344C189.198 186.986 189.741 185.357 189.741 183.728C189.741 183.456 189.741 182.913 189.741 182.642C189.741 182.37 189.741 182.099 189.47 181.827C189.198 181.284 188.655 180.741 187.84 180.469C185.124 179.112 181.593 178.569 178.334 178.297C175.074 177.754 171.815 177.754 168.556 177.754Z" fill="#282828"/>
<path d="M190.013 160.105C190.013 160.105 188.112 154.945 191.371 154.131C194.63 153.316 199.248 149.515 201.149 150.058C203.322 150.601 238.36 162.82 204.952 173.41C204.952 173.41 198.433 175.853 196.532 170.966L190.013 160.105Z" fill="#FFA5A7"/>
<path d="M201.692 175.039C199.519 175.039 197.075 174.224 195.988 171.509L189.47 160.376C189.47 160.376 188.383 157.118 189.47 154.945C190.013 154.131 190.556 153.588 191.371 153.316C192.729 153.045 194.087 152.23 195.717 151.415C198.161 150.058 200.063 148.972 201.692 149.515C201.964 149.515 220.162 155.488 220.433 163.363C220.433 167.436 215.544 171.237 205.495 174.224C204.408 174.767 203.05 175.039 201.692 175.039ZM190.556 159.833L197.075 170.694C198.976 175.039 204.408 172.867 204.68 172.867C213.915 169.88 218.804 166.621 218.532 163.091C218.532 156.846 203.322 151.144 200.877 150.601C199.791 150.329 197.89 151.416 195.988 152.502C194.359 153.316 192.729 154.131 191.371 154.674C190.828 154.945 190.556 155.217 190.285 155.488C189.741 156.846 190.285 159.018 190.556 159.833Z" fill="#282828"/>
<path d="M199.519 131.594C199.519 131.594 213.915 128.064 219.347 130.508C219.347 130.508 219.347 142.183 212.285 145.442L197.075 153.588" fill="#EF9CAC"/>
<path d="M199.519 131.594C202.779 130.779 206.038 129.964 209.569 129.421C211.199 129.15 212.828 129.15 214.73 129.15C216.359 129.15 218.261 129.421 219.89 129.964L220.162 130.236V130.779C220.162 133.766 219.619 136.753 218.532 139.468C217.446 142.183 215.544 144.899 212.828 146.256C210.384 147.614 207.668 148.972 205.223 150.058C202.779 151.415 200.063 152.502 197.346 153.859C202.235 150.872 207.396 147.886 212.285 145.17C214.73 143.813 216.359 141.64 217.174 138.925C217.989 136.21 218.532 133.494 218.804 130.779L219.075 131.322C217.717 130.779 216.088 130.508 214.458 130.508C212.828 130.508 211.199 130.508 209.569 130.508C206.31 130.779 203.05 131.051 199.519 131.594Z" fill="#282828"/>
<path d="M217.717 156.303C217.717 156.303 234.014 155.488 237.002 160.919C237.002 160.919 234.557 170.423 228.582 171.509C222.606 172.595 216.631 172.595 216.631 172.595" fill="#FAA4B1"/>
<path d="M217.717 156.303C221.248 156.032 224.508 156.032 228.039 156.303C229.668 156.575 231.57 156.846 233.199 157.389C234.829 157.932 236.459 159.018 237.545 160.648V160.919V161.191C237.002 163.363 235.915 165.535 234.829 167.436C233.471 169.337 231.841 170.966 229.668 171.78C227.495 172.323 225.322 172.323 223.15 172.595C220.977 172.595 218.804 172.867 216.631 172.595C218.804 172.323 220.977 172.052 223.15 171.78C225.322 171.509 227.495 171.237 229.397 170.423C231.298 169.608 232.656 167.979 233.742 166.35C234.829 164.449 235.644 162.548 236.187 160.648V161.191C235.372 159.833 234.014 159.018 232.384 158.475C230.755 157.932 229.125 157.389 227.495 157.118C224.779 156.846 221.248 156.575 217.717 156.303Z" fill="#282828"/>
<path d="M123.74 166.893C118.308 170.966 118.851 180.469 118.851 180.469C138.135 180.469 138.95 176.125 138.95 176.125L141.395 168.794" fill="#FCACA5"/>
<path d="M123.74 166.893C122.925 167.707 122.11 168.794 121.567 169.88C121.024 170.966 120.481 172.052 120.209 173.138C119.666 175.582 119.394 178.026 119.394 180.198L118.851 179.655C120.481 179.655 122.382 179.655 124.012 179.383C125.641 179.383 127.542 179.112 129.172 178.84C130.802 178.569 132.703 178.297 134.333 178.026C135.148 177.754 135.962 177.483 136.777 177.211C137.592 176.939 138.407 176.396 138.407 175.853C139.222 173.41 140.037 170.966 141.123 168.522C140.58 170.966 140.037 173.41 139.222 176.125C138.679 177.211 137.864 177.754 137.049 178.297C136.234 178.84 135.419 179.112 134.604 179.383C132.975 179.926 131.073 180.198 129.444 180.469C127.814 180.741 125.913 181.012 124.012 181.012C122.11 181.012 120.481 181.012 118.579 181.012H118.036V180.469C118.036 178.026 118.579 175.31 119.123 172.867C120.209 170.694 121.567 168.25 123.74 166.893Z" fill="#282828"/>
<path d="M220.705 179.112C220.705 179.112 229.397 177.754 233.471 181.827C237.545 185.9 241.891 191.059 242.706 193.231C242.706 193.231 234.286 194.589 231.841 197.304C229.397 200.02 221.792 195.675 221.792 195.675" fill="#F2A49A"/>
<path d="M220.705 179.112C223.15 178.569 225.322 178.569 227.767 178.84C230.211 179.112 232.656 179.926 234.286 181.827C235.915 183.456 237.545 185.085 239.175 186.986C240.804 188.887 242.434 190.516 243.249 192.96L243.52 193.774H242.706C240.804 194.046 239.175 194.589 237.273 194.861C235.644 195.404 233.742 195.947 232.384 197.033C232.113 197.304 231.57 197.576 231.298 197.847C230.755 198.119 230.211 198.119 229.668 198.119C228.582 198.119 227.767 198.119 226.681 197.576C224.779 197.033 223.15 196.218 221.52 195.132C223.15 195.947 225.051 196.49 226.952 197.033C228.853 197.304 230.755 197.576 231.841 195.947C233.471 194.589 235.372 194.046 237.002 193.231C238.903 192.688 240.804 192.145 242.706 191.874L242.162 192.688C241.348 190.788 239.718 188.887 238.36 186.986C236.73 185.085 235.372 183.456 233.742 181.827C232.384 180.198 230.211 179.112 227.767 178.84C225.322 179.112 223.15 178.84 220.705 179.112Z" fill="#282828"/>
<path d="M217.174 197.033C227.767 202.735 224.779 213.596 224.779 213.596C213.372 215.497 209.297 204.636 209.297 204.636L210.384 197.033H217.174Z" fill="#FFA5A7"/>
<path d="M217.174 197.033C218.532 197.847 220.162 198.662 221.248 199.748C222.606 200.834 223.421 202.192 224.236 203.821C225.051 205.45 225.594 207.08 225.594 208.709C225.866 210.338 225.594 211.967 225.322 213.868V214.139H224.779C223.15 214.411 221.52 214.411 219.89 214.139C218.261 213.868 216.631 213.325 215.273 212.51C213.915 211.696 212.557 210.338 211.47 209.252C210.384 207.894 209.569 206.536 209.026 204.907L210.384 197.304V197.033H210.655C212.828 196.761 215.001 196.761 217.174 197.033C215.001 197.304 212.828 197.304 210.384 197.304L210.655 197.033L209.841 204.636V204.364C211.199 207.08 213.1 209.795 215.816 211.152C217.174 211.967 218.532 212.51 220.162 212.782C221.792 213.053 223.15 213.053 224.779 212.782L224.236 213.325C224.508 211.967 224.779 210.338 224.508 208.709C224.508 207.08 223.964 205.45 223.421 204.093C222.878 202.735 222.063 201.377 220.705 200.02C219.89 198.934 218.532 197.847 217.174 197.033Z" fill="#282828"/>
<path d="M157.42 188.344C154.975 191.874 142.209 191.602 142.209 191.602C138.679 187.258 140.037 181.556 140.851 179.383C141.123 178.84 141.123 178.569 141.123 178.569L145.74 177.211L155.518 176.396L157.42 188.344Z" fill="#EF9F94"/>
<path d="M157.42 188.344C156.605 189.43 155.247 189.973 154.16 190.516C152.802 191.059 151.444 191.331 150.358 191.602C147.642 192.145 144.926 192.145 142.209 192.417H141.938L141.666 192.145C140.037 190.245 139.222 187.801 139.222 185.628C139.222 183.185 139.493 181.012 140.308 178.569V178.297H140.58L145.197 177.211C148.457 176.939 151.716 176.668 154.975 176.668H155.518V177.211C156.333 180.741 156.876 184.542 157.42 188.344ZM157.42 188.344C156.605 184.271 155.79 180.469 154.975 176.668L155.518 176.939C152.259 177.211 149 177.483 145.74 178.026L141.123 179.383L141.666 179.112C140.851 181.012 140.308 183.456 140.58 185.628C140.58 187.801 141.395 189.973 142.753 191.602L142.209 191.331C144.926 191.331 147.642 191.331 150.086 191.059C151.444 190.788 152.802 190.788 153.889 190.516C155.247 189.973 156.333 189.43 157.42 188.344Z" fill="#282828"/>
<path d="M156.062 180.469C156.062 180.469 153.345 185.628 159.593 189.701C159.593 189.701 164.482 188.887 165.568 184.271C166.383 179.655 174.26 165.264 174.26 165.264L163.667 164.449L156.062 180.469Z" fill="#BC7D89"/>
<path d="M156.062 180.469C155.247 182.099 155.247 184.271 156.062 185.628C156.605 186.443 157.148 186.986 157.691 187.801C158.235 188.344 159.049 188.887 159.864 189.158H159.321C161.494 188.344 163.395 186.715 163.667 184.814C163.667 184.271 163.667 183.999 163.938 183.185C163.938 182.37 164.21 181.827 164.482 181.284C164.753 179.926 165.296 178.84 165.568 177.483C167.198 172.595 169.371 168.25 172.087 163.906L174.26 167.707C170.729 167.164 167.198 166.621 163.667 165.807L165.025 164.992C163.395 167.436 161.765 170.151 160.407 172.595C158.778 175.039 157.148 177.754 156.062 180.469ZM156.062 180.469C157.42 177.754 158.506 175.039 159.593 172.323C160.679 169.608 161.494 166.621 162.309 163.906L162.58 163.091H163.667C167.198 162.82 170.729 162.82 174.531 162.82H178.062L176.432 166.35C175.346 168.522 174.26 170.694 173.173 172.866C172.087 175.039 171 177.211 169.642 179.383C169.099 180.469 168.556 181.555 168.013 182.642L167.198 184.271C167.198 184.542 166.926 184.814 166.926 185.085C166.654 185.357 166.654 185.9 166.383 186.172C165.025 188.887 162.037 190.245 159.593 190.516H159.321H159.049C158.235 189.973 157.691 189.158 156.876 188.615C156.333 187.801 155.79 186.986 155.518 186.172C155.247 183.999 155.247 182.099 156.062 180.469Z" fill="#282828"/>
<path d="M137.592 168.794H126.999C126.999 168.794 117.221 165.807 118.579 154.945C118.579 154.945 122.382 151.959 130.259 152.23C138.135 152.502 137.32 155.217 137.32 155.217" fill="#F8A39C"/>
<path d="M137.592 168.794C134.061 169.065 130.53 169.065 126.999 169.337C124.012 168.522 121.567 166.35 119.937 163.906C119.123 162.548 118.579 161.191 118.308 159.561C118.036 157.932 118.036 156.575 118.308 154.945V154.674L118.579 154.402C120.209 153.316 121.839 152.773 123.468 152.23C125.098 151.687 126.999 151.687 128.629 151.687C130.259 151.687 132.16 151.687 133.79 152.23C134.604 152.502 135.419 152.773 136.234 153.045C137.049 153.316 137.864 154.131 137.592 155.217C137.592 154.402 136.777 153.859 135.962 153.316C135.148 153.045 134.333 152.773 133.518 152.773C131.888 152.502 130.259 152.502 128.357 152.773C126.728 152.773 125.098 153.045 123.468 153.588C121.839 154.131 120.209 154.674 119.123 155.488L119.394 154.945C119.394 156.303 119.123 157.661 119.394 159.018C119.666 160.376 120.209 161.734 120.752 162.82C122.11 165.264 124.555 167.164 126.999 168.25H126.728C130.802 168.522 134.061 168.522 137.592 168.794Z" fill="#282828"/>
<path d="M185.396 130.508C185.396 130.508 179.149 126.706 172.63 131.865C172.63 131.865 169.642 137.024 172.63 140.011L179.149 145.713C179.149 145.713 183.766 152.502 186.482 153.316C189.198 154.131 187.568 136.481 187.568 136.481" fill="#D48389"/>
<path d="M185.396 130.508C183.223 129.693 181.05 129.15 178.877 129.421C177.79 129.693 176.704 129.964 175.889 130.236C174.803 130.779 173.988 131.322 173.173 131.865C172.63 132.951 172.087 134.581 172.087 135.667C172.087 137.024 172.358 138.382 173.173 139.197L179.692 144.899C181.05 146.799 182.408 148.7 184.038 150.329C184.852 151.144 185.667 151.959 186.754 152.23C187.025 152.23 186.754 152.23 187.025 152.23C187.025 152.23 187.297 151.959 187.297 151.687C187.568 151.144 187.568 150.601 187.568 150.058C187.84 147.886 187.84 145.442 187.84 142.998C187.84 140.554 187.84 138.382 187.568 135.938C187.84 138.382 188.112 140.554 188.383 142.998C188.655 145.442 188.655 147.614 188.383 150.058C188.383 150.601 188.112 151.144 188.112 151.959C188.112 152.23 187.84 152.502 187.568 153.045C187.297 153.588 186.482 153.588 186.21 153.316C184.852 152.773 184.038 151.959 183.223 151.144C181.593 149.515 179.963 147.614 178.605 145.713C176.432 143.813 174.26 141.912 172.087 139.74C171 138.654 170.457 136.753 170.729 135.124C171 133.494 171.543 132.137 172.087 130.779C173.988 129.421 176.161 128.335 178.605 128.335C181.321 128.607 183.494 129.15 185.396 130.508Z" fill="#282828"/>
<path d="M179.149 191.874C179.963 194.861 169.371 207.623 163.395 191.874C157.42 176.125 168.284 178.84 168.284 178.84" fill="#FCA9B9"/>
<path d="M179.149 191.874C179.42 193.774 178.334 195.404 177.247 196.761C176.161 198.119 174.531 199.205 172.902 199.748C171 200.291 169.099 200.02 167.469 198.934C166.654 198.39 166.111 197.576 165.568 197.033C165.025 196.218 164.482 195.404 164.21 194.861L163.124 192.417L162.309 189.973C161.765 188.344 161.494 186.443 161.494 184.814C161.494 183.185 162.037 181.012 163.395 179.926C165.025 178.84 166.926 178.84 168.556 179.383C166.926 179.112 165.025 179.383 163.938 180.469C162.852 181.556 162.309 183.185 162.58 184.814C162.852 188.072 163.938 191.602 165.568 194.589C166.926 197.576 169.642 200.291 172.902 199.205C174.531 198.934 175.889 197.847 176.976 196.761C178.062 194.861 179.149 193.503 179.149 191.874Z" fill="#282828"/>
<path d="M170.457 162.548C170.457 162.548 178.062 158.747 177.247 154.674C176.432 150.601 188.655 156.575 190.285 161.191C191.914 165.807 200.063 168.794 194.63 175.582C189.198 182.37 185.667 181.284 179.149 178.84C179.149 178.84 166.654 182.642 163.123 172.867" fill="#D38D97"/>
<path d="M170.457 162.548C172.63 161.191 174.803 159.561 176.161 157.661C176.432 157.118 176.704 156.575 176.976 156.032C176.976 155.76 176.976 155.488 176.976 155.217C176.976 154.945 176.704 154.674 176.976 154.131C176.976 153.588 177.519 153.316 177.79 153.045C178.062 152.773 178.605 153.045 178.877 153.045C179.692 153.045 180.235 153.316 180.778 153.588C183.223 154.402 185.667 155.76 187.84 157.389C188.927 158.204 189.741 159.29 190.556 160.376C190.828 161.191 191.099 161.462 191.371 162.005C191.643 162.548 192.186 163.091 192.457 163.363C194.087 165.264 196.26 167.164 197.075 169.88C197.346 171.237 197.075 172.866 196.26 173.953C195.717 175.31 194.63 176.125 193.816 177.211C192.186 179.112 189.47 181.012 186.754 181.012C184.038 181.012 181.593 179.926 179.149 178.84H179.42C177.79 179.383 176.161 179.383 174.531 179.655C172.901 179.655 171.272 179.655 169.642 179.112C168.012 178.569 166.654 177.754 165.568 176.668C164.482 175.582 163.667 174.224 163.123 172.595C163.667 173.953 164.482 175.31 165.84 176.396C166.926 177.483 168.556 178.026 169.914 178.569C172.901 179.383 176.161 179.112 179.149 178.026H179.42H179.692C182.136 178.84 184.581 179.926 187.025 179.926C189.47 179.926 191.643 178.297 193.272 176.396C194.902 174.496 196.532 172.323 196.26 170.151C195.717 167.979 193.816 166.078 192.186 164.177C191.643 163.634 191.371 163.091 191.099 162.548C190.828 162.005 190.556 161.191 190.285 160.648C189.741 159.561 188.927 158.747 187.84 157.932C185.939 156.303 183.766 154.945 181.321 154.131C180.778 153.859 180.235 153.859 179.42 153.588C178.877 153.588 178.334 153.588 178.334 154.131C178.334 154.402 178.605 155.488 178.334 156.032C178.062 156.846 177.79 157.389 177.519 157.932C175.074 160.104 172.901 161.462 170.457 162.548Z" fill="#282828"/>
<path d="M171 182.642C171 182.642 178.605 182.099 176.704 189.158C174.531 196.218 164.753 187.529 171 182.642Z" fill="#E396A6"/>
<path d="M171 182.642C172.087 182.37 173.173 182.642 174.531 182.913C175.618 183.185 176.704 183.999 177.247 185.357C177.79 186.443 177.791 187.801 177.519 188.887C177.247 189.973 176.704 191.331 175.346 192.145C173.988 192.688 172.63 192.417 171.543 191.874C170.457 191.059 169.642 190.245 169.099 189.158C168.556 188.072 168.556 186.715 168.827 185.628C169.099 183.999 169.914 183.185 171 182.642ZM171 182.642C169.371 184.271 168.827 186.715 169.914 188.344C170.457 189.158 171.272 189.973 172.087 190.516C172.902 191.059 173.988 191.331 174.531 190.788C175.346 190.516 175.618 189.43 175.889 188.615C176.161 187.529 176.161 186.443 175.889 185.628C175.618 183.728 173.173 182.913 171 182.642Z" fill="#282828"/>
<path d="M161.765 152.23C161.765 152.23 159.321 162.277 165.568 163.091C171.815 163.906 180.507 161.734 175.346 150.329" fill="#F2A0AE"/>
<path d="M161.765 152.23C161.494 153.588 161.494 154.945 161.494 156.575C161.494 157.932 161.765 159.29 162.58 160.376C163.123 161.462 164.21 162.277 165.568 162.277C166.926 162.548 168.284 162.548 169.642 162.277C172.358 162.005 175.074 160.919 175.889 158.204C176.704 155.76 176.161 152.773 175.074 150.058C176.432 152.502 177.519 155.488 176.704 158.475C176.432 160.105 175.074 161.191 173.988 162.005C172.63 162.82 171.272 163.091 169.642 163.363C168.284 163.634 166.654 163.634 165.296 163.363C163.667 163.091 162.037 162.005 161.494 160.648C160.407 157.932 160.951 154.945 161.765 152.23Z" fill="#282828"/>
<path d="M183.223 169.88C178.062 174.767 175.346 174.224 173.988 172.323C172.358 169.88 173.173 166.621 175.618 164.992L176.432 164.449" fill="#F2A49A"/>
<path d="M183.223 169.88C182.136 171.237 181.05 172.595 179.42 173.41C178.605 173.953 177.791 174.224 176.704 174.224C175.618 174.224 174.531 173.953 173.988 173.138C172.63 171.78 172.087 169.608 172.63 167.707C172.902 166.893 173.445 166.078 173.988 165.535C174.531 164.992 175.346 164.449 176.161 164.177C174.803 165.264 173.716 166.621 173.445 167.979C173.173 169.337 173.445 170.966 174.531 172.052C175.618 173.138 176.976 172.867 178.605 172.323C180.507 171.78 181.865 170.694 183.223 169.88Z" fill="#282828"/>
<path d="M177.79 168.793C177.79 168.793 178.062 174.224 184.852 175.039C191.914 175.853 190.013 162.548 184.038 164.72" fill="#FAA4B1"/>
<path d="M177.79 168.794C178.334 170.966 179.963 172.867 181.865 173.681C183.766 174.496 186.21 175.039 187.568 173.953C188.927 172.595 189.198 170.151 188.655 168.25C188.383 166.078 186.482 164.177 184.038 164.721C185.124 164.177 186.482 164.449 187.297 164.992C188.383 165.807 188.927 166.893 189.47 167.979C190.285 170.151 190.285 172.867 188.383 175.039C187.297 175.853 185.939 176.125 184.581 175.853C183.494 175.582 182.136 175.31 181.321 174.767C179.42 173.41 177.79 170.966 177.79 168.794Z" fill="#282828"/>
<path d="M177.791 162.82C177.791 162.82 175.618 167.436 180.778 166.893C185.939 166.35 184.852 161.191 177.791 162.82Z" fill="#E8A0AC"/>
<path d="M177.79 162.82C177.519 164.178 177.519 166.078 178.605 166.35C179.692 166.621 181.321 166.35 182.408 165.535C183.494 164.992 183.223 163.906 181.865 163.363C181.05 162.82 179.42 162.82 177.79 162.82ZM177.79 162.82C179.149 162.277 180.778 161.734 182.408 162.277C183.223 162.548 184.038 163.091 184.581 164.178C184.852 165.264 184.038 166.35 183.494 166.893C181.865 167.707 180.235 167.979 178.605 167.436C177.79 167.164 177.247 166.078 177.247 165.264C177.247 164.177 177.519 163.634 177.79 162.82Z" fill="#282828"/>
<path d="M212.557 161.734H201.964V156.846L202.507 156.575C202.507 156.575 205.223 154.945 207.939 155.76C209.569 156.303 210.927 157.661 211.742 159.833L212.557 161.734ZM204.68 159.018H208.211C207.939 158.747 207.668 158.475 207.125 158.204C206.31 157.932 205.223 158.204 204.68 158.475V159.018Z" fill="#B69079"/>
<path d="M207.124 183.728C207.124 183.728 203.594 176.125 196.532 180.741C189.47 185.085 197.075 191.059 199.519 191.874C199.519 191.874 196.532 204.636 206.853 204.364C217.174 204.093 214.73 195.947 214.73 195.947" fill="#F2A0AE"/>
<path d="M207.125 183.728C205.766 181.827 204.137 180.198 201.964 179.926C199.791 179.655 197.89 180.741 196.26 182.099C195.445 182.913 194.902 183.728 194.63 184.542C194.359 185.357 194.63 186.443 195.174 187.258C196.26 188.887 198.161 190.516 199.791 191.059L200.606 191.331L200.334 192.145C199.791 194.589 199.791 197.033 200.334 199.205C200.877 201.377 202.779 203.007 204.952 203.278C207.396 203.55 209.841 203.55 212.014 202.192C214.186 201.106 214.73 198.119 214.458 195.675C215.273 198.119 215.001 201.377 212.557 203.007C210.112 204.636 207.396 204.907 204.68 204.907C203.322 204.636 201.964 204.364 200.606 203.278C199.519 202.463 198.705 201.106 198.161 199.748C197.347 197.033 197.346 194.318 197.89 191.602L198.705 192.688C197.347 192.145 196.532 191.602 195.445 190.788C194.63 189.973 193.544 189.158 193.001 188.072C192.458 186.986 191.914 185.628 192.186 184.271C192.458 182.913 193.544 181.827 194.359 181.012C196.26 179.655 198.705 178.569 201.421 179.112C204.408 179.655 206.038 181.556 207.125 183.728Z" fill="#282828"/>
<path d="M184.037 182.642V191.602C184.037 191.602 185.396 195.675 189.47 195.404C193.815 195.132 192.457 186.986 192.457 186.986" fill="#E79DAA"/>
<path d="M184.038 182.642C184.309 185.628 184.581 188.615 184.581 191.602V191.331C185.124 192.417 185.939 193.503 187.025 194.318C188.112 194.861 189.47 195.132 190.556 194.589C191.643 194.046 192.186 192.688 192.186 191.331C192.457 189.973 192.457 188.615 192.457 186.986C192.729 188.344 193.001 189.973 193.001 191.331C193.001 192.688 192.729 194.589 191.099 195.675C189.47 196.49 187.84 196.218 186.21 195.404C184.852 194.589 183.766 193.231 183.223 191.602C183.494 188.615 183.766 185.628 184.038 182.642Z" fill="#282828"/>
<path d="M166.383 153.316C166.383 153.316 158.234 162.277 155.518 156.846C152.802 151.415 154.16 145.442 157.148 144.356C157.148 144.356 150.629 138.11 159.321 135.124C168.284 132.137 170.185 139.74 170.185 139.74C170.185 139.74 183.766 144.899 176.432 151.959C169.099 159.018 166.383 153.316 166.383 153.316Z" fill="#EFAEA8"/>
<path d="M166.383 153.316C164.753 154.945 163.124 156.575 161.222 157.932C160.136 158.475 159.049 159.018 157.963 159.018C156.605 159.018 155.518 157.932 155.247 156.846C154.16 154.674 153.617 152.502 153.889 150.058C154.16 147.886 154.704 145.17 157.148 143.813L156.876 144.899C156.062 144.084 155.518 143.27 154.975 142.183C154.432 141.097 154.16 139.74 154.704 138.653C154.975 137.296 156.062 136.481 157.148 135.938C158.235 135.395 159.049 134.852 160.136 134.58C162.309 134.037 164.753 133.766 166.926 134.852C169.099 135.938 170.729 137.839 171.272 140.011L171 139.468C173.445 140.554 175.618 141.64 177.519 143.541C178.334 144.356 179.149 145.442 179.692 146.799C179.963 148.157 179.963 149.515 179.149 150.601C178.605 151.687 177.519 152.502 176.704 153.316C175.618 154.131 174.803 154.945 173.445 155.217C172.358 155.76 171 156.031 169.642 155.488C168.013 155.217 166.926 154.402 166.383 153.316ZM166.383 153.316C166.926 154.402 168.013 155.217 169.371 155.488C170.457 155.76 171.815 155.488 172.902 154.945C173.988 154.402 174.803 153.588 175.889 152.773C176.704 151.959 177.519 151.144 178.062 150.058C179.42 147.886 178.334 145.442 176.432 144.084C174.803 142.455 172.63 141.369 170.457 140.554H170.185V140.283C169.642 138.382 168.284 136.753 166.383 135.938C164.482 135.124 162.58 135.395 160.679 135.938C158.778 136.481 156.605 137.296 156.062 139.197C155.518 140.826 156.605 142.998 157.963 144.356L158.506 144.899L157.691 145.17C156.062 145.985 154.975 148.157 154.975 150.329C154.704 152.502 155.247 154.674 156.062 156.575C156.605 157.661 157.148 158.204 158.235 158.475C159.321 158.475 160.407 158.204 161.222 157.661C163.124 156.303 164.753 154.945 166.383 153.316Z" fill="#282828"/>
<path d="M150.358 177.211C150.358 177.211 142.209 182.642 137.592 173.681C137.592 173.681 140.58 167.979 134.876 162.548C129.172 157.118 143.296 149.243 146.555 152.23" fill="#F2ABA9"/>
<path d="M150.358 177.211C148.185 178.569 145.74 179.655 143.024 179.112C141.666 178.84 140.58 178.297 139.493 177.211C138.407 176.396 137.592 175.31 137.049 173.953V173.681L137.32 173.41C138.407 171.237 138.135 168.522 137.049 166.078C136.506 164.992 135.691 163.906 134.876 163.091C133.79 162.005 132.975 160.376 133.518 159.018C133.79 157.389 134.876 156.303 135.691 155.488C136.777 154.402 137.864 153.859 139.222 153.045C140.308 152.502 141.666 151.959 143.024 151.687C144.382 151.415 146.012 151.415 146.827 152.23C145.74 151.415 144.382 151.687 143.024 151.959C141.666 152.502 140.58 152.773 139.493 153.588C138.407 154.402 137.32 154.945 136.506 156.032C135.691 156.846 134.876 157.932 134.604 159.018C134.333 160.104 134.876 161.191 135.691 162.005C136.777 163.091 137.592 164.177 138.135 165.264C139.493 167.979 139.493 170.966 138.135 173.681V173.138C138.679 174.224 139.222 175.31 140.308 176.125C141.123 176.939 142.209 177.483 143.296 178.026C145.74 178.84 148.185 178.297 150.358 177.211Z" fill="#282828"/>
<path d="M152.259 162.548C152.259 162.548 137.32 153.588 150.629 147.342L154.432 148.429C156.333 151.687 156.605 156.032 154.975 159.561L153.889 162.005" fill="#E8A0AC"/>
<path d="M152.259 162.548C150.629 161.734 149.271 160.648 147.913 159.561C146.555 158.475 145.469 157.118 144.654 155.217C143.839 153.316 144.382 151.144 145.74 149.786C146.284 148.972 147.098 148.7 147.913 147.886C148.728 147.343 149.543 147.071 150.358 146.528H150.629H150.901L153.074 147.071L153.889 147.614H154.16C153.889 147.343 154.704 147.886 154.432 147.886L154.704 148.429C155.518 149.786 155.79 151.415 156.062 153.045C156.062 154.674 156.062 156.032 155.518 157.661C154.975 159.018 154.16 160.376 153.617 161.734C154.16 160.376 154.704 159.018 154.975 157.389C155.247 156.032 155.247 154.402 155.247 153.045C154.975 151.687 154.432 150.329 153.889 148.972L153.617 148.429C153.617 148.429 154.432 148.972 153.889 148.7H153.617H153.346L152.259 148.429L150.086 147.886H150.629L148.457 148.972C147.913 149.515 147.098 149.786 146.555 150.601C145.469 151.687 144.926 153.316 145.469 154.674C146.012 156.303 146.827 157.661 147.913 158.747C149.543 160.376 150.901 161.462 152.259 162.548Z" fill="#282828"/>
<path d="M210.384 183.185C210.384 183.185 220.705 177.211 222.606 185.9C224.508 194.589 219.619 198.662 212.828 196.218" fill="#FCA9B9"/>
<path d="M210.384 183.185C212.828 181.556 215.545 180.469 218.532 180.741C220.162 181.012 221.52 181.827 222.335 183.185C223.15 184.542 223.421 185.9 223.693 187.529C223.964 190.245 223.693 193.774 221.248 195.675C220.162 196.761 218.532 197.033 217.174 197.033C215.816 197.033 214.186 196.49 213.1 195.947C215.816 196.761 218.804 196.49 220.705 194.589C222.606 192.688 222.606 189.973 222.335 187.258C222.063 185.9 222.063 184.542 221.248 183.456C220.705 182.37 219.619 181.555 218.261 181.284C215.816 181.284 212.828 182.099 210.384 183.185Z" fill="#282828"/>
<path d="M204.952 186.172C204.952 186.172 202.507 194.589 209.569 194.589C216.631 194.589 214.73 185.085 209.569 184.814C204.68 184.814 204.952 186.172 204.952 186.172Z" fill="#F2B2B3"/>
<path d="M204.952 186.172C204.68 187.529 204.68 188.887 204.952 189.973C205.223 191.331 205.495 192.417 206.581 193.231C207.396 194.046 208.754 194.046 209.841 194.046C210.927 194.046 212.285 193.503 212.828 192.688C214.186 191.059 213.643 188.072 211.742 186.443C210.927 185.628 209.841 185.357 208.483 185.357C207.939 185.357 207.125 185.357 206.581 185.357C206.038 185.357 205.223 185.628 204.952 186.172ZM204.952 186.172C204.952 185.357 205.766 185.085 206.31 185.085C206.853 184.814 207.668 184.814 208.211 184.814C209.569 184.542 211.199 184.814 212.285 185.9C214.458 187.801 215.544 191.059 213.643 193.774C212.557 195.132 210.927 195.675 209.569 195.404C208.211 195.404 206.581 195.132 205.495 194.046C204.408 192.96 203.865 191.602 203.865 190.245C204.408 188.887 204.68 187.529 204.952 186.172Z" fill="#282828"/>
<path d="M168.827 144.084C168.827 144.084 173.716 150.058 163.395 150.329C163.395 150.329 155.79 142.998 165.025 142.455C174.26 141.912 168.827 144.084 168.827 144.084Z" fill="#D38D97"/>
<path d="M168.827 144.084C169.371 144.899 169.914 145.713 170.185 146.528C170.457 147.614 169.914 148.7 169.099 149.243C167.469 150.601 165.296 150.601 163.395 150.601H163.123L162.852 150.329C161.765 149.243 160.407 147.886 159.864 145.985C159.593 145.17 159.321 144.084 160.136 142.998C160.679 142.183 161.765 141.64 162.58 141.64C164.21 141.369 165.84 141.369 167.741 141.369C168.556 141.369 169.371 141.369 170.185 141.912L170.457 142.183C170.457 142.455 170.457 142.455 170.457 142.726C170.185 142.998 170.185 142.998 169.914 143.27C169.642 143.813 169.371 144.084 168.827 144.084ZM168.827 144.084C169.099 143.813 169.642 143.541 169.914 143.27C170.185 142.998 170.457 142.726 170.185 142.726C169.642 142.455 168.556 142.455 168.012 142.455C166.383 142.455 164.753 142.726 163.395 142.998C162.58 143.27 162.037 143.541 161.765 144.084C161.494 144.627 161.494 145.17 161.765 145.985C162.309 147.342 163.395 148.7 164.21 149.786L163.667 149.515C165.568 149.515 167.469 149.515 168.827 148.7C169.642 148.157 169.914 147.614 169.914 146.528C169.642 145.713 169.371 144.899 168.827 144.084Z" fill="#282828"/>
<path d="M148.456 168.794C148.456 168.794 138.95 167.436 145.197 160.376C151.444 153.588 154.975 171.237 148.456 168.794Z" fill="#D68F97"/>
<path d="M148.457 168.794C147.098 168.522 146.012 168.25 144.926 167.707C143.839 167.164 142.753 166.078 142.753 164.721C142.753 163.363 143.296 162.005 144.111 160.919C144.926 159.833 145.74 158.747 147.37 158.204C148.185 157.932 149 158.204 149.543 158.475C150.086 158.747 150.629 159.561 151.173 160.105C151.987 161.191 152.259 162.548 152.259 163.906C152.259 165.264 152.259 166.621 151.716 167.707C151.444 168.25 150.901 168.793 150.358 169.065C149.815 169.065 149 169.065 148.457 168.794ZM148.457 168.794C149 169.065 149.815 169.065 150.358 168.794C150.901 168.522 151.444 167.979 151.444 167.436C151.716 166.35 151.716 164.992 151.444 163.906C151.173 162.82 150.629 161.734 150.086 160.648C149.543 159.833 148.457 159.29 147.642 159.561C146.827 159.833 145.74 160.648 145.197 161.462C144.382 162.277 143.568 163.363 143.568 164.449C143.296 165.535 144.111 166.621 145.197 167.436C146.012 168.25 147.37 168.522 148.457 168.794Z" fill="#282828"/>
<path d="M201.421 158.475C201.421 158.475 196.532 145.17 209.569 145.442C222.606 145.985 222.335 157.661 213.372 161.462" fill="#D48389"/>
<path d="M201.421 158.475C200.606 156.846 200.334 154.945 200.063 153.045C200.063 151.144 200.334 149.243 201.692 147.614C203.05 145.985 204.952 145.442 206.853 145.17C208.754 144.899 210.655 144.899 212.557 145.442C214.458 145.713 216.359 146.799 217.717 148.157C219.075 149.515 219.89 151.687 219.89 153.588C219.89 155.488 218.804 157.389 217.717 158.747C216.359 160.105 214.73 161.191 213.1 161.734C216.359 160.105 219.075 156.846 219.075 153.316C219.075 151.687 218.261 150.058 217.174 148.7C215.816 147.614 214.186 146.799 212.557 146.528C209.297 145.713 204.952 145.713 202.507 148.157C201.421 149.243 200.877 151.144 200.606 153.045C200.606 154.945 200.877 156.846 201.421 158.475Z" fill="#282828"/>
<path d="M206.581 172.867C206.581 172.867 212.557 176.125 217.446 174.496C222.335 172.866 223.693 159.833 217.174 159.018L209.297 160.648" fill="#E7A6A2"/>
<path d="M206.581 172.867C209.026 173.953 211.47 174.496 213.915 174.496C215.001 174.496 216.359 174.224 217.446 173.953C218.532 173.681 219.347 172.595 219.89 171.509C220.433 170.423 220.977 169.337 220.977 168.25C221.248 167.164 221.248 165.807 221.248 164.721C220.977 162.277 219.89 160.104 217.446 159.561H217.717C215.001 160.104 212.285 160.376 209.841 160.648C212.557 159.833 215.001 159.29 217.717 158.475C219.075 158.747 220.433 159.29 221.248 160.648C222.063 161.734 222.606 163.091 222.606 164.449C222.878 167.164 222.606 169.88 221.248 172.323C220.433 173.41 219.619 174.496 218.261 175.039C216.902 175.582 215.544 175.582 214.186 175.582C211.199 175.039 208.754 173.953 206.581 172.867Z" fill="#282828"/>
<path d="M188.383 180.469C188.383 180.469 185.667 185.628 192.457 186.172C192.457 186.172 197.346 178.297 193.544 176.668" fill="#EFADB7"/>
<path d="M188.383 180.469C187.84 181.827 187.84 183.456 188.927 184.271C189.47 184.814 190.013 184.814 190.556 185.085C191.099 185.357 191.914 185.357 192.458 185.357L191.914 185.628C192.729 184.271 193.544 182.642 194.087 181.012C194.359 180.198 194.63 179.383 194.63 178.569C194.63 177.754 194.359 176.939 193.544 176.396C194.359 176.668 195.174 177.483 195.174 178.569C195.174 179.383 195.174 180.469 194.902 181.284C194.359 183.185 193.816 184.814 192.729 186.172L192.458 186.443H192.186C191.371 186.443 190.556 186.172 190.013 185.9C189.198 185.629 188.383 185.085 187.84 184.542C187.297 183.728 187.025 182.913 187.297 182.099C187.569 181.827 187.84 181.284 188.383 180.469Z" fill="#282828"/>
<path d="M199.519 139.197L201.149 141.912C200.334 155.488 189.47 154.131 189.47 154.131C189.47 154.131 181.865 153.588 181.593 144.356C181.593 144.356 171 133.494 189.47 130.236" fill="#E8A0AC"/>
<path d="M199.519 139.197L201.421 141.912C201.421 144.627 200.877 147.614 199.248 150.058C198.433 151.144 197.618 152.23 196.26 153.045C195.174 153.859 193.544 154.402 192.186 154.674C189.47 155.217 186.21 154.402 184.038 152.502C181.865 150.601 180.778 147.342 180.778 144.627L181.05 145.17C179.692 143.813 178.877 142.183 178.334 140.283C177.791 138.382 178.062 136.21 179.42 134.852C180.507 133.223 182.408 132.408 184.038 131.865C185.667 131.322 187.569 131.051 189.47 130.779C187.84 131.322 185.939 131.594 184.309 132.408C182.68 133.223 181.05 134.037 180.235 135.395C179.149 136.753 179.149 138.382 179.692 140.011C180.235 141.64 181.05 143.27 182.408 144.356L182.68 144.627V144.899C182.68 147.614 183.494 150.058 185.396 151.687C187.297 153.316 190.013 154.131 192.458 153.588C194.902 153.045 197.347 151.687 198.976 149.515C200.334 147.343 201.149 144.627 201.421 141.912L199.519 139.197Z" fill="#282828"/>
<path d="M195.445 137.567C195.445 137.567 190.013 138.11 189.741 135.124C189.198 131.865 194.087 128.607 198.704 131.594C203.322 134.852 200.877 139.197 199.791 139.197C198.704 139.197 202.235 151.959 191.099 144.084C190.828 144.084 184.309 135.124 195.445 137.567Z" fill="#F3A5B3"/>
<path d="M195.445 137.567C193.816 137.839 191.643 137.839 190.013 136.481C189.198 135.667 188.927 134.581 189.198 133.766C189.47 132.68 190.013 131.865 190.828 131.322C192.186 129.964 194.359 129.421 196.26 129.964C198.161 130.508 199.791 131.594 200.877 133.223C201.964 134.852 202.235 137.296 200.877 139.197C200.606 139.468 200.334 139.74 200.063 139.74H199.791H199.519H199.791C200.063 139.468 199.791 139.468 199.791 139.74C199.791 140.011 199.791 140.554 199.791 141.097C199.791 141.912 199.791 142.998 199.519 143.813C199.248 144.627 199.248 145.713 198.433 146.528C197.618 147.343 196.26 147.343 195.445 147.071C193.544 146.528 191.914 145.442 190.556 144.356C190.013 143.541 189.47 142.455 189.198 141.369C188.927 140.283 188.655 139.197 189.198 138.11C190.013 137.024 191.371 137.024 192.457 137.024C193.272 137.024 194.359 137.296 195.445 137.567ZM195.445 137.567C194.359 137.296 193.272 137.296 192.186 137.296C191.099 137.296 190.013 137.567 189.47 138.382C188.927 139.197 189.198 140.283 189.741 141.097C190.013 141.912 190.556 142.998 191.371 143.813C192.729 144.627 194.359 145.713 195.988 145.985C196.803 146.256 197.618 145.985 197.89 145.713C198.433 145.17 198.705 144.356 198.705 143.541C198.705 142.726 198.705 141.912 198.705 140.826C198.705 140.283 198.705 140.011 198.705 139.468C198.705 139.197 198.705 139.197 198.976 138.653C198.976 138.653 199.248 138.382 199.519 138.382C199.519 138.382 199.791 138.382 199.791 138.11C200.606 137.024 200.877 135.124 199.791 133.766C197.89 131.051 193.816 129.693 191.099 131.865C189.741 132.951 189.198 134.852 190.285 136.21C191.643 137.567 193.544 137.567 195.445 137.567Z" fill="#282828"/>
<path d="M206.038 171.237C206.038 171.237 196.532 166.893 203.594 157.661C203.594 157.661 210.655 153.859 212.014 160.376C213.372 166.893 207.125 171.237 207.125 171.237" fill="#FCA9B9"/>
<path d="M206.038 171.237C204.68 170.694 203.594 169.88 202.779 169.065C201.692 167.979 201.149 166.893 200.877 165.264C200.606 163.906 200.877 162.277 201.149 160.919C201.421 160.376 201.692 159.561 201.964 159.018L203.05 157.389H203.322C205.223 156.575 207.125 155.76 209.297 156.303C210.384 156.575 211.47 157.389 212.014 158.475C212.557 159.561 212.828 160.376 212.828 161.462C213.1 163.634 212.285 165.535 211.47 167.164C210.384 168.794 209.026 170.151 207.396 171.237C210.384 168.794 212.557 164.992 211.742 161.462C211.47 159.561 210.655 157.932 209.026 157.661C207.396 157.118 205.495 157.661 203.865 158.475L204.137 158.204L203.05 159.833C202.779 160.376 202.507 160.919 202.236 161.462C201.692 162.548 201.421 163.906 201.692 165.264C201.692 167.707 203.594 169.88 206.038 171.237Z" fill="#282828"/>
<path d="M148.456 168.794C148.456 168.794 146.555 177.754 154.16 178.84C161.494 179.926 163.123 175.853 163.667 170.966C164.21 166.078 171 164.449 171 164.449C171 164.449 165.296 163.363 163.667 161.734C161.765 160.105 153.889 161.734 153.889 161.734C153.889 161.734 155.518 169.88 148.456 168.794Z" fill="#F79CAE"/>
<path d="M148.456 168.794C148.185 171.78 148.728 175.31 151.173 177.211C152.259 178.026 153.889 178.297 155.518 178.569C157.148 178.569 158.506 178.569 159.864 177.754C161.222 177.211 162.037 175.853 162.309 174.496C162.58 173.681 162.58 173.138 162.852 172.323C162.852 171.509 162.852 170.694 163.123 169.88C163.667 168.25 164.753 166.893 166.383 165.807C167.741 164.992 169.371 164.177 171 163.906V165.264C169.642 164.992 168.012 164.449 166.654 163.906C165.84 163.634 165.296 163.363 164.482 163.091C164.21 162.82 163.667 162.82 163.395 162.548C163.123 162.277 162.852 162.277 162.58 162.005C161.222 161.734 159.864 161.734 158.506 161.734C157.148 161.734 155.518 162.005 154.16 162.277L154.432 161.734C154.704 163.634 154.704 165.535 153.617 167.164C153.074 167.979 152.259 168.522 151.444 168.794C150.358 169.065 149.271 168.794 148.456 168.794ZM148.456 168.794C149.271 168.794 150.358 168.794 151.173 168.522C151.987 168.25 152.802 167.707 153.074 166.893C153.889 165.264 153.889 163.363 153.617 161.734V161.462H153.889C155.247 161.191 156.876 160.919 158.234 160.648C159.864 160.648 161.222 160.376 162.852 160.648C163.123 160.648 163.667 161.191 163.938 161.191C164.21 161.462 164.482 161.462 164.753 161.734C165.296 162.005 166.111 162.277 166.654 162.548C168.012 163.091 169.371 163.363 170.729 163.634L173.445 164.177L170.729 164.992C168.012 165.807 164.753 167.436 163.938 169.88C163.667 171.237 163.667 173.138 163.123 174.496C162.58 176.125 161.494 177.754 159.864 178.297C158.234 179.112 156.605 179.112 154.975 178.84C153.345 178.84 151.716 178.297 150.358 177.211C149 176.125 148.456 174.496 148.185 172.866C148.185 172.052 148.185 170.423 148.456 168.794Z" fill="#282828"/>
<path d="M91.3037 92.5C102.104 56.1 133.304 44 145.304 41C109.804 53.5 104.304 93 87.804 150C74.604 195.6 87.6374 229.667 95.804 241L62.8039 273C55.6373 252 55.6037 183.7 68.8037 160.5C85.3037 131.5 77.8037 138 91.3037 92.5Z" fill="#DCDCDC" fill-opacity="0.5"/>
<path d="M102 98C102.8 84.8 113.667 72.6667 120 64.5C110 100.5 109.081 115.815 109.081 120.74C109.081 126.74 115 131.5 115 138.5C115 145.5 112.5 144 113.5 150.5C114.5 157 120 155 115 168C111.342 177.51 115.768 184.679 119.101 187.748C119.405 188 119.705 188.25 120 188.5C119.715 188.286 119.413 188.035 119.101 187.748C112.705 182.449 104.568 176.592 106 168C107.5 159 109 156.5 106 148C103 139.5 95.5 140 102 125.5C108.5 111 101 114.5 102 98Z" fill="#6B4B41" stroke="#77554A" stroke-width="2"/>
<path d="M127 56C134.2 42.4 154.667 41.3333 164 42.5L155.5 82C143 79 119.8 69.6 127 56Z" fill="#6B4B41" stroke="#77554A" stroke-width="3"/>
<path d="M145.5 63.2882C147.5 84.7882 163.501 90 168.001 90C160.001 70.8 174.001 51.8334 183.001 49C182.201 46.2 174.167 44.1216 169.5 43.2882C157.5 41.1454 143.5 41.7882 145.5 63.2882Z" fill="#6B4B41" stroke="#77554A" stroke-width="3"/>
<defs>
<radialGradient id="paint0_radial_92_14" cx="0" cy="0" r="1" gradientUnits="userSpaceOnUse" gradientTransform="translate(119.667 109.105) rotate(21.0548) scale(4.89832 6.64854)">
<stop offset="0.4673" stop-color="#F4ACA7" stop-opacity="0.9673"/>
<stop offset="1" stop-color="#F6A8A1" stop-opacity="0.1385"/>
</radialGradient>
<radialGradient id="paint1_radial_92_14" cx="0" cy="0" r="1" gradientUnits="userSpaceOnUse" gradientTransform="translate(159.426 126.506) rotate(21.0574) scale(6.64998 6.64854)">
<stop offset="0.4673" stop-color="#F4ACA7" stop-opacity="0.9673"/>
<stop offset="1" stop-color="#F6A8A1" stop-opacity="0.1385"/>
</radialGradient>
<clipPath id="clip0_92_14">
<rect width="287" height="266" fill="white" transform="translate(0 224)"/>
</clipPath>
</defs>
</svg>
