<svg width="209" height="497" viewBox="0 0 209 497" fill="none" xmlns="http://www.w3.org/2000/svg">
<path d="M127.152 163.127C127.152 163.127 144.263 169.915 151.054 195.439L142.09 236.712C142.09 236.712 137.473 246.487 129.053 247.031C120.633 247.574 113.028 247.031 113.028 247.031L121.176 172.088L127.152 163.127Z" fill="#795B53" stroke="#684E49" stroke-miterlimit="10"/>
<path d="M114.929 281.787L148.609 195.711C148.609 195.711 131.769 184.307 126.065 171.002C126.065 171.002 114.114 172.088 106.509 182.406C99.4474 192.453 20.137 255.177 20.137 255.177C20.137 255.177 15.5196 290.747 14.9764 310.026C14.4331 329.033 -0.505482 371.664 1.12418 380.353L21.2234 394.744L58.7057 267.667L95.1016 280.701C95.1016 280.429 106.238 283.959 114.929 281.787Z" fill="#795B53" stroke="#684E49" stroke-miterlimit="10"/>
<path d="M28.5569 245.13C28.5569 245.13 19.8653 245.13 14.4331 251.375C9.00089 257.62 3.8403 257.349 3.8403 257.349C3.8403 257.349 0.852575 262.236 3.8403 264.409C6.82802 266.852 31.8162 263.322 33.7175 260.336C35.8904 257.349 28.5569 245.13 28.5569 245.13Z" fill="#FFE4D4"/>
<path d="M28.5569 245.13C26.1124 245.401 23.9395 245.944 21.7666 247.031C19.5938 247.845 17.6925 249.203 16.0628 250.832C15.248 251.647 14.7048 252.461 13.6183 253.547C12.8035 254.362 11.9886 255.176 10.9022 255.991C8.72932 257.349 6.55641 258.706 3.56869 258.706L4.65514 258.163C3.5687 259.793 3.02546 262.236 4.11191 263.322C4.11191 263.594 4.38351 263.594 4.38351 263.594C4.65512 263.594 4.65514 263.594 4.65514 263.866C5.19836 263.866 5.46997 264.137 6.0132 264.137C7.09964 264.137 8.18608 264.137 9.27252 264.137C13.8899 264.137 18.2357 263.594 22.8531 262.779C25.026 262.508 27.4704 261.965 29.3717 261.422C30.4582 261.15 31.5446 260.879 32.3595 260.336C32.9027 260.064 32.9027 258.978 32.9027 257.892C32.6311 253.547 30.4582 249.203 28.5569 245.13ZM28.5569 245.13C29.915 247.031 31.0014 248.931 32.3595 251.104C33.4459 253.276 34.5324 255.176 35.0756 257.62C35.0756 258.163 35.3472 258.978 35.3472 259.521C35.3472 260.336 35.0756 261.15 34.2607 261.693C33.1743 262.508 32.0878 263.051 30.7298 263.322C28.5569 264.137 26.1124 264.68 23.9395 265.223C19.3221 266.038 14.7048 266.852 10.0874 266.852C9.00092 266.852 7.64285 266.852 6.55641 266.852C6.01319 266.852 5.19836 266.581 4.65514 266.581C4.11192 266.309 3.8403 266.309 3.56869 266.038C3.29708 265.766 3.02546 265.495 2.75385 265.223C1.66741 263.866 1.66742 262.236 1.93903 260.879C2.21064 259.521 2.75386 258.435 3.29709 257.349L3.56869 256.806H4.38351C6.28479 256.806 8.45767 255.991 10.3589 254.905C11.1738 254.362 12.2602 253.547 13.0751 252.733C13.8899 251.918 14.7048 251.104 15.5196 250.289C17.4209 248.66 19.5938 247.574 21.7666 246.759C23.6679 245.401 26.1124 244.858 28.5569 245.13Z" fill="#B69079"/>
<path d="M26.9272 243.772L34.2607 259.521H40.7794L32.3595 237.527L26.9272 243.772Z" fill="white"/>
<path d="M114.114 180.234L32.3595 237.527L40.7794 259.521C40.7794 259.521 82.6075 247.845 104.065 233.725C110.312 229.652 117.102 226.394 124.164 223.679C124.707 223.407 125.25 223.407 125.794 223.136C133.399 219.877 138.016 214.718 138.016 214.718" fill="#795B53"/>
<path d="M114.114 180.234L32.3595 237.527L40.7794 259.521C40.7794 259.521 82.6075 247.845 104.065 233.725C110.312 229.652 117.102 226.394 124.164 223.679C124.707 223.407 125.25 223.407 125.794 223.136C133.399 219.877 138.016 214.718 138.016 214.718" stroke="#684E49" stroke-miterlimit="10"/>
<path d="M151.675 195.222C151.593 195.177 151.523 195.138 151.468 195.106C151.456 195.071 151.443 195.031 151.428 194.987C151.361 194.796 151.262 194.516 151.131 194.158C150.868 193.441 150.477 192.411 149.958 191.155C148.921 188.643 147.377 185.221 145.345 181.585C141.426 174.572 135.641 166.663 128.114 163.021L131.78 160.218C131.957 160.345 132.21 160.527 132.528 160.76C133.197 161.249 134.156 161.962 135.313 162.857C137.627 164.646 140.731 167.157 143.892 170.047C147.055 172.939 150.266 176.201 152.801 179.491C155.344 182.792 157.166 186.071 157.621 189C158.092 192.021 157.87 193.832 157.364 194.878C156.884 195.871 156.123 196.221 155.272 196.264C154.383 196.309 153.405 196.012 152.619 195.679C152.233 195.515 151.905 195.348 151.675 195.222Z" fill="white" stroke="black"/>
<path d="M76.6321 122.669L68.2121 145.478C68.2121 145.478 65.7676 152.266 80.7063 143.848C95.6449 135.431 171.696 78.1377 168.708 41.4809C168.708 41.4809 163.004 36.8649 156.757 45.2824C150.51 53.6999 142.634 55.8721 142.634 55.8721C142.634 55.8721 120.361 113.708 76.6321 122.669Z" fill="#775C55" stroke="#6B534E" stroke-miterlimit="10"/>
<path d="M20.6802 65.1042C18.2357 62.6604 17.4209 58.859 18.5073 55.6006C20.9518 48.8123 26.9273 36.8649 39.1498 26.0037C57.6193 9.44021 66.5825 -3.32179 74.7308 2.38038C83.1508 8.08255 96.4597 26.8182 112.485 34.6927C128.51 42.5671 142.362 55.8722 142.362 55.8722C142.362 55.8722 123.349 110.993 76.6321 122.669C76.6321 122.669 62.5083 101.489 53.2735 94.1581C45.6684 88.1844 28.5569 72.9787 20.6802 65.1042Z" fill="#775C55" stroke="#6B534E" stroke-miterlimit="10"/>
<path d="M152.412 178.061C152.412 178.061 164.634 168.829 162.19 156.882C162.19 156.882 193.153 160.412 197.499 147.921C201.573 135.431 195.326 136.517 202.388 134.616L204.561 132.444L202.388 129.186L206.734 124.57C206.734 124.57 194.783 116.967 195.326 113.98C195.326 113.98 201.302 107.192 197.771 104.748C197.771 104.748 184.733 104.205 182.56 97.6881C180.388 90.8998 179.029 82.4823 179.573 75.4225L171.696 65.1042L158.387 73.5217L125.794 110.993L104.88 129.457L120.633 157.968L152.412 178.061Z" fill="#FFE4D5"/>
<path d="M152.412 178.061C155.399 175.346 158.115 172.088 160.017 168.558C160.831 166.657 161.646 164.756 161.918 162.856C162.19 160.955 162.19 158.783 161.918 156.882V156.339H162.461C166.807 156.61 171.424 156.882 176.042 156.61C180.387 156.339 185.005 155.796 189.079 154.167C191.252 153.352 193.153 152.537 194.511 150.908C195.326 150.094 195.869 149.279 196.413 148.465C196.956 147.65 197.227 146.564 197.499 145.478C198.042 143.305 198.585 141.133 198.314 138.961C198.314 138.418 198.314 137.875 198.042 137.332C198.042 137.06 198.042 136.789 198.042 136.246C198.042 135.974 198.314 135.159 198.585 134.888C199.4 134.345 199.943 134.073 200.487 133.802C201.03 133.53 201.573 133.53 202.116 133.259L201.845 133.53L204.018 131.358L203.746 132.716L201.573 129.729L201.03 128.914L201.573 128.371L205.919 123.755L206.191 125.384C204.018 124.027 201.573 122.397 199.672 120.768C198.585 119.954 197.499 119.139 196.684 118.053C196.141 117.51 195.598 116.967 195.326 116.424C194.783 115.881 194.511 115.066 194.511 113.708V113.437L194.783 113.165C195.869 111.808 196.684 110.45 197.499 109.092C197.771 108.278 198.042 107.735 198.042 106.92C198.042 106.377 197.771 105.834 197.499 105.562L198.042 105.834C194.511 105.562 191.252 105.019 187.721 103.662C186.091 102.847 184.462 102.033 183.104 100.675C182.832 100.403 182.56 99.8603 182.289 99.5888C182.017 99.0457 181.746 98.7742 181.746 98.2311C181.474 97.4165 181.202 96.6019 180.931 95.7873C179.029 89.2706 177.943 82.4823 178.758 75.4225L179.029 76.2371L171.153 65.9188L173.054 66.1904L159.473 74.6079L159.745 74.3363L127.152 111.536L106.238 129.729L106.509 128.643L121.991 157.154L121.719 156.882L152.412 178.061ZM152.412 178.061L120.361 157.968V157.697L104.336 129.457L104.065 128.914L104.608 128.371L125.25 109.907L157.572 72.4356V72.1641H157.844L171.153 63.7466L172.239 63.2035L173.054 64.2896L180.931 74.6079L181.202 75.1509V75.694C180.659 82.2107 181.474 88.7275 183.375 95.2443C183.647 96.0589 183.918 96.8735 184.19 97.6881C184.462 97.9596 184.462 98.2311 184.733 98.5027L185.276 99.3173C186.091 100.403 187.449 101.218 189.079 101.761C192.067 102.847 195.326 103.662 198.314 103.662H198.585L198.857 103.933C199.943 104.748 200.487 106.106 200.487 107.192C200.487 108.278 200.215 109.364 199.672 110.179C198.857 111.808 197.771 113.437 196.684 114.795L196.956 114.252C196.956 114.252 196.956 114.795 197.499 115.338C197.771 115.881 198.314 116.152 198.585 116.695C199.4 117.51 200.487 118.324 201.573 119.139C203.474 120.768 205.647 122.397 207.82 123.755L208.907 124.57L208.092 125.656L203.746 130.272V128.914L205.919 132.173L206.462 132.987L205.919 133.53L203.746 135.703L203.474 135.974H203.203C202.116 136.246 200.758 136.789 200.487 137.06C200.215 136.789 200.487 138.418 200.758 139.504C200.758 141.948 200.487 144.12 199.672 146.564C199.4 147.65 199.129 148.736 198.585 149.822C198.042 150.908 197.227 151.994 196.413 152.809C194.511 154.438 192.338 155.524 190.166 156.339C185.82 157.968 181.202 158.24 176.585 158.511C171.968 158.783 167.35 158.511 163.004 157.968L163.548 157.425C163.819 159.597 163.819 161.498 163.548 163.67C163.004 165.843 162.461 167.743 161.375 169.372C158.387 172.631 155.671 175.618 152.412 178.061Z" fill="#B69079"/>
<path d="M82.8791 142.762C82.8791 142.762 88.0397 167.743 127.152 161.498L131.769 159.597C131.769 159.597 122.806 155.253 119.818 152.537C119.818 152.537 135.843 155.524 138.288 151.18C138.288 151.18 121.176 149.279 121.719 142.491C121.719 142.491 137.201 145.478 134.757 136.789C134.757 136.789 135.3 142.762 121.991 140.59C108.411 138.418 105.966 121.854 119.547 122.397C133.399 122.941 133.942 128.1 133.942 128.1C133.942 128.1 139.917 114.523 127.967 106.377L82.8791 142.762Z" fill="#906656" stroke="#77554A" stroke-miterlimit="10"/>
<path d="M154.856 76.7801H168.708L165.72 69.9918C165.72 69.9918 177.4 72.4356 178.758 76.7801C180.116 81.1246 183.375 60.7597 165.992 56.9583L154.856 76.7801Z" fill="#906656" stroke="#77554A" stroke-miterlimit="10"/>
<path d="M168.708 100.132C170.609 99.3173 172.239 99.0457 174.14 99.0457C174.955 99.0457 175.77 99.0457 176.585 99.0457C177.4 99.0457 178.215 99.0457 179.301 99.0457C179.029 100.132 177.943 100.675 177.128 101.218C176.313 101.761 175.227 101.761 174.14 101.761C172.511 101.761 170.609 101.49 168.708 100.132Z" fill="#B69079"/>
<path d="M165.72 86.8268C164.906 85.7407 164.906 84.6545 165.449 83.5684C165.72 83.0253 166.264 82.7538 166.807 82.4823C167.35 82.2107 168.165 82.2107 168.708 82.4823C168.437 83.8399 168.165 84.383 167.893 84.9261C167.622 85.7407 167.079 86.2837 165.72 86.8268Z" fill="#B69079"/>
<path d="M179.573 119.411C183.923 119.411 187.449 117.101 187.449 114.252C187.449 111.402 183.923 109.092 179.573 109.092C175.222 109.092 171.696 111.402 171.696 114.252C171.696 117.101 175.222 119.411 179.573 119.411Z" fill="url(#paint0_radial_3_963)"/>
<path d="M66.0392 484.621C66.0392 484.621 77.7185 434.659 80.9778 389.313C84.2372 343.967 95.6448 299.979 96.7313 295.092C97.8177 290.204 105.694 283.687 105.694 283.687" stroke="#604845" stroke-miterlimit="10"/>
<path d="M37.5201 487.065C37.5201 487.065 32.6311 494.124 34.804 495.482C36.9768 496.568 89.1262 495.482 89.1262 495.482L63.8664 485.164L37.5201 487.065Z" fill="#846F6A" stroke="#70625E" stroke-miterlimit="10"/>
<path d="M37.7917 487.065L67.1257 484.892C67.1257 484.892 77.1753 422.44 78.5334 408.863C79.8914 395.287 82.6075 361.617 85.3236 352.656C88.0397 343.696 95.9164 286.674 104.065 283.416L58.7057 267.938L28.0137 371.935C28.0137 371.935 31.8162 415.923 32.3595 434.931C32.9027 453.938 37.7917 487.065 37.7917 487.065Z" fill="#684E49" stroke="#604845" stroke-miterlimit="10"/>
<path d="M66.0392 270.111L51.1006 486.793" stroke="#604845" stroke-miterlimit="10"/>
<path d="M82.8791 276.084L58.7057 484.621" stroke="#604845" stroke-miterlimit="10"/>
<path d="M43.7672 318.715V484.621" stroke="#604845" stroke-miterlimit="10"/>
<defs>
<radialGradient id="paint0_radial_3_963" cx="0" cy="0" r="1" gradientUnits="userSpaceOnUse" gradientTransform="translate(179.502 114.167) scale(6.65013 6.64818)">
<stop offset="0.4673" stop-color="#F4ACA7" stop-opacity="0.9673"/>
<stop offset="1" stop-color="#F6A8A1" stop-opacity="0.1385"/>
</radialGradient>
</defs>
</svg>
