<svg width="85" height="83" viewBox="0 0 85 83" fill="none" xmlns="http://www.w3.org/2000/svg">
<path d="M44.7666 73.5509C44.7666 73.5509 96.6372 34.5868 74.0972 21.8045C67.9879 18.2192 60.2949 19.8656 54.9465 24.0756C51.2418 27.246 47.1202 31.5078 45.8991 36.8781C45.8991 36.8781 31.4391 19.262 19.987 25.3087C8.53493 31.3555 5.66273 57.3576 44.7666 73.5509Z" fill="#F29EAE"/>
<path fill-rule="evenodd" clip-rule="evenodd" d="M55.6158 25.7053C60.5389 21.8493 67.3567 20.543 72.5838 23.6098L72.6086 23.6243C75.0894 25.0309 76.3753 26.6863 76.9396 28.4328C77.5172 30.2204 77.4217 32.3602 76.6492 34.8473C75.0853 39.8822 70.951 45.6967 65.9051 51.3311C60.9034 56.9163 55.187 62.1286 50.7034 65.9561C48.4654 67.8666 46.5428 69.4251 45.1815 70.5045C44.678 70.9037 44.2516 71.2373 43.9146 71.4986C25.3722 63.5858 17.1309 53.5883 14.6557 45.2089C12.1199 36.6245 15.5151 29.6579 20.2701 27.1491C24.9134 24.6992 30.4997 26.9122 35.5078 30.5315C37.9213 32.2757 40.0081 34.2128 41.4976 35.7233C42.2399 36.4761 42.8279 37.1169 43.2275 37.5662C43.4272 37.7907 43.5796 37.967 43.6803 38.0851L43.7919 38.2172L43.8176 38.2481L43.8227 38.2542L46.3406 41.3201L47.2217 37.4437C48.2902 32.7425 51.9564 28.8397 55.6158 25.7053ZM44.5444 33.2645C46.5262 28.8241 50.0934 25.3089 53.1245 22.7162L53.1549 22.6902L53.1863 22.6655C58.971 18.1147 67.5405 16.1388 74.5413 20.238C77.6986 22.0313 79.725 24.3928 80.6405 27.226C81.5439 30.022 81.2855 33.0296 80.3631 35.9994C78.537 41.8783 73.9174 48.2149 68.7981 53.9314C63.6346 59.6971 57.7744 65.0356 53.2228 68.9211C50.9432 70.8671 48.9836 72.4557 47.5919 73.5592C46.8959 74.1111 46.3416 74.542 45.9599 74.836C45.769 74.983 45.6212 75.0958 45.5204 75.1724L45.405 75.2599L45.3746 75.2828L45.3664 75.289C45.3657 75.2895 45.3629 75.2917 44.1985 73.7327L45.3629 75.2917L44.4758 75.9576L43.4529 75.5341C23.5467 67.2911 13.8952 56.3741 10.9257 46.3215C7.97147 36.3205 11.7473 27.2441 18.4628 23.7009C25.29 20.0988 32.6832 23.6804 37.7869 27.3687C40.4293 29.2783 42.6815 31.3733 44.2671 32.9813C44.3618 33.0774 44.4543 33.1719 44.5444 33.2645Z" fill="#AA7083"/>
<path d="M66.8111 26.7814C67.6138 29.9939 66.3681 33.2538 65.1225 36.5137C63.6609 39.276 61.7065 42.2651 59.8906 44.892C57.7203 47.3835 55.5501 49.875 53.3798 52.3665L46.1605 59.5702C48.9009 57.7117 51.7798 55.491 54.3044 53.1349C56.6906 51.141 59.2151 48.7849 61.5238 45.9312C63.3397 43.3043 65.2941 40.3152 66.5397 37.0553C67.7854 33.7954 68.4609 29.9025 66.8111 26.7814Z" fill="white"/>
</svg>
